<svg width="85" height="85" viewBox="0 0 85 85" fill="none" xmlns="http://www.w3.org/2000/svg">
<path d="M85 42.5C85 65.9721 65.9721 85 42.5 85C19.0279 85 0 65.9721 0 42.5C0 19.0279 19.0279 0 42.5 0C65.9721 0 85 19.0279 85 42.5Z" fill="#D9D9D9"/>
<path fill-rule="evenodd" clip-rule="evenodd" d="M52.6066 45.5147L43.0606 55.0607C42.4748 55.6464 41.5251 55.6464 40.9393 55.0607L31.3934 45.5147C30.8076 44.9289 30.8076 43.9792 31.3934 43.3934C31.9791 42.8076 32.9289 42.8076 33.5147 43.3934L40.5 50.3787L40.5 21L43.5 21L43.5 50.3787L50.4852 43.3934C51.071 42.8076 52.0208 42.8076 52.6066 43.3934C53.1923 43.9792 53.1923 44.9289 52.6066 45.5147Z" fill="black"/>
<path fill-rule="evenodd" clip-rule="evenodd" d="M61 63H22V60H61V63Z" fill="black"/>
<path fill-rule="evenodd" clip-rule="evenodd" d="M22 62L22 52L25 52L25 62L22 62Z" fill="black"/>
<path fill-rule="evenodd" clip-rule="evenodd" d="M60 63L60 53L63 53L63 63L60 63Z" fill="black"/>
</svg>
