{
	"asset":{
		"generator":"Khronos glTF Blender I/O v4.1.62",
		"version":"2.0"
	},
	"extensionsUsed":[
		"KHR_materials_anisotropy",
		"KHR_materials_transmission",
		"KHR_materials_ior",
		"KHR_materials_emissive_strength"
	],
	"scene":0,
	"scenes":[
		{
			"name":"Scene",
			"nodes":[
				0,
				1,
				2,
				3,
				4,
				5,
				6,
				7,
				8,
				9
			]
		}
	],
	"nodes":[
		{
			"name":"Empty.001",
			"rotation":[
				0.70710688829422,
				0,
				0,
				0.7071066498756409
			],
			"scale":[
				0.5225000381469727,
				0.5225000381469727,
				0.5225000381469727
			],
			"translation":[
				-2,
				0.9000000357627869,
				0
			]
		},
		{
			"name":"Empty.002",
			"rotation":[
				0.70710688829422,
				0,
				0,
				0.7071066498756409
			],
			"scale":[
				0.5,
				0.5,
				0.5
			],
			"translation":[
				1.6999998092651367,
				0.9999999403953552,
				-0.6000000238418579
			]
		},
		{
			"name":"Empty.003",
			"rotation":[
				0.70710688829422,
				0,
				0,
				0.7071066498756409
			],
			"scale":[
				0.5,
				0.5,
				0.5
			],
			"translation":[
				1.7999998331069946,
				1,
				-0.699999988079071
			]
		},
		{
			"name":"Empty.004",
			"rotation":[
				0.7071069478988647,
				0,
				0,
				0.7071066498756409
			],
			"scale":[
				0.4859182834625244,
				0.4859182834625244,
				0.4859182834625244
			],
			"translation":[
				0.029437489807605743,
				1.3507163524627686,
				0.5753522515296936
			]
		},
		{
			"mesh":0,
			"name":"Base"
		},
		{
			"mesh":1,
			"name":"Cuerdas",
			"translation":[
				0.5625261068344116,
				1.1736273765563965,
				-0.17156477272510529
			]
		},
		{
			"mesh":2,
			"name":"Lamp",
			"translation":[
				-0.6742880344390869,
				0.48825713992118835,
				0.5165257453918457
			]
		},
		{
			"mesh":3,
			"name":"Top"
		},
		{
			"mesh":4,
			"name":"Rollo",
			"rotation":[
				0.7071068286895752,
				0,
				0,
				0.7071068286895752
			],
			"translation":[
				1.3184934854507446,
				0.6176477670669556,
				0.39201122522354126
			]
		},
		{
			"mesh":5,
			"name":"Rollo2",
			"rotation":[
				0.6282541751861572,
				-0.32449451088905334,
				-0.32449451088905334,
				0.628254234790802
			],
			"translation":[
				1.0078611373901367,
				1.8683545589447021,
				0.4055584669113159
			]
		}
	],
	"materials":[
		{
			"doubleSided":true,
			"name":"Gris",
			"pbrMetallicRoughness":{
				"metallicFactor":0,
				"roughnessFactor":0.5
			}
		},
		{
			"doubleSided":true,
			"name":"BlackGloss",
			"pbrMetallicRoughness":{
				"baseColorFactor":[
					0.017300330102443695,
					0.017300330102443695,
					0.017300330102443695,
					1
				],
				"metallicFactor":0,
				"roughnessFactor":0.20000000298023224
			}
		},
		{
			"doubleSided":true,
			"extensions":{
				"KHR_materials_anisotropy":{
					"anisotropyStrength":1
				}
			},
			"name":"Silver",
			"pbrMetallicRoughness":{
				"baseColorFactor":[
					0.3298911452293396,
					0.3298911452293396,
					0.3298911452293396,
					1
				],
				"metallicFactor":0.6509090662002563,
				"roughnessFactor":0.16545453667640686
			}
		},
		{
			"doubleSided":true,
			"extensions":{
				"KHR_materials_anisotropy":{
					"anisotropyStrength":1
				}
			},
			"name":"Metal",
			"pbrMetallicRoughness":{
				"baseColorFactor":[
					0.3694135248661041,
					0.3694135248661041,
					0.3694135248661041,
					1
				],
				"roughnessFactor":0.16545453667640686
			}
		},
		{
			"doubleSided":true,
			"extensions":{
				"KHR_materials_transmission":{
					"transmissionFactor":1
				},
				"KHR_materials_ior":{
					"ior":1.4500000476837158
				}
			},
			"name":"Glass",
			"pbrMetallicRoughness":{
				"baseColorFactor":[
					0.800000011920929,
					0.800000011920929,
					0.800000011920929,
					1
				],
				"metallicFactor":0,
				"roughnessFactor":0
			}
		},
		{
			"doubleSided":true,
			"emissiveFactor":[
				1,
				0.348676860332489,
				0.08524955064058304
			],
			"extensions":{
				"KHR_materials_emissive_strength":{
					"emissiveStrength":20
				}
			},
			"name":"Glow",
			"pbrMetallicRoughness":{
				"baseColorFactor":[
					0.800000011920929,
					0.800000011920929,
					0.800000011920929,
					1
				],
				"metallicFactor":0,
				"roughnessFactor":0.5
			}
		},
		{
			"doubleSided":true,
			"extensions":{
				"KHR_materials_transmission":{
					"transmissionFactor":1
				},
				"KHR_materials_ior":{
					"ior":1.4500000476837158
				}
			},
			"name":"Transparent",
			"pbrMetallicRoughness":{
				"baseColorFactor":[
					0.800000011920929,
					0.800000011920929,
					0.800000011920929,
					1
				],
				"metallicFactor":0,
				"roughnessFactor":0.20000000298023224
			}
		}
	],
	"meshes":[
		{
			"name":"Cube",
			"primitives":[
				{
					"attributes":{
						"POSITION":0,
						"NORMAL":1,
						"TEXCOORD_0":2
					},
					"indices":3,
					"material":0
				},
				{
					"attributes":{
						"POSITION":4,
						"NORMAL":5,
						"TEXCOORD_0":6
					},
					"indices":7,
					"material":1
				},
				{
					"attributes":{
						"POSITION":8,
						"NORMAL":9,
						"TEXCOORD_0":10
					},
					"indices":11,
					"material":2
				}
			]
		},
		{
			"name":"NurbsPath.001",
			"primitives":[
				{
					"attributes":{
						"POSITION":12,
						"NORMAL":13,
						"TEXCOORD_0":14
					},
					"indices":15,
					"material":3
				}
			]
		},
		{
			"name":"NurbsPath",
			"primitives":[
				{
					"attributes":{
						"POSITION":16,
						"NORMAL":17,
						"TEXCOORD_0":18
					},
					"indices":19,
					"material":1
				},
				{
					"attributes":{
						"POSITION":20,
						"NORMAL":21,
						"TEXCOORD_0":22
					},
					"indices":23,
					"material":2
				},
				{
					"attributes":{
						"POSITION":24,
						"NORMAL":25,
						"TEXCOORD_0":26
					},
					"indices":27,
					"material":4
				},
				{
					"attributes":{
						"POSITION":28,
						"NORMAL":29,
						"TEXCOORD_0":30
					},
					"indices":31,
					"material":5
				}
			]
		},
		{
			"name":"Cube.007",
			"primitives":[
				{
					"attributes":{
						"POSITION":32,
						"NORMAL":33,
						"TEXCOORD_0":34
					},
					"indices":35,
					"material":0
				},
				{
					"attributes":{
						"POSITION":36,
						"NORMAL":37,
						"TEXCOORD_0":38
					},
					"indices":39,
					"material":2
				},
				{
					"attributes":{
						"POSITION":40,
						"NORMAL":41,
						"TEXCOORD_0":42
					},
					"indices":43,
					"material":1
				},
				{
					"attributes":{
						"POSITION":44,
						"NORMAL":45,
						"TEXCOORD_0":46
					},
					"indices":47,
					"material":4
				}
			]
		},
		{
			"name":"Cylinder.004",
			"primitives":[
				{
					"attributes":{
						"POSITION":48,
						"NORMAL":49,
						"TEXCOORD_0":50
					},
					"indices":51,
					"material":6
				}
			]
		},
		{
			"name":"Cylinder.005",
			"primitives":[
				{
					"attributes":{
						"POSITION":52,
						"NORMAL":53,
						"TEXCOORD_0":54
					},
					"indices":51,
					"material":6
				}
			]
		}
	],
	"accessors":[
		{
			"bufferView":0,
			"componentType":5126,
			"count":583,
			"max":[
				0.9999575018882751,
				0.5440989136695862,
				0.6240000128746033
			],
			"min":[
				-0.9999575018882751,
				0,
				-0.6000000238418579
			],
			"type":"VEC3"
		},
		{
			"bufferView":1,
			"componentType":5126,
			"count":583,
			"type":"VEC3"
		},
		{
			"bufferView":2,
			"componentType":5126,
			"count":583,
			"type":"VEC2"
		},
		{
			"bufferView":3,
			"componentType":5123,
			"count":2412,
			"type":"SCALAR"
		},
		{
			"bufferView":4,
			"componentType":5126,
			"count":3836,
			"max":[
				0.6218603849411011,
				0.5806397795677185,
				0.5603999495506287
			],
			"min":[
				-0.708669900894165,
				0.12195998430252075,
				0.3059510588645935
			],
			"type":"VEC3"
		},
		{
			"bufferView":5,
			"componentType":5126,
			"count":3836,
			"type":"VEC3"
		},
		{
			"bufferView":6,
			"componentType":5126,
			"count":3836,
			"type":"VEC2"
		},
		{
			"bufferView":7,
			"componentType":5123,
			"count":13788,
			"type":"SCALAR"
		},
		{
			"bufferView":8,
			"componentType":5126,
			"count":76,
			"max":[
				0.8273554444313049,
				0.47124677896499634,
				0.5603999495506287
			],
			"min":[
				-0.8273554444313049,
				0.10658130794763565,
				0.4000000059604645
			],
			"type":"VEC3"
		},
		{
			"bufferView":9,
			"componentType":5126,
			"count":76,
			"type":"VEC3"
		},
		{
			"bufferView":10,
			"componentType":5126,
			"count":76,
			"type":"VEC2"
		},
		{
			"bufferView":11,
			"componentType":5123,
			"count":216,
			"type":"SCALAR"
		},
		{
			"bufferView":12,
			"componentType":5126,
			"count":1909,
			"max":[
				0.45304301381111145,
				0.713672935962677,
				0.025831837207078934
			],
			"min":[
				-0.0201177466660738,
				-0.4244717061519623,
				-0.14978188276290894
			],
			"type":"VEC3"
		},
		{
			"bufferView":13,
			"componentType":5126,
			"count":1909,
			"type":"VEC3"
		},
		{
			"bufferView":14,
			"componentType":5126,
			"count":1909,
			"type":"VEC2"
		},
		{
			"bufferView":15,
			"componentType":5123,
			"count":10356,
			"type":"SCALAR"
		},
		{
			"bufferView":16,
			"componentType":5126,
			"count":1147,
			"max":[
				1.2610805034637451,
				0.5246704816818237,
				0.06904613226652145
			],
			"min":[
				-0.02298828959465027,
				-0.0007339745061472058,
				-0.11420142650604248
			],
			"type":"VEC3"
		},
		{
			"bufferView":17,
			"componentType":5126,
			"count":1147,
			"type":"VEC3"
		},
		{
			"bufferView":18,
			"componentType":5126,
			"count":1147,
			"type":"VEC2"
		},
		{
			"bufferView":19,
			"componentType":5123,
			"count":4272,
			"type":"SCALAR"
		},
		{
			"bufferView":20,
			"componentType":5126,
			"count":1813,
			"max":[
				1.2843503952026367,
				0.8539313077926636,
				0.09231597185134888
			],
			"min":[
				-0.0231931209564209,
				-0.0007339745061472058,
				-0.12244334071874619
			],
			"type":"VEC3"
		},
		{
			"bufferView":21,
			"componentType":5126,
			"count":1813,
			"type":"VEC3"
		},
		{
			"bufferView":22,
			"componentType":5126,
			"count":1813,
			"type":"VEC2"
		},
		{
			"bufferView":23,
			"componentType":5123,
			"count":9816,
			"type":"SCALAR"
		},
		{
			"bufferView":24,
			"componentType":5126,
			"count":1460,
			"max":[
				1.2599233388900757,
				0.8028731346130371,
				0.06788911670446396
			],
			"min":[
				1.07899010181427,
				0.43881601095199585,
				-0.11304417997598648
			],
			"type":"VEC3"
		},
		{
			"bufferView":25,
			"componentType":5126,
			"count":1460,
			"type":"VEC3"
		},
		{
			"bufferView":26,
			"componentType":5126,
			"count":1460,
			"type":"VEC2"
		},
		{
			"bufferView":27,
			"componentType":5123,
			"count":6504,
			"type":"SCALAR"
		},
		{
			"bufferView":28,
			"componentType":5126,
			"count":718,
			"max":[
				1.2041785717010498,
				0.5793697834014893,
				0.012144189327955246
			],
			"min":[
				1.134734869003296,
				0.4396417737007141,
				-0.05729946494102478
			],
			"type":"VEC3"
		},
		{
			"bufferView":29,
			"componentType":5126,
			"count":718,
			"type":"VEC3"
		},
		{
			"bufferView":30,
			"componentType":5126,
			"count":718,
			"type":"VEC2"
		},
		{
			"bufferView":31,
			"componentType":5123,
			"count":2994,
			"type":"SCALAR"
		},
		{
			"bufferView":32,
			"componentType":5126,
			"count":12308,
			"max":[
				1.4205554723739624,
				1.9740941524505615,
				0.5
			],
			"min":[
				-0.699999988079071,
				0.41999995708465576,
				-0.7319283485412598
			],
			"type":"VEC3"
		},
		{
			"bufferView":33,
			"componentType":5126,
			"count":12308,
			"type":"VEC3"
		},
		{
			"bufferView":34,
			"componentType":5126,
			"count":12308,
			"type":"VEC2"
		},
		{
			"bufferView":35,
			"componentType":5123,
			"count":49884,
			"type":"SCALAR"
		},
		{
			"bufferView":36,
			"componentType":5126,
			"count":5758,
			"max":[
				1.3797972202301025,
				1.9175552129745483,
				0.6938756704330444
			],
			"min":[
				0.31548017263412476,
				0.5562390685081482,
				-0.32235556840896606
			],
			"type":"VEC3"
		},
		{
			"bufferView":37,
			"componentType":5126,
			"count":5758,
			"type":"VEC3"
		},
		{
			"bufferView":38,
			"componentType":5126,
			"count":5758,
			"type":"VEC2"
		},
		{
			"bufferView":39,
			"componentType":5123,
			"count":28026,
			"type":"SCALAR"
		},
		{
			"bufferView":40,
			"componentType":5126,
			"count":3682,
			"max":[
				1.0723834037780762,
				1.934648036956787,
				0.30509239435195923
			],
			"min":[
				0.3793713450431824,
				0.6224064230918884,
				-0.3623647689819336
			],
			"type":"VEC3"
		},
		{
			"bufferView":41,
			"componentType":5126,
			"count":3682,
			"type":"VEC3"
		},
		{
			"bufferView":42,
			"componentType":5126,
			"count":3682,
			"type":"VEC2"
		},
		{
			"bufferView":43,
			"componentType":5123,
			"count":17142,
			"type":"SCALAR"
		},
		{
			"bufferView":44,
			"componentType":5126,
			"count":256,
			"max":[
				0.7421966195106506,
				1.1014736890792847,
				0.34873315691947937
			],
			"min":[
				0.7254625558853149,
				0.9064905047416687,
				0.1537499725818634
			],
			"type":"VEC3"
		},
		{
			"bufferView":45,
			"componentType":5126,
			"count":256,
			"type":"VEC3"
		},
		{
			"bufferView":46,
			"componentType":5126,
			"count":256,
			"type":"VEC2"
		},
		{
			"bufferView":47,
			"componentType":5123,
			"count":1434,
			"type":"SCALAR"
		},
		{
			"bufferView":48,
			"componentType":5126,
			"count":1152,
			"max":[
				0.39635780453681946,
				0.06733213365077972,
				0.39635801315307617
			],
			"min":[
				-0.3963581323623657,
				-0.06509877741336823,
				-0.3963578939437866
			],
			"type":"VEC3"
		},
		{
			"bufferView":49,
			"componentType":5126,
			"count":1152,
			"type":"VEC3"
		},
		{
			"bufferView":50,
			"componentType":5126,
			"count":1152,
			"type":"VEC2"
		},
		{
			"bufferView":51,
			"componentType":5123,
			"count":7392,
			"type":"SCALAR"
		},
		{
			"bufferView":52,
			"componentType":5126,
			"count":1152,
			"max":[
				0.39635780453681946,
				0.06733213365077972,
				0.39635801315307617
			],
			"min":[
				-0.3963581323623657,
				-0.06509877741336823,
				-0.3963578939437866
			],
			"type":"VEC3"
		},
		{
			"bufferView":53,
			"componentType":5126,
			"count":1152,
			"type":"VEC3"
		},
		{
			"bufferView":54,
			"componentType":5126,
			"count":1152,
			"type":"VEC2"
		}
	],
	"bufferViews":[
		{
			"buffer":0,
			"byteLength":6996,
			"byteOffset":0,
			"target":34962
		},
		{
			"buffer":0,
			"byteLength":6996,
			"byteOffset":6996,
			"target":34962
		},
		{
			"buffer":0,
			"byteLength":4664,
			"byteOffset":13992,
			"target":34962
		},
		{
			"buffer":0,
			"byteLength":4824,
			"byteOffset":18656,
			"target":34963
		},
		{
			"buffer":0,
			"byteLength":46032,
			"byteOffset":23480,
			"target":34962
		},
		{
			"buffer":0,
			"byteLength":46032,
			"byteOffset":69512,
			"target":34962
		},
		{
			"buffer":0,
			"byteLength":30688,
			"byteOffset":115544,
			"target":34962
		},
		{
			"buffer":0,
			"byteLength":27576,
			"byteOffset":146232,
			"target":34963
		},
		{
			"buffer":0,
			"byteLength":912,
			"byteOffset":173808,
			"target":34962
		},
		{
			"buffer":0,
			"byteLength":912,
			"byteOffset":174720,
			"target":34962
		},
		{
			"buffer":0,
			"byteLength":608,
			"byteOffset":175632,
			"target":34962
		},
		{
			"buffer":0,
			"byteLength":432,
			"byteOffset":176240,
			"target":34963
		},
		{
			"buffer":0,
			"byteLength":22908,
			"byteOffset":176672,
			"target":34962
		},
		{
			"buffer":0,
			"byteLength":22908,
			"byteOffset":199580,
			"target":34962
		},
		{
			"buffer":0,
			"byteLength":15272,
			"byteOffset":222488,
			"target":34962
		},
		{
			"buffer":0,
			"byteLength":20712,
			"byteOffset":237760,
			"target":34963
		},
		{
			"buffer":0,
			"byteLength":13764,
			"byteOffset":258472,
			"target":34962
		},
		{
			"buffer":0,
			"byteLength":13764,
			"byteOffset":272236,
			"target":34962
		},
		{
			"buffer":0,
			"byteLength":9176,
			"byteOffset":286000,
			"target":34962
		},
		{
			"buffer":0,
			"byteLength":8544,
			"byteOffset":295176,
			"target":34963
		},
		{
			"buffer":0,
			"byteLength":21756,
			"byteOffset":303720,
			"target":34962
		},
		{
			"buffer":0,
			"byteLength":21756,
			"byteOffset":325476,
			"target":34962
		},
		{
			"buffer":0,
			"byteLength":14504,
			"byteOffset":347232,
			"target":34962
		},
		{
			"buffer":0,
			"byteLength":19632,
			"byteOffset":361736,
			"target":34963
		},
		{
			"buffer":0,
			"byteLength":17520,
			"byteOffset":381368,
			"target":34962
		},
		{
			"buffer":0,
			"byteLength":17520,
			"byteOffset":398888,
			"target":34962
		},
		{
			"buffer":0,
			"byteLength":11680,
			"byteOffset":416408,
			"target":34962
		},
		{
			"buffer":0,
			"byteLength":13008,
			"byteOffset":428088,
			"target":34963
		},
		{
			"buffer":0,
			"byteLength":8616,
			"byteOffset":441096,
			"target":34962
		},
		{
			"buffer":0,
			"byteLength":8616,
			"byteOffset":449712,
			"target":34962
		},
		{
			"buffer":0,
			"byteLength":5744,
			"byteOffset":458328,
			"target":34962
		},
		{
			"buffer":0,
			"byteLength":5988,
			"byteOffset":464072,
			"target":34963
		},
		{
			"buffer":0,
			"byteLength":147696,
			"byteOffset":470060,
			"target":34962
		},
		{
			"buffer":0,
			"byteLength":147696,
			"byteOffset":617756,
			"target":34962
		},
		{
			"buffer":0,
			"byteLength":98464,
			"byteOffset":765452,
			"target":34962
		},
		{
			"buffer":0,
			"byteLength":99768,
			"byteOffset":863916,
			"target":34963
		},
		{
			"buffer":0,
			"byteLength":69096,
			"byteOffset":963684,
			"target":34962
		},
		{
			"buffer":0,
			"byteLength":69096,
			"byteOffset":1032780,
			"target":34962
		},
		{
			"buffer":0,
			"byteLength":46064,
			"byteOffset":1101876,
			"target":34962
		},
		{
			"buffer":0,
			"byteLength":56052,
			"byteOffset":1147940,
			"target":34963
		},
		{
			"buffer":0,
			"byteLength":44184,
			"byteOffset":1203992,
			"target":34962
		},
		{
			"buffer":0,
			"byteLength":44184,
			"byteOffset":1248176,
			"target":34962
		},
		{
			"buffer":0,
			"byteLength":29456,
			"byteOffset":1292360,
			"target":34962
		},
		{
			"buffer":0,
			"byteLength":34284,
			"byteOffset":1321816,
			"target":34963
		},
		{
			"buffer":0,
			"byteLength":3072,
			"byteOffset":1356100,
			"target":34962
		},
		{
			"buffer":0,
			"byteLength":3072,
			"byteOffset":1359172,
			"target":34962
		},
		{
			"buffer":0,
			"byteLength":2048,
			"byteOffset":1362244,
			"target":34962
		},
		{
			"buffer":0,
			"byteLength":2868,
			"byteOffset":1364292,
			"target":34963
		},
		{
			"buffer":0,
			"byteLength":13824,
			"byteOffset":1367160,
			"target":34962
		},
		{
			"buffer":0,
			"byteLength":13824,
			"byteOffset":1380984,
			"target":34962
		},
		{
			"buffer":0,
			"byteLength":9216,
			"byteOffset":1394808,
			"target":34962
		},
		{
			"buffer":0,
			"byteLength":14784,
			"byteOffset":1404024,
			"target":34963
		},
		{
			"buffer":0,
			"byteLength":13824,
			"byteOffset":1418808,
			"target":34962
		},
		{
			"buffer":0,
			"byteLength":13824,
			"byteOffset":1432632,
			"target":34962
		},
		{
			"buffer":0,
			"byteLength":9216,
			"byteOffset":1446456,
			"target":34962
		}
	],
	"buffers":[
		{
			"byteLength":1455672,
			"uri":"Proyector.bin"
		}
	]
}
