<svg width="32" height="32" viewBox="0 0 32 32" fill="none" xmlns="http://www.w3.org/2000/svg">
<g id="LeftCircleOutlined" clip-path="url(#clip0_622_1154)">
<path id="Vector" d="M19.2611 9.41071L10.4754 15.7679C10.4389 15.7942 10.4091 15.8288 10.3886 15.8688C10.3681 15.9089 10.3574 15.9532 10.3574 15.9982C10.3574 16.0432 10.3681 16.0876 10.3886 16.1276C10.4091 16.1677 10.4389 16.2023 10.4754 16.2286L19.2611 22.5857C19.4504 22.7214 19.7147 22.5857 19.7147 22.3536V20.6786C19.7147 20.3143 19.5397 19.9679 19.2432 19.7536L14.0504 16L19.2432 12.2429C19.5397 12.0286 19.7147 11.6857 19.7147 11.3179V9.64286C19.7147 9.41071 19.4504 9.275 19.2611 9.41071Z" fill="white"/>
<path id="Vector_2" d="M16 0C7.16429 0 0 7.16429 0 16C0 24.8357 7.16429 32 16 32C24.8357 32 32 24.8357 32 16C32 7.16429 24.8357 0 16 0ZM16 29.2857C8.66429 29.2857 2.71429 23.3357 2.71429 16C2.71429 8.66429 8.66429 2.71429 16 2.71429C23.3357 2.71429 29.2857 8.66429 29.2857 16C29.2857 23.3357 23.3357 29.2857 16 29.2857Z" fill="white"/>
</g>
<defs>
<clipPath id="clip0_622_1154">
<rect width="32" height="32" fill="white"/>
</clipPath>
</defs>
</svg>
