<?xml version="1.0" encoding="UTF-8"?>
<svg xmlns="http://www.w3.org/2000/svg" viewBox="0 0 309.47 355.11">
  <defs>
    <style>
      .cls-1 {
        stroke: #303443;
      }

      .cls-1, .cls-2, .cls-3, .cls-4, .cls-5, .cls-6, .cls-7, .cls-8, .cls-9, .cls-10, .cls-11, .cls-12, .cls-13, .cls-14, .cls-15 {
        fill: none;
        stroke-width: 2px;
      }

      .cls-2 {
        stroke: #b6b9bd;
      }

      .cls-3 {
        stroke: #394353;
      }

      .cls-16 {
        fill: #6b747b;
      }

      .cls-16, .cls-17, .cls-18, .cls-19, .cls-20, .cls-21, .cls-22, .cls-23 {
        stroke-width: 0px;
      }

      .cls-17 {
        fill: #0d152b;
      }

      .cls-18 {
        fill: #5c656c;
      }

      .cls-4 {
        stroke: #848995;
      }

      .cls-5 {
        stroke: #283344;
      }

      .cls-6 {
        stroke: #373c4c;
      }

      .cls-7 {
        stroke: #aeb3b6;
      }

      .cls-8 {
        stroke: #5b656d;
      }

      .cls-19 {
        fill: #4b555f;
      }

      .cls-20 {
        fill: #58575d;
      }

      .cls-9 {
        stroke: #313a4c;
      }

      .cls-10 {
        stroke: #535e66;
      }

      .cls-11 {
        stroke: #a6aab0;
      }

      .cls-12 {
        stroke: #605f65;
      }

      .cls-21 {
        fill: #68676d;
      }

      .cls-13 {
        stroke: #2d2c2f;
      }

      .cls-22 {
        fill: #fff;
      }

      .cls-14 {
        stroke: #818181;
      }

      .cls-23 {
        fill: #020202;
      }

      .cls-15 {
        stroke: #353537;
      }
    </style>
  </defs>
  <g id="Layer_1" data-name="Layer 1">
    <path class="cls-4" d="M163.49,231.34c.1.2.4.2.6.1.1,0,.1-.1.1-.2l2.4-5.4c.1-.2,0-.4-.2-.5h-.2l-5.4.8c-.2,0-.4.2-.3.5q0,.1.1.2l2.9,4.5" vector-effect="non-scaling-stroke"/>
    <path class="cls-22" d="M163.49,231.34l-3-4.6c-.1-.2-.1-.4.1-.6,0,0,.1-.1.2-.1l5.4-.8c.2,0,.4.1.5.3v.2l-2.4,5.4c-.1.2-.3.3-.5.2-.2.1-.2,0-.3,0Z"/>
    <path class="cls-4" d="M204.49,7.64c-9.4,1.8-19.2,4.2-29.4,7.2" vector-effect="non-scaling-stroke"/>
    <path class="cls-3" d="M175.19,14.84l-13.6,3.8" vector-effect="non-scaling-stroke"/>
    <path class="cls-4" d="M161.49,18.64l-28.2,8.2" vector-effect="non-scaling-stroke"/>
    <path class="cls-3" d="M133.29,26.84l-14.7,4.4" vector-effect="non-scaling-stroke"/>
    <path class="cls-4" d="M118.69,31.24l-27.6,8.6" vector-effect="non-scaling-stroke"/>
    <path class="cls-3" d="M91.09,39.74l-13.7,4.5" vector-effect="non-scaling-stroke"/>
    <path class="cls-4" d="M77.39,44.24l-27.2,8.9" vector-effect="non-scaling-stroke"/>
    <path class="cls-3" d="M50.09,53.14l-26.7,8.8c-.9.3-1.1.8-.6,1.6,2.3,3.9,4.8,8,7.5,12.3.6,1,2.2,2.9,4.9,5.9" vector-effect="non-scaling-stroke"/>
    <path class="cls-5" d="M35.19,81.84c9.8,3,20,3.3,30.5,1.1,2.9-.6,12.7-3.7,13-6.9" vector-effect="non-scaling-stroke"/>
    <path class="cls-4" d="M78.79,75.94c0,.1.1.2.2.2.2.1.4.1.6,0,7.6-3.8,15.5-7.2,23.7-10.2" vector-effect="non-scaling-stroke"/>
    <path class="cls-5" d="M103.29,66.04l14.8-4.9" vector-effect="non-scaling-stroke"/>
    <path class="cls-4" d="M118.19,61.14l26.9-7.8" vector-effect="non-scaling-stroke"/>
    <path class="cls-5" d="M145.09,53.34l16.4-4.3" vector-effect="non-scaling-stroke"/>
    <path class="cls-4" d="M161.49,49.04l28.7-6.7" vector-effect="non-scaling-stroke"/>
    <path class="cls-5" d="M190.19,42.44c4.5-1.1,9.2-2.1,13.8-3,.2,0,.4-.1.5-.3s.2-.3.3-.6" vector-effect="non-scaling-stroke"/>
    <path class="cls-4" d="M204.99,38.54l.7.1h.7l28.1-5.8" vector-effect="non-scaling-stroke"/>
    <path class="cls-5" d="M234.49,32.94c3-.5,11.1-1.1,13.1-3.8.2-.3.2-.6.1-.9l-1.3-3.5" vector-effect="non-scaling-stroke"/>
    <path class="cls-3" d="M246.29,24.64l-8.9-21.9c-.1-.4-.4-.5-.8-.5-10.5.7-21.2,2.5-32.1,5.4" vector-effect="non-scaling-stroke"/>
    <path class="cls-8" d="M246.29,24.64c-6.4-.1-12.5.7-18.5,2.5" vector-effect="non-scaling-stroke"/>
    <path class="cls-2" d="M227.79,27.14l-23.3-19.5" vector-effect="non-scaling-stroke"/>
    <path class="cls-11" d="M227.79,27.14l6.6,5.8" vector-effect="non-scaling-stroke"/>
    <path class="cls-11" d="M204.99,38.54l-9.8-7.8" vector-effect="non-scaling-stroke"/>
    <path class="cls-2" d="M195.19,30.74l-20-15.9" vector-effect="non-scaling-stroke"/>
    <path class="cls-8" d="M195.19,30.74c-3.2,1.3-6.9,2.2-11.2,2.7-1.4.2-2.2.8-2.4,1.9" vector-effect="non-scaling-stroke"/>
    <path class="cls-2" d="M181.59,35.34l-20.1-16.7" vector-effect="non-scaling-stroke"/>
    <path class="cls-11" d="M181.59,35.34l8.7,7.1" vector-effect="non-scaling-stroke"/>
    <path class="cls-11" d="M161.49,49.04l-10.7-8.6" vector-effect="non-scaling-stroke"/>
    <path class="cls-2" d="M150.79,40.44l-17.4-13.6" vector-effect="non-scaling-stroke"/>
    <path class="cls-8" d="M150.79,40.44l-15.9,4.4" vector-effect="non-scaling-stroke"/>
    <path class="cls-2" d="M134.89,44.84l-16.2-13.6" vector-effect="non-scaling-stroke"/>
    <path class="cls-11" d="M134.89,44.84l10.2,8.6" vector-effect="non-scaling-stroke"/>
    <path class="cls-11" d="M118.19,61.14l-11-8.6" vector-effect="non-scaling-stroke"/>
    <path class="cls-2" d="M107.19,52.54l-16-12.7" vector-effect="non-scaling-stroke"/>
    <path class="cls-8" d="M107.19,52.54c-1.2.7-2.8,1.2-4.8,1.6-2.5.5-5.6,1.6-9.4,3.4" vector-effect="non-scaling-stroke"/>
    <path class="cls-2" d="M92.99,57.44l-15.7-13.2" vector-effect="non-scaling-stroke"/>
    <path class="cls-11" d="M92.99,57.44l10.3,8.5" vector-effect="non-scaling-stroke"/>
    <path class="cls-11" d="M78.79,75.94l-11.6-9.3" vector-effect="non-scaling-stroke"/>
    <path class="cls-2" d="M67.09,66.64l-17-13.5" vector-effect="non-scaling-stroke"/>
    <path class="cls-8" d="M67.09,66.64l-16.5,7.4" vector-effect="non-scaling-stroke"/>
    <path class="cls-2" d="M50.59,74.14c.6-3.3-.2-5.6-2.4-6.9-6.9-4.2-12.5,6.6-4.7,10.1" vector-effect="non-scaling-stroke"/>
    <path class="cls-8" d="M43.59,77.24c-2.3,2-5.1,3.5-8.4,4.6" vector-effect="non-scaling-stroke"/>
    <path class="cls-11" d="M50.59,74.14c-1.7,2.6-4.1,3.7-7,3.1" vector-effect="non-scaling-stroke"/>
    <path class="cls-4" d="M197.99,76.44l-26.5,1.1" vector-effect="non-scaling-stroke"/>
    <path class="cls-9" d="M171.49,77.54l-15.8.8" vector-effect="non-scaling-stroke"/>
    <path class="cls-4" d="M155.69,78.34l-27.1,2" vector-effect="non-scaling-stroke"/>
    <path class="cls-9" d="M128.59,80.34l-16.2,1.2" vector-effect="non-scaling-stroke"/>
    <path class="cls-4" d="M112.29,81.54l-27.1,2.4" vector-effect="non-scaling-stroke"/>
    <path class="cls-9" d="M85.19,83.94c-10.5.4-20.6,1.6-30.4,3.5-7.6,1.5-10.7,6.1-14.1,12.3-2.5,4.6,1.3,8.2,4.7,10.6" vector-effect="non-scaling-stroke"/>
    <path class="cls-5" d="M45.39,110.24c4.7,5.9,10.5,8,17.3,6.4" vector-effect="non-scaling-stroke"/>
    <path class="cls-4" d="M62.69,116.64l27.5-3.9" vector-effect="non-scaling-stroke"/>
    <path class="cls-5" d="M90.19,112.64l17.3-1.8" vector-effect="non-scaling-stroke"/>
    <path class="cls-4" d="M107.49,110.94l26.6-2.4" vector-effect="non-scaling-stroke"/>
    <path class="cls-9" d="M134.09,108.54l16.8-1" vector-effect="non-scaling-stroke"/>
    <path class="cls-4" d="M150.89,107.54l26.1-1.5" vector-effect="non-scaling-stroke"/>
    <path class="cls-5" d="M176.99,106.04l16.4-.7" vector-effect="non-scaling-stroke"/>
    <path class="cls-4" d="M193.29,105.34l25.6-.9" vector-effect="non-scaling-stroke"/>
    <path class="cls-5" d="M218.89,104.44l33.1-1.1c.4,0,.6-.2.7-.6l.5-2.2" vector-effect="non-scaling-stroke"/>
    <path class="cls-9" d="M253.19,100.54l2.2-21.9c.1-.6-.2-.9-.8-1l-15.8-1.1" vector-effect="non-scaling-stroke"/>
    <path class="cls-4" d="M238.79,76.54c-3-.3-4.9-.5-5.7-.5-3.5-.1-10-.1-19.7,0" vector-effect="non-scaling-stroke"/>
    <path class="cls-9" d="M213.49,76.04l-15.5.3" vector-effect="non-scaling-stroke"/>
    <path class="cls-7" d="M213.49,76.04l-13.7,20.1" vector-effect="non-scaling-stroke"/>
    <path class="cls-10" d="M199.79,96.14c-1.7-1.2-3.5-1.7-5.4-1.5-3.2.3-6.3.1-9.1-.5" vector-effect="non-scaling-stroke"/>
    <path class="cls-7" d="M185.29,94.14l12.8-17.7" vector-effect="non-scaling-stroke"/>
    <path class="cls-11" d="M185.29,94.14l-8.3,11.9" vector-effect="non-scaling-stroke"/>
    <path class="cls-7" d="M150.89,107.54l20.6-30" vector-effect="non-scaling-stroke"/>
    <path class="cls-7" d="M238.79,76.54l-13.1,18.2" vector-effect="non-scaling-stroke"/>
    <path class="cls-11" d="M225.69,94.84l-6.8,9.6" vector-effect="non-scaling-stroke"/>
    <path class="cls-11" d="M193.29,105.34l6.5-9.2" vector-effect="non-scaling-stroke"/>
    <path class="cls-7" d="M134.09,108.54l21.7-30.2" vector-effect="non-scaling-stroke"/>
    <path class="cls-10" d="M253.19,100.54c-7.2-1.7-14.4-2.9-21.8-3.7-1-.1-2.4-.1-4.2.2-.3,0-.5-.1-.6-.4l-.8-1.8" vector-effect="non-scaling-stroke"/>
    <path class="cls-11" d="M107.49,110.94l7.7-11.1" vector-effect="non-scaling-stroke"/>
    <path class="cls-7" d="M115.19,99.84l13.4-19.4" vector-effect="non-scaling-stroke"/>
    <path class="cls-10" d="M115.19,99.84c-4.8-.9-9.6-.5-14.3,1.2-.3.1-.6.1-.9-.1l-1-.6" vector-effect="non-scaling-stroke"/>
    <path class="cls-7" d="M98.89,100.34l13.4-18.8" vector-effect="non-scaling-stroke"/>
    <path class="cls-11" d="M98.89,100.34l-8.7,12.4" vector-effect="non-scaling-stroke"/>
    <path class="cls-11" d="M62.69,116.64l7.6-11.1" vector-effect="non-scaling-stroke"/>
    <path class="cls-7" d="M70.29,105.54l14.9-21.6" vector-effect="non-scaling-stroke"/>
    <path class="cls-10" d="M70.29,105.54c-4.8.8-9.1.9-12.8.5" vector-effect="non-scaling-stroke"/>
    <path class="cls-7" d="M57.49,106.04c11.2-5.1-.8-17.2-5.9-8.5-2.1,3.5.5,7.6,4.5,8.4" vector-effect="non-scaling-stroke"/>
    <path class="cls-10" d="M56.09,105.84c.1.5,0,.9-.2,1.2-.1.3-.5.4-1,.5-3.3.6-6.5,1.5-9.6,2.6" vector-effect="non-scaling-stroke"/>
    <path class="cls-11" d="M57.49,106.04c.1-.2-.4-.3-1.3-.1" vector-effect="non-scaling-stroke"/>
    <path class="cls-3" d="M32.69,109.94l1.9,1.6c.3.3.5.2.6-.2.1-.8-.5-1.5-1.8-2.1" vector-effect="non-scaling-stroke"/>
    <path class="cls-2" d="M33.29,109.34c.2.2,0,.4-.7.6" vector-effect="non-scaling-stroke"/>
    <path class="cls-12" d="M225.39,217.34c-.2-1-.6-2.1-1.3-3.2-9.1-14.5-18.2-28.1-27.1-40.7-2.2-3.1-4.1-7.1-7.8-10" vector-effect="non-scaling-stroke"/>
    <path class="cls-12" d="M171.29,139.14l-20.6-26.9" vector-effect="non-scaling-stroke"/>
    <path class="cls-4" d="M38.79,121.84c-1.1,4.6-5.4,9-8.9,12-.2.2-.2.5,0,.6,3.2,3.7,3.2,7.3-.1,10.8-.2.3-.3.6-.3.9,1.3,9,2.2,26.2,15.4,25.5,4.6-.2,9-1.4,13-3.6.3-.2.4-.4.3-.8l-18.8-46.5c-.1-.2-.3-.3-.5-.3-.1.1-.2.2-.3.3,0,.3,0,.4.1.6.1.3.2.4.1.5" vector-effect="non-scaling-stroke"/>
    <path class="cls-15" d="M159.79,174.34c1.2-.2,2.6.9,4.1.5.3-.1.5-.4.4-.8,0-.1-.1-.3-.3-.3-1.8-1.2-3.8-1.5-6-.9-.4.1-.7.3-.8.7-1.3,2.5-1.2,5,.4,7.4.2.3.6.4.9.2.2-.1.3-.4.3-.6-.4-1.6-1.7-5.8,1-6.2" vector-effect="non-scaling-stroke"/>
    <path class="cls-15" d="M134.29,184.24c.5-.1.8-.8.7-1.4-.2-.7-.7-1.1-1.3-.9h0c-.5.1-.8.8-.7,1.4.2.6.7,1,1.3.9h0" vector-effect="non-scaling-stroke"/>
    <path class="cls-15" d="M139.99,185.34l.3.4c.3.3.8.4,1.2.1.1-.1.2-.2.2-.3.5-1,.2-1.5-.7-1.8-.5-.1-1,.2-1.2.7,0,.3,0,.6.2.9" vector-effect="non-scaling-stroke"/>
    <path class="cls-15" d="M174.99,186.24c.5-.3.6-1,.3-1.5-.3-.6-1-.8-1.5-.5h0c-.5.3-.6,1-.3,1.5.4.6,1.1.8,1.5.5h0" vector-effect="non-scaling-stroke"/>
    <ellipse class="cls-23" cx="133.95" cy="183.06" rx="1" ry="1.2" transform="translate(-40.05 37.54) rotate(-13.9)"/>
    <path class="cls-23" d="M139.99,185.34c-.3-.4-.3-1,.1-1.4.2-.2.5-.3.8-.2,1,.2,1.2.8.7,1.8-.2.4-.7.6-1.1.4-.1,0-.2-.1-.3-.2l-.2-.4Z"/>
    <ellipse class="cls-23" cx="174.46" cy="185.15" rx="1" ry="1.2" transform="translate(-68.82 110.77) rotate(-29.7)"/>
    <circle class="cls-23" cx="136.09" cy="187.94" r="1.1"/>
    <circle class="cls-23" cx="179.69" cy="188.54" r="1.1"/>
    <path class="cls-23" d="M171.69,189.64c.4.2.8.4,1.1.8.4.4.4,1-.1,1.3-.5.4-1.2.3-1.7-.1-.7-.5-.7-1.2.1-1.9.3-.1.5-.2.6-.1Z"/>
    <path class="cls-17" d="M27.09,89.94c1.84,2.04,3.74,4.01,5.71,5.93,1.04,1.02,2.47.85,3.54,0,.93-.75,1.86-1.59,2.37-2.7.64-1.4.78-2.98.05-4.38-1.31-2.49-4.52-3.2-7.06-2.7-1.63.33-2.22,2.35-1.49,3.67.32.59.76,1.12,1.23,1.6.18.19.38.38.56.57.1.1.58.75.25.24.08.11.14.22.21.33-.11-.31-.12-.32-.02-.04.06.28.12.57.19.85.19.8.55,1.55,1.12,2.15.11.12.38.46.53.5-.24-.21-.37-.47-.38-.76,0,.15,0,.3,0,.45-.01.73-.05,1.46-.07,2.19-.05,1.46-.1,2.92-.15,4.37-.04,1.31,1.18,2.56,2.5,2.5,1.39-.06,2.45-1.1,2.5-2.5.05-1.5.1-3.01.15-4.51.06-1.81.35-3.72-.95-5.19-.09-.1-.19-.2-.29-.29-.05-.05-.1-.09-.15-.14-.1-.1-.1-.09-.01.02,0,.03.16.49.11.2-.03-.14-.07-.28-.1-.42-.15-.72-.34-1.43-.74-2.07-.35-.57-.81-1.08-1.28-1.55-.21-.21-.43-.42-.63-.65-.05-.05-.28-.39-.12-.13.19.3-.12-.24-.12-.24l-1.49,3.67c.26-.05.23,0,0,0,.15,0,.3,0,.45,0,.46-.01-.13-.08.11,0,.13.04.3.1.43.11.31.04-.24-.16.03,0,.12.07.26.16.38.22.3.13-.25-.23-.02,0,.18.18-.12-.27-.15-.32.12.22.09.17,0-.05v.21c0-.08,0-.16,0-.24.03.19-.12.26.03,0-.07.13-.15.26-.23.38.13-.21.09-.1-.04.03s-.27.27-.42.41c-.26.24-.53.45-.81.67h3.54c-1.96-1.92-3.87-3.9-5.71-5.93-.88-.97-2.65-.96-3.54,0-.95,1.04-.94,2.5,0,3.54h0Z"/>
    <path class="cls-17" d="M26.89,91.54c1.34,2.52,2.69,5.05,3.83,7.67,1.02,2.33,1.81,5.15,2.83,7.65.49,1.21,1.69,2.2,3.08,1.75,1.17-.38,2.27-1.78,1.75-3.08-1.15-2.83-2.01-5.76-3.21-8.57s-2.56-5.34-3.95-7.95c-.61-1.16-2.32-1.61-3.42-.9-1.18.76-1.55,2.18-.9,3.42h0Z"/>
    <path class="cls-17" d="M26.25,91.89c.84,1.52,1.66,3.05,2.47,4.58.28.54.91.99,1.49,1.15s1.4.09,1.93-.25,1-.86,1.15-1.49c.15-.67.07-1.31-.25-1.93-.81-1.54-1.63-3.06-2.47-4.58-.3-.54-.9-.99-1.49-1.15s-1.4-.09-1.93.25-1,.86-1.15,1.49-.08,1.32.25,1.93h0Z"/>
    <path class="cls-17" d="M28.67,95.75c.47,1.67,1.25,3.25,2.04,4.78.36.7.73,1.4,1.06,2.11.08.17.14.37.24.54-.16-.37-.18-.44-.08-.19.04.09.07.18.11.27.14.37.26.74.37,1.11.37,1.25,1.78,2.17,3.08,1.75s2.14-1.73,1.75-3.08c-.49-1.67-1.27-3.24-2.07-4.78-.36-.7-.73-1.4-1.05-2.11-.08-.17-.29-.81-.04-.08-.06-.18-.15-.36-.22-.55-.14-.37-.26-.74-.36-1.12-.35-1.26-1.79-2.16-3.08-1.75s-2.12,1.73-1.75,3.08h0Z"/>
    <path class="cls-17" d="M32.88,105.5c1.19,2.28,2.29,4.61,3.31,6.97.12.28.13.31.04.09.06.15.13.31.19.46.13.31.25.61.38.92.2.5.39,1,.59,1.49.55,1.36,1.15,2.56,2.11,3.68.86.99,2.67.95,3.54,0,.97-1.06.92-2.48,0-3.54-.18-.22-.19-.21,0,0-.08-.12-.16-.23-.23-.35-.15-.24-.28-.49-.41-.75-.03-.07-.34-.76-.22-.48s-.17-.43-.19-.5c-.5-1.27-1.02-2.53-1.56-3.79-.99-2.29-2.06-4.53-3.21-6.74-.61-1.16-2.32-1.6-3.42-.9-1.18.76-1.55,2.18-.9,3.42h0Z"/>
  </g>
  <g id="Left_Arm">
    <g>
      <path class="cls-4" d="M288.09,108.14c.1.9,2.1,2.4,2.7,3.7.3.5.5.5.8,0,1.1-2.5,2.8-4.6,5.1-6.2.2-.2.4-.4.4-.8.3-5.9,1.3-13.7-1.3-16.1-2.7-2.4-6.7-1.1-7.9,2-1.4,3.8,0,13.1.2,17.4" vector-effect="non-scaling-stroke"/>
      <path class="cls-4" d="M280.89,92.24c-2.6-6.3-11.6-2-9.2,5.5,1.3,4,2.6,7.9,4,11.9.1.3.3.5.7.3,3-1.1,6.2-1.6,9.4-1.6.3,0,.6-.3.6-.6v-.2c-1.6-5.3-3.5-10.4-5.5-15.3" vector-effect="non-scaling-stroke"/>
      <path class="cls-4" d="M301.49,111.94c.9-1.8.3-4-1.5-4.9h0l-.3-.2c-1.8-.9-4-.3-4.9,1.5h0l-4.1,7.7c-.9,1.8-.3,4,1.5,4.9h0l.3.2c1.8.9,4,.3,4.9-1.5h0l4.1-7.7" vector-effect="non-scaling-stroke"/>
      <path class="cls-4" d="M284.99,137.74c-.3.3-.7.2-1.2-.1-1.5-1.1-2.7-2-3.5-2.6-.3-.2-.5-.2-.7.1-2.9,3.7-3.4,9.1,2.1,10.2,4.2.8,8.7,1,13.6.5,5.4-.5,8-2.8,6-8.5-.1-.3-.4-.4-.7-.3h-.1c-3.6,1.9-7.3,2.4-11.2,1.7-.1,0-.2-.1-.4-.1-.4-.2-.5-.4-.4-.6.1-.3.3-.4.5-.3,7.6,1.6,15.8-1.6,14.6-10.9,0-.3-.2-.4-.5-.3-3.4,1.2-6.5.3-5.5-4.1.1-.2-.1-.4-.3-.5h-.2c-3.9,1.5-6.6.3-8.1-3.6-.1-.2-.3-.3-.6-.3-.1,0-.2.1-.2.2l-.6.9c-.1.2-.2.5,0,.7l3.7,5.8c.1.2.1.5-.1.6h-.1c-.3.1-.6,0-.8-.3-1.2-1.9-2.5-3.8-3.8-5.7-.2-.2-.5-.3-.7-.1h0c-.9.7-2,1.2-3.2,1.5-.3,0-.5-.2-.6-.4,0-.2.1-.4.3-.5,3.8-1.2,6.3-3.7,7.7-7.4.1-.3.1-.7,0-1-3-6.7-16.8-1.1-18.7,4.9-2.3,7.4,8.1,16.4,13.8,20,.2.1.2.3-.1.5" vector-effect="non-scaling-stroke"/>
      <path class="cls-4" d="M299.69,126.04c4.8-.1,6.4-5.9,7.8-9.7.8-2.5.1-4.2-1.7-5.8-.8-.7-2-.6-2.7.2-.1.1-.2.3-.3.4-1.7,3.5-5.5,10.5-4,14.3.1.4.5.6.9.6" vector-effect="non-scaling-stroke"/>
      <path class="cls-22" d="M290.79,111.74c-.6-1.2-2.6-2.8-2.7-3.7-.2-4.3-1.7-13.6-.2-17.3,1.2-3.1,5.2-4.4,7.9-2,2.6,2.4,1.6,10.2,1.3,16.1,0,.3-.2.6-.4.8-2.3,1.6-4,3.6-5.1,6.2-.3.5-.5.5-.8-.1Z"/>
      <path class="cls-22" d="M271.79,97.74c-2.5-7.5,6.6-11.8,9.2-5.5,2,4.9,3.8,10,5.5,15.3.1.3-.1.7-.4.8h-.2c-3.2,0-6.4.5-9.4,1.6-.3.1-.6,0-.7-.3-1.4-4-2.7-8-4-11.9Z"/>
      <path class="cls-22" d="M299.69,106.84l.3.2c1.8.9,2.4,3.1,1.5,4.9l-4.1,7.7c-.9,1.8-3.1,2.4-4.9,1.5l-.3-.2c-1.8-.9-2.4-3.1-1.5-4.9l4.1-7.7c.9-1.7,3.1-2.4,4.9-1.5Z"/>
      <path class="cls-22" d="M284.99,137.14c-5.7-3.5-16.1-12.5-13.8-20,1.9-6,15.7-11.7,18.7-4.9.1.3.2.7,0,1-1.4,3.7-3.9,6.2-7.7,7.4-.3.1-.4.4-.3.7.1.2.3.3.5.3,1.2-.2,2.3-.7,3.2-1.5.2-.2.5-.1.7.1h0c1.3,1.9,2.6,3.8,3.8,5.7.2.3.4.4.8.3.2-.1.4-.4.3-.6v-.1l-3.7-5.8c-.1-.2-.1-.5,0-.7l.6-.9c.1-.2.4-.2.6-.1q.1.1.2.2c1.4,3.9,4.1,5.1,8.1,3.6.2-.1.4,0,.5.2v.2c-1,4.4,2.1,5.2,5.5,4.1.3-.1.5,0,.5.3,1.2,9.3-7,12.5-14.6,10.9-.3-.1-.5,0-.5.3-.1.2.1.4.4.6.1.1.2.1.4.1,3.9.8,7.7.2,11.2-1.7.3-.1.6,0,.7.2v.1c2.1,5.7-.5,7.9-6,8.5-4.9.5-9.4.3-13.6-.5-5.5-1.1-5-6.5-2.1-10.2.2-.3.4-.3.7-.1.8.6,2,1.5,3.5,2.6.4.3.8.4,1.2.1.5,0,.5-.2.2-.4Z"/>
      <path class="cls-22" d="M298.79,125.54c-1.6-3.9,2.3-10.8,4-14.3.5-.9,1.6-1.3,2.5-.9.2.1.3.2.4.3,1.8,1.6,2.6,3.4,1.7,5.8-1.3,3.8-2.9,9.6-7.8,9.7-.3-.1-.7-.3-.8-.6Z"/>
      <path class="cls-1" d="M296.39,146.74c-5.3-.1-10.1.4-15.3-.5-.3-.1-.5.1-.6.4-.8,4.5-1.6,8.9-2.6,13.3-4,18-18.9,13.8-30.8,8-.4-.2-.8,0-1,.3,0,.1-.1.2-.1.3l-.9,16.4c0,.3.2.7.5.8,31.5,10.7,51-6.9,51.3-38.5.1-.3-.1-.5-.5-.5" vector-effect="non-scaling-stroke"/>
      <path class="cls-20" d="M281.09,146.24c5.3.9,10,.5,15.3.5.4,0,.5.2.5.5-.3,31.6-19.8,49.2-51.3,38.5-.3-.1-.5-.4-.5-.8l.9-16.4c0-.4.4-.7.8-.7.1,0,.2,0,.3.1,11.8,5.8,26.8,10,30.8-8,1-4.4,1.8-8.8,2.6-13.3.1-.3.3-.4.6-.4Z"/>
      <path class="cls-17" d="M305.49,127.24c.3-5.8,8.4-13.1.6-17.7-.3-.1-.6-.2-.9-.1-.4.1-.8.1-1.1,0-1.7-.7-1.2-3.1-4.7-3.6-.3,0-.5-.2-.5-.6.2-4.4,1.4-11.9-.9-15.7-2.3-3.9-7.8-3.5-10,.3-2,3.5-.8,10.5-.4,14.7,0,.1-.1.2-.2.2s-.3-.1-.3-.2c-1.3-3.8-3.6-13.1-7-15.1-3.6-2.2-7.8-.1-9,3.6-1.3,4,2.9,13.3,4.4,17.4.1.3,0,.6-.3.8-10.1,7-2.4,17.2,4,22.7.3.2.3.5.1.8-2.4,3.7-3.6,7.8.3,10.9.2.2.3.5.3.8-.7,5.7-1.6,10.8-2.8,15.2-4.4,16.4-19.3,10.1-30,5.4,0,0,0,0-.01-.01-.31-.06-.57-.18-.8-.33-.24-.05-.47-.11-.68-.23l-1.03,20.07c.39.14.78.27,1.17.41.08.02.16.05.24.07.08.02.15.05.22.08.09,0,.18,0,.29.05,14.1,4.8,31.1,4.6,41.7-7.1,8-8.8,9.5-20.8,10.6-32.6,0-.4.2-.6.5-.8,3.9-1.9,5-5,3.2-9.3-.1-.3-.1-.6.1-.9,1.8-2.8,2.7-5.9,2.9-9.2ZM303.49,111.44c.1-.1.2-.3.3-.4.7-.8,1.9-.9,2.7-.2,1.8,1.6,2.5,3.3,1.7,5.8-1.4,3.8-3,9.6-7.8,9.7-.4,0-.8-.2-.9-.6-1.5-3.8,2.3-10.8,4-14.3ZM300.39,107.14l.3.2c1.8.9,2.4,3.1,1.5,4.9l-4.1,7.7c-.9,1.8-3.1,2.4-4.9,1.5l-.3-.2c-1.8-.9-2.4-3.1-1.5-4.9l4.1-7.7c.9-1.8,3.1-2.4,4.9-1.5ZM288.59,91.04c1.2-3.1,5.2-4.4,7.9-2,2.6,2.4,1.6,10.2,1.3,16.1,0,.4-.2.6-.4.8-2.3,1.6-4,3.7-5.1,6.2-.3.5-.5.5-.8,0-.6-1.3-2.6-2.8-2.7-3.7-.2-4.3-1.6-13.6-.2-17.4ZM272.39,98.04c-2.4-7.5,6.6-11.8,9.2-5.5,2,4.9,3.9,10,5.5,15.3v.2c0,.3-.3.6-.6.6-3.2,0-6.4.5-9.4,1.6-.4.2-.6,0-.7-.3-1.4-4-2.7-7.9-4-11.9ZM297.59,147.54c-.3,31.6-19.8,49.2-51.3,38.5-.3-.1-.5-.5-.5-.8l.9-16.4c0-.1.1-.2.1-.3.2-.3.6-.5,1-.3,11.9,5.8,26.8,10,30.8-8,1-4.4,1.8-8.8,2.6-13.3.1-.3.3-.5.6-.4,5.2.9,10,.4,15.3.5.4,0,.6.2.5.5ZM289.59,138.94c.2,0,.3.1.4.1,3.9.7,7.6.2,11.2-1.7h.1c.3-.1.6,0,.7.3,2,5.7-.6,8-6,8.5-4.9.5-9.4.3-13.6-.5-5.5-1.1-5-6.5-2.1-10.2.2-.3.4-.3.7-.1.8.6,2,1.5,3.5,2.6.5.3.9.4,1.2.1.3-.2.3-.4.1-.5-5.7-3.6-16.1-12.6-13.8-20,1.9-6,15.7-11.6,18.7-4.9.1.3.1.7,0,1-1.4,3.7-3.9,6.2-7.7,7.4-.2.1-.3.3-.3.5.1.2.3.4.6.4,1.2-.3,2.3-.8,3.2-1.5.2-.2.5-.1.7.1,1.3,1.9,2.6,3.8,3.8,5.7.2.3.5.4.8.3h.1c.2-.1.2-.4.1-.6l-3.7-5.8c-.2-.2-.1-.5,0-.7l.6-.9c0-.1.1-.2.2-.2.3,0,.5.1.6.3,1.5,3.9,4.2,5.1,8.1,3.6h.2c.2.1.4.3.3.5-1,4.4,2.1,5.3,5.5,4.1.3-.1.5,0,.5.3,1.2,9.3-7,12.5-14.6,10.9-.2-.1-.4,0-.5.3-.1.2,0,.4.4.6Z"/>
    </g>
  </g>
  <g id="Right_Arm">
    <g>
      <g>
        <path class="cls-1" d="M27.99,146.14c-5.3.8-10.2.4-15.5.7-.3,0-.5.2-.5.5-.1,32.3,20.1,48.5,51.8,38.2.5-.2.7-.7.6-1.1h0l-5-13.3c-.5-1.2-1.3-1.6-2.5-1-21.9,10.7-26.9-6.7-28.3-23.5-.1-.4-.3-.5-.6-.5" vector-effect="non-scaling-stroke"/>
        <path class="cls-20" d="M12.49,146.84c5.3-.3,10.2.1,15.5-.7.3-.1.5.1.6.5,1.4,16.8,6.4,34.2,28.3,23.5,1.2-.6,2-.3,2.5,1l5,13.3c.2.5-.1,1-.5,1.2h0c-31.7,10.3-51.8-5.9-51.8-38.2-.1-.4.1-.5.4-.6Z"/>
        <path class="cls-17" d="M66.93,185.59s.04,0,.06-.01c.02,0,.03,0,.05,0,.02-.05.05-.1.07-.15-.07-.54-.1-1.08-.22-1.48-.24-.76-.53-1.51-.81-2.26-.55-1.44-1.18-2.84-1.83-4.24-.72-1.54-1.32-3.09-1.9-4.68-.43-1.17-1.04-2.25-1.56-3.39-.41-.51-.81-1.01-1.26-1.49-.31-.06-.57-.17-.81-.32-.05.1-.14.19-.27.28-4,2.2-8.4,3.4-13,3.6-13.2.7-14.1-16.5-15.4-25.5,0-.3.1-.6.3-.9,3.3-3.5,3.3-7.1.1-10.8-.2-.1-.2-.4,0-.6,3.5-3,7.8-7.4,8.9-12,.1-.1,0-.2-.1-.5-.1-.2-.1-.3-.1-.6.1-.1.2-.2.3-.3.02,0,.03.01.05.01.08-1.08,0-2.19-.13-3.27-.11-.73-.3-1.43-.53-2.13-.1-.14-.18-.3-.23-.46-.05-.09-.07-.19-.11-.29-1.34-1.73-2.22-3.69-1.93-5.73.12-1.52.48-3,.85-4.48.18-.73.36-1.45.55-2.18,0-.04.02-.07.03-.11.02-.06.03-.13.05-.19.03-.13.07-.25.11-.38.17-.63.34-1.26.54-1.89.05-.15.08-.29.13-.43.25-1.12.52-2.33.59-3.26.08-1.07.03-2.14-.06-3.21-.11-.26-.21-.53-.3-.8-.14-.26-.31-.49-.48-.73-.12-.17-.22-.36-.32-.55-.27-.24-.52-.45-.57-.5-.22-.2-.44-.38-.66-.57-.02-.01-.03-.02-.06-.04-.11-.07-.22-.15-.33-.22-.29-.19-.59-.35-.9-.5-.03-.02-.05-.02-.07-.03-.15-.06-.3-.11-.46-.16-.32-.1-.64-.17-.97-.24-.04,0-.05-.01-.08-.02-.16-.02-.31-.03-.47-.04-.68-.04-1.37-.03-2.05.02-.06.02-.12.03-.18.04-.46.13-.9.3-1.35.47-.08.04-.17.08-.25.11-.23.11-.46.22-.68.34-.02,0-.04.02-.05.03-.08.11-.16.21-.25.32-.03.04-.06.07-.09.11-.07.07-.14.14-.21.21-.12.12-.25.2-.38.29,0,0-.01.01-.02.02-.02.05-.05.1-.08.14-.02.03-.03.05-.05.08,0,.01-.02.03-.03.04-.13.18-.27.36-.41.53-.09.09-.19.15-.28.22-.05.12-.1.25-.17.36-.12.44-.35.84-.69,1.15.16.28.16.56.07.83l-3.6,10.6c-.1.2-.3.3-.5.3-.2-.1-.3-.3-.3-.5.6-3.7,1.7-11.8-1-15-2.1-2.5-5.9-3-8.4-.6-3.1,3-1.9,11.8-1.6,16.8,0,.4-.2.7-.6.7-2,.2-3.4,1.2-4.1,3.1-.1.4-.3.5-.7.5-1.9-.2-3.3.6-4.2,2.2-3.1,5.2,2.4,10.3,2.9,15.8.3,3.2,1.3,6.2,2.9,9,.2.3.2.6.1.9-1.9,4.3-.9,7.4,3.1,9.2.4.2.6.4.6.8,1.9,16.4,4.5,33.2,21.4,40.2,10.5,4.4,21.8,2.7,32.7-.8.11-.03.21-.03.31-.02.19-.17.42-.31.68-.41.12-.07.24-.13.38-.18.12-.06.24-.1.37-.13-.01,0-.03,0-.04,0ZM23.14,107.54c1.8-6.9,3.5-12,5.1-15.3,2-4.3,7-4.4,9.4-.5,2.1,3.5-2.4,13.4-3.7,17.3,1.3.6,1.9,1.3,1.8,2.1-.1.4-.3.5-.6.2l-1.9-1.6c-3.2-1-6.4-1.6-9.7-1.7-.4,0-.5-.1-.4-.5ZM22.14,93.74c-.3,4.9-.7,9.7-1,14.6,0,.3-.2.6-.5.8-1,.6-1.8,1.6-2.1,2.8,0,.1-.1.2-.2.2-.2.1-.4,0-.5-.2-1-2.5-2.6-4.6-4.7-6.3-.5-.4-.9-1-1-1.7-.1-3.1-.2-6.6-.3-10.3-.1-9.4,10.8-7.3,10.3.1ZM9.34,106.94l.3-.2c1.8-.9,4-.3,5,1.5l4.1,7.6c.9,1.8.3,4-1.5,5l-.3.2c-1.8.9-4,.3-5-1.5l-4.1-7.6c-.9-1.8-.3-4,1.5-5ZM2.74,118.34c-1.1-3.2-2-4.1,0-6.7.9-1.3,2-1.7,3.2-1.4.3.1.6.4.7.7,1.9,4.4,4.6,8.5,4.4,13.5,0,.2-.2.5-.4.7-3.7,3.1-6.8-3.7-7.9-6.8ZM8.24,137.24c.2-.5.6-.7,1.1-.4,3.4,1.9,7.2,2.4,11.1,1.5.2,0,.3-.1.4-.3s0-.3-.5-.3c-7.6,1.1-15.6-1.4-14.7-10.9.1-.3.2-.5.6-.5.5,0,1,.2,1.5.5.2.1.5.1.7.1,3-.5,4-2.2,3.3-5v-.2c.1-.2.3-.3.5-.2,3.8,1.5,6.5.4,8-3.4.2-.3.4-.4.7-.3.6.2.8.5.9,1,0,.3-.1.7-.3,1.1-1,1.9-2.2,3.7-3.4,5.5-.2.3-.1.6.2.7.2.1.4,0,.6-.2l3.8-5.9c.2-.2.5-.3.7-.2l3.6,1.7c.3.1.5,0,.5-.4,0-.2-.1-.4-.4-.5-3.6-1.2-6.2-3.6-7.8-7-.1-.3-.2-.6-.1-.9,1.4-7.6,17.7-2.2,19.1,4.7,1.6,7.4-8.6,15.8-13.8,19.5-.1.2-.2.4-.1.6s.2.3.4.3c.1,0,.3-.1.4-.2,1.1-1,2.3-1.9,3.6-2.7.3-.2.6-.1.8.1,3.9,4,2.7,9.5-3.2,10.2-5.1.7-22.8,3.1-18.2-8ZM64.34,185.34c-31.7,10.3-51.9-5.9-51.8-38.2,0-.3.2-.5.5-.5,5.3-.3,10.2.1,15.5-.7.3,0,.5.1.6.5,1.4,16.8,6.4,34.2,28.3,23.5,1.2-.6,2-.2,2.5,1l5,13.3c.1.4-.1.9-.6,1.1Z"/>
        <path class="cls-4" d="M12.59,105.84c2.1,1.7,3.7,3.8,4.7,6.3.1.2.3.3.5.2.1,0,.2-.1.2-.2.3-1.2,1.1-2.2,2.1-2.8.3-.2.5-.5.5-.8.3-4.9.7-9.7,1-14.6.5-7.4-10.4-9.5-10.3-.1.1,3.7.2,7.2.3,10.3.1.7.5,1.3,1,1.7" vector-effect="non-scaling-stroke"/>
        <path class="cls-4" d="M33.29,109.34c1.3-3.9,5.8-13.8,3.7-17.3-2.4-3.9-7.4-3.8-9.4.5-1.6,3.3-3.3,8.4-5.1,15.3-.1.4,0,.5.4.5,3.4,0,6.7.5,9.8,1.6" vector-effect="non-scaling-stroke"/>
        <path class="cls-4" d="M14.09,108.44c-1-1.8-3.2-2.4-5-1.5h0l-.3.2c-1.8,1-2.4,3.2-1.5,5h0l4.1,7.6c1,1.8,3.2,2.4,5,1.5h0l.3-.2c1.8-1,2.4-3.2,1.5-5h0l-4.1-7.6" vector-effect="non-scaling-stroke"/>
        <path class="cls-4" d="M20.29,138.24c-.1.2-.2.3-.4.3-3.9.9-7.7.4-11.1-1.5-.5-.3-.9-.1-1.1.4-4.6,11.1,13.1,8.7,18.2,8,5.9-.7,7.1-6.2,3.2-10.2-.2-.2-.5-.3-.8-.1-1.3.8-2.5,1.7-3.6,2.7-.1.1-.3.2-.4.2-.2,0-.3-.1-.4-.3s0-.4.1-.6c5.2-3.7,15.4-12.1,13.8-19.5-1.4-6.9-17.7-12.3-19.1-4.7-.1.3,0,.6.1.9,1.6,3.4,4.2,5.8,7.8,7,.3.1.4.3.4.5,0,.4-.2.5-.5.4l-3.6-1.7c-.2-.1-.5,0-.7.2l-3.8,5.9c-.2.2-.4.3-.6.2-.3-.1-.4-.4-.2-.7,1.2-1.8,2.4-3.6,3.4-5.5.2-.4.3-.8.3-1.1-.1-.5-.3-.8-.9-1-.3-.1-.5,0-.7.3-1.5,3.8-4.2,4.9-8,3.4-.2-.1-.4,0-.5.2v.2c.7,2.8-.3,4.5-3.3,5-.2,0-.5,0-.7-.1-.5-.3-1-.5-1.5-.5-.4,0-.5.2-.6.5-.9,9.5,7.1,12,14.7,10.9.5,0,.6.1.5.3" vector-effect="non-scaling-stroke"/>
        <path class="cls-4" d="M2.19,118.54c1.1,3.1,4.2,9.9,7.9,6.8.2-.2.4-.5.4-.7.2-5-2.5-9.1-4.4-13.5-.1-.3-.4-.6-.7-.7-1.2-.3-2.3.1-3.2,1.4-2,2.6-1.1,3.5,0,6.7" vector-effect="non-scaling-stroke"/>
        <path class="cls-22" d="M12.59,105.84c-.6-.5-.9-1.1-.9-1.8-.2-3.2-.3-6.6-.3-10.3-.2-9.4,10.8-7.3,10.3.1-.3,4.9-.7,9.7-1,14.6,0,.4-.2.6-.5.8-1.1.7-1.8,1.6-2.1,2.8,0,.2-.2.3-.4.2-.1,0-.2-.1-.2-.2-1.2-2.4-2.8-4.5-4.9-6.2Z"/>
        <path class="cls-22" d="M33.29,109.34c.2.2,0,.4-.7.6-3.1-1.1-6.4-1.6-9.8-1.6-.4,0-.5-.2-.4-.5,1.8-6.9,3.5-12,5.1-15.3,2.1-4.3,7-4.5,9.4-.5,2.2,3.4-2.3,13.4-3.6,17.3Z"/>
        <path class="cls-22" d="M8.89,107.14l.3-.2c1.8-1,4-.3,5,1.5l4.1,7.6c1,1.8.3,4-1.5,5l-.3.2c-1.8,1-4,.3-5-1.5l-4.1-7.6c-1-1.8-.3-4,1.5-5Z"/>
        <path class="cls-22" d="M20.09,137.94c-7.6,1.1-15.7-1.4-14.7-10.9,0-.4.2-.5.6-.5.5,0,1,.2,1.5.5.2.1.4.2.7.1,2.9-.5,4-2.1,3.3-5-.1-.2.1-.4.3-.4h.2c3.8,1.5,6.5.4,8-3.4.1-.3.3-.4.7-.3.5.2.8.5.9,1,0,.3-.1.7-.3,1.1-1.1,1.9-2.2,3.7-3.4,5.5-.2.3-.2.5.2.7.3.1.5.1.6-.2l3.8-5.9c.1-.2.4-.3.7-.2l3.6,1.7c.4.2.6,0,.5-.4,0-.3-.1-.4-.4-.5-3.6-1.3-6.2-3.6-7.8-7-.1-.3-.2-.6-.1-.9,1.4-7.5,17.7-2.1,19.1,4.7,1.5,7.4-8.6,15.8-13.8,19.5-.2.1-.2.4-.1.6.1.2.2.3.4.3.1,0,.2-.1.4-.2,1.1-1,2.3-1.9,3.6-2.7.3-.2.6-.2.8.1,3.9,4,2.7,9.5-3.2,10.2-5.1.6-22.8,3.1-18.2-8,.2-.5.6-.6,1.1-.4,3.5,1.8,7.2,2.3,11.1,1.5.2-.1.4-.2.4-.3-.2-.2-.3-.3-.5-.3Z"/>
        <path class="cls-22" d="M10.09,125.34c-3.7,3.1-6.9-3.8-7.9-6.8-1.1-3.2-1.9-4.1,0-6.7.9-1.3,2-1.7,3.2-1.4.4.1.6.3.7.7,1.9,4.4,4.6,8.5,4.4,13.5-.1.2-.2.5-.4.7Z"/>
      </g>
      <path class="cls-17" d="M7.79,136.44c.2.3.2.6.1.9-1.8,4.3-.7,7.4,3.2,9.3.3.2.5.4.5.8,1.1,11.8,2.6,23.8,10.6,32.6,10.6,11.7,27.6,11.9,41.7,7.1.11-.04.2-.05.29-.05.07-.03.14-.06.22-.08.08-.02.16-.05.24-.07.39-.14.78-.27,1.17-.41l-1.03-20.07c-.22.12-.45.18-.68.23-.23.15-.49.27-.8.33,0,0,0,0-.01.01-10.7,4.7-25.6,11-30-5.4-1.2-4.4-2.1-9.5-2.8-15.2,0-.3.1-.6.3-.8,3.9-3.1,2.7-7.2.3-10.9-.2-.3-.2-.6.1-.8,6.4-5.5,14.1-15.7,4-22.7-.3-.2-.4-.5-.3-.8,1.5-4.1,5.7-13.4,4.4-17.4-1.2-3.7-5.4-5.8-9-3.6-3.4,2-5.7,11.3-7,15.1,0,.1-.2.2-.3.2s-.2-.1-.2-.2c.4-4.2,1.6-11.2-.4-14.7-2.2-3.8-7.7-4.2-10-.3-2.3,3.8-1.1,11.3-.9,15.7,0,.4-.2.6-.5.6-3.5.5-3,2.9-4.7,3.6-.3.1-.7.1-1.1,0-.3-.1-.6,0-.9.1-7.8,4.6.3,11.9.6,17.7.2,3.3,1.1,6.4,2.9,9.2ZM10.89,125.74c-.1.4-.5.6-.9.6-4.8-.1-6.4-5.9-7.8-9.7-.8-2.5-.1-4.2,1.7-5.8.8-.7,2-.6,2.7.2.1.1.2.3.3.4,1.7,3.5,5.5,10.5,4,14.3ZM14.89,108.64l4.1,7.7c.9,1.8.3,4-1.5,4.9l-.3.2c-1.8.9-4,.3-4.9-1.5l-4.1-7.7c-.9-1.8-.3-4,1.5-4.9l.3-.2c1.8-.9,4-.3,4.9,1.5ZM21.59,108.44c-.1.9-2.1,2.4-2.7,3.7-.3.5-.5.5-.8,0-1.1-2.5-2.8-4.6-5.1-6.2-.2-.2-.4-.4-.4-.8-.3-5.9-1.3-13.7,1.3-16.1,2.7-2.4,6.7-1.1,7.9,2,1.4,3.8,0,13.1-.2,17.4ZM33.99,109.94c-.1.3-.3.5-.7.3-3-1.1-6.2-1.6-9.4-1.6-.3,0-.6-.3-.6-.6v-.2c1.6-5.3,3.5-10.4,5.5-15.3,2.6-6.3,11.6-2,9.2,5.5-1.3,4-2.6,7.9-4,11.9ZM13.29,147.04c5.3-.1,10.1.4,15.3-.5.3-.1.5.1.6.4.8,4.5,1.6,8.9,2.6,13.3,4,18,18.9,13.8,30.8,8,.4-.2.8,0,1,.3,0,.1.1.2.1.3l.9,16.4c0,.3-.2.7-.5.8-31.5,10.7-51-6.9-51.3-38.5-.1-.3.1-.5.5-.5ZM21.19,138.34c-.1-.3-.3-.4-.5-.3-7.6,1.6-15.8-1.6-14.6-10.9,0-.3.2-.4.5-.3,3.4,1.2,6.5.3,5.5-4.1-.1-.2.1-.4.3-.5h.2c3.9,1.5,6.6.3,8.1-3.6.1-.2.3-.3.6-.3.1,0,.2.1.2.2l.6.9c.1.2.2.5,0,.7l-3.7,5.8c-.1.2-.1.5.1.6h.1c.3.1.6,0,.8-.3,1.2-1.9,2.5-3.8,3.8-5.7.2-.2.5-.3.7-.1.9.7,2,1.2,3.2,1.5.3,0,.5-.2.6-.4,0-.2-.1-.4-.3-.5-3.8-1.2-6.3-3.7-7.7-7.4-.1-.3-.1-.7,0-1,3-6.7,16.8-1.1,18.7,4.9,2.3,7.4-8.1,16.4-13.8,20-.2.1-.2.3.1.5.3.3.7.2,1.2-.1,1.5-1.1,2.7-2,3.5-2.6.3-.2.5-.2.7.1,2.9,3.7,3.4,9.1-2.1,10.2-4.2.8-8.7,1-13.6.5-5.4-.5-8-2.8-6-8.5.1-.3.4-.4.7-.3h.1c3.6,1.9,7.3,2.4,11.2,1.7.1,0,.2-.1.4-.1.4-.2.5-.4.4-.6Z"/>
    </g>
  </g>
  <g id="Right_Leg">
    <g>
      <g>
        <path class="cls-17" d="M154.04,254.27s-.02-.01-.03-.02c-.08.17-.18.33-.32.47-.06.08-.13.16-.19.24-.08.14-.17.27-.27.41-.1.14-.2.29-.3.43-.67,1.02-1.25,2.08-1.97,3.07-.01.02-.02.04-.04.07-.15.23-.3.45-.46.67-.08.11-.17.22-.27.32-.02.02-.05.04-.07.07-.05.07-.1.14-.16.21-7.91,12.37-16.96,23.76-27.28,34.17-.28.32-.58.34-.89.26-5.81-1.64-10.86-5.44-13.31-11.1-.12-.29-.03-.5.25-.82,10.68-11.55,20.14-23.98,28.53-37.21.02-.04.03-.07.05-.11.96-1.7,1.97-3.38,3.04-5.01.04-.12.08-.24.14-.35.15-.25.29-.5.41-.77.07-.13.16-.24.25-.36.07-.2.17-.39.29-.56-.15-.12-.29-.23-.44-.36-.02.05-.03.1-.06.15-9.23,15.9-20.15,30.51-32.54,43.9-.74.95-1.24.98-2.45.85-.4.02-.69.14-.97.46l-7.63,9.49c-.18.31-.47.43-.78.35-11.73-1.78-8.65,13.96-16.86,18.88-3.57,2.13-5.68,5.36-8.5,8.24-.29.22-.36.62-.34.92,2.05,15.3,29.92,39.72,46.11,32.6,1.85-.82,3.37-2.21,4.55-4.09,6.19-10,6.84-25.27-2.7-33.7-.1,0-.11-.09-.11-.09-.32-.28-.25-.79.04-1,1.62-1.4,5.43-4.45,3.58-6.94-.22-.39-.54-.57-.94-.54-3.71-.07-7.16.85-10.24,2.84-.29.12-.69.14-.91-.14-.22-.39-.25-.79.03-1.1,14.68-14.13,28.18-29.09,39.3-46.18.07-.16.15-.32.27-.46.04-.07.11-.13.16-.19,1.55-2.4,3.05-4.83,4.5-7.31.09-.11.09-.21.19-.21,0,0,0,0,.01,0-.22-.14-.45-.28-.67-.42ZM79.56,312.78c.29-.12.7.06.82.35,1.84,5.4,2.69,10.95,2.44,16.68-.06.61-.26.62-.59.14-2.64-3.84-4.71-8.02-6.18-12.44-.61-1.77,2.05-4.14,3.51-4.73ZM118.33,351.45c-17.19,8.68-43.12-15.15-46.56-30.17-.02-.4.05-.8.33-1.12l1.98-2.03c.37-.42.68-.34.91.14,1.28,2.83,2.58,6.05,3.93,8.47,8.86,15.18,22.91,20.32,39.23,23.51.21.09.31.18.42.37.22.29.04.7-.25.82ZM120.07,322.98l.87-2.06c.17-.51.47-.53.78-.35.73.46,1.07,1.14,1.22,1.93.03.5-.16.71-.55.84l-1.68.4c-.69.24-.9-.04-.65-.76ZM123.54,328.88c0-.1.09-.11.19-.11.3-.02.61.16.63.46,1.03,6.95-.27,13.34-3.91,19.28-.27.52-.85.85-1.46.69l-10.66-2.24c-.31-.08-.32-.28-.22-.39,3.45-7.43,8.59-13.36,15.43-17.69ZM118.69,316.86c.12.39-.05.8-.52,1.23-.75.85-1.7,1.61-2.66,2.27l-.3.02c-.11-.09-.22-.29-.12-.39l1.46-3.9c.09-.21.38-.32.59-.24.9.04,1.43.41,1.57,1ZM112.56,310.23c2.61-1.47,5.38-2.14,8.28-2.12.2-.01.51.07.72.26.53.47.47,1.17.1,1.6l-3.46,3.92c-.37.42-.67.44-1.09.17l-4.6-3.12q-.11-.09-.11-.19c-.11-.19-.02-.4.17-.51ZM110.97,311.93c.1,0,.09-.11.09-.11.09-.21.29-.22.49-.13l2.3,1.46.11.09c.21.09.22.39.03.5l-3.89,3.55c-.09.11-.29.22-.39.12-.21-.09-.32-.28-.23-.49l1.49-5ZM121.43,296.55l-12.28,11.99c-.28.32-.58.34-.89.26-4.5-1.42-7.48-2.64-8.74-3.56-3.57-2.58-3.4-9.61-.9-12.87,2.23-2.84,4.55-5.79,6.97-8.75.09-.11.19-.21.38-.32.58-.34,1.3-.08,1.53.51,2.87,5.83,7.31,9.66,13.64,11.48.1,0,.21.09.31.18.32.38.25.79-.03,1.1Z"/>
        <path class="cls-17" d="M179.12,203.23c-.06-.41-.1-.82-.15-1.22-.34-.07-.63-.2-.88-.39l-23.09,4.01c-.03.06-.07.13-.1.19-.13.46-.26.92-.48,1.36-.01.02-.02.04-.03.06-.34,1.09-.64,2.18-1.04,3.25-.1.27-.21.53-.32.79-.04.2-.1.39-.19.57-.08.31-.18.61-.3.9-.05.13-.13.25-.19.38-.07.23-.15.46-.23.67-.02.05-.04.09-.06.14.16.13.32.26.48.4.04-.26.13-.5.24-.73.04-.21.12-.41.21-.6.06-.23.16-.44.27-.64.05-.14.1-.29.15-.43.01-.03.02-.06.03-.08,0,0,0-.01.01-.02l1.41-4.23c.18-.31.46-.63.86-.65l21.21-3.72c.2-.01.4-.02.51.07.41.17.64.66.47,1.07-1.56,4.13-3.22,8.2-4.96,12.23-.1.32-.21.65-.33.96-.07.17-.14.34-.24.51-.07.12-.14.23-.21.35-.02.05-.04.09-.06.14-.04.13-.09.26-.15.39-.25,1.01-.82,1.94-1.33,2.86-.98,2.15-2,4.29-3.05,6.42-.48,1.04-.95,2.08-1.49,3.08-.02.03-.04.07-.06.1.19.14.38.29.58.42.06.04.13.08.19.12,4.29-8.67,8.28-17.61,11.86-26.72,0-.1.08-.41.24-1.02.04-.26.14-.48.26-.68-.02-.1-.04-.19-.06-.29Z"/>
        <path class="cls-17" d="M155.11,205.59s-.06,0-.09,0c-.01.03-.03.05-.04.08-.37,1.15-.77,2.29-1.17,3.43-.15.47-.29.94-.46,1.4-.04.1-.09.21-.13.31-.07.19-.14.38-.21.57-.04.17-.1.33-.18.48-.08.3-.17.6-.29.89-.07.18-.15.35-.24.53,0,0,0,0,0,.01-.06.17-.11.35-.17.51-.02.07-.05.13-.09.19,0,.02-.02.03-.03.04-3.79,10-8.45,19.72-13.95,29.13.14.08.27.16.41.25.51-.87,1.05-1.73,1.59-2.58.15-.26.28-.52.43-.78,0,0,0-.02.01-.03.15-.25.29-.5.41-.77.03-.05.07-.09.1-.14.08-.15.15-.29.23-.44,0-.02.02-.04.03-.06,4.35-7.96,8.11-16.09,11.3-24.39.04-.22.12-.42.22-.62.04-.21.12-.4.21-.59.06-.22.15-.43.26-.63.85-2.29,1.68-4.59,2.45-6.9-.18.05-.38.09-.59.1Z"/>
        <path class="cls-17" d="M170.23,222.58c-.66,1.42-1.3,2.84-1.99,4.25-.73,1.48-1.36,3.02-2.13,4.47-.1.18-.2.35-.3.53-.46,1.26-1.13,2.42-1.75,3.6-.05.09-.11.17-.17.26-2.97,6.36-6.26,12.54-9.86,18.56-.04.08-.08.15-.13.22-1.56,2.6-3.17,5.16-4.85,7.7.24.15.47.3.7.45.04-.06.07-.13.11-.19.1-.18.23-.33.38-.46.04-.04.07-.08.11-.12.48-.76.98-1.5,1.52-2.22.12-.16.24-.32.36-.47,1.43-2.22,2.84-4.45,4.25-6.68,0,0,.01-.02.02-.03,5.89-10.45,11.08-21.29,15.22-32.75-.41,1-1.06,1.94-1.5,2.89Z"/>
      </g>
      <g>
        <path class="cls-20" d="M120.05,296.34c-5.78-1.74-10.77-5.73-13.12-11.33-.11-.3-.02-.5.17-.71,12.72-13.38,23.98-27.99,33.69-43.74.28-.41.48-.42.8-.04l11.14,14.22c.32.49.35,1.09.07,1.5-8.96,14.61-19.57,28-31.95,39.96-.19.21-.49.32-.79.14Z"/>
        <path class="cls-1" d="M106.93,285.02c2.36,5.7,7.33,9.58,13.12,11.33.3.09.6.07.89-.24,12.28-11.96,22.9-25.24,31.95-39.96.28-.51.25-1.11-.07-1.5l-11.14-14.22c-.32-.39-.62-.37-.8.04-9.71,15.75-20.87,30.36-33.69,43.74-.29.31-.38.52-.26.81" vector-effect="non-scaling-stroke"/>
        <path class="cls-20" d="M151.38,257.6c-6.19-.62-11.99-3.62-15.43-8.75-.17-.27-.12-.49.04-.74,10.35-15.81,19-32.56,25.85-50.15.21-.47.41-.51.8-.19l13.98,12.02c.42.42.56,1.01.35,1.48-6.31,16.31-14.53,31.71-24.81,46.04-.15.25-.43.42-.78.29Z"/>
        <path class="cls-1" d="M135.98,248.98c3.45,5.25,9.2,8.18,15.35,8.81.32.03.62-.04.85-.41,10.08-14.32,18.23-29.64,24.53-46.1.18-.57.04-1.16-.35-1.49l-13.91-12.08c-.39-.33-.69-.25-.8.19-6.77,17.61-15.21,34.37-25.56,50.22-.23.37-.28.59-.11.86" vector-effect="non-scaling-stroke"/>
        <path class="cls-20" d="M140.19,253.55l-.91.88,4.18,2.43c.08-.39.17-.77.25-1.16.04-.19.09-.38.13-.58.15-.75.14-1.46-.26-2.14-.63-1.09-2.03-1.6-3.22-1.19-.53.19-1.04.47-1.55.72l3.76,2.16c0-.08,0-.15.01-.22l-.09.66c.02-.15.06-.29.11-.43l-.25.6c.03-.07.06-.14.1-.2.43-.79.46-1.73,0-2.52-.22-.38-.52-.67-.9-.9-.39-.23-.81-.34-1.26-.34-.61.07-1.08.15-1.64.38-.21.09-.42.17-.61.28-.28.17-.54.39-.79.59l4.27,1.77c0-.18,0-.35.02-.53l-.09.66c.04-.3.12-.6.24-.88.12-.44.12-.89,0-1.33-.08-.33-.23-.61-.45-.85-.48-.62-1.17-.98-1.96-.99s-1.44.2-2.11.54l3.76,2.16c.03-.41.05-.81.08-1.22.01-.34-.06-.67-.22-.96-.1-.31-.27-.58-.52-.8-.5-.45-1.09-.72-1.77-.73-.57-.01-1.18.15-1.66.45-.45.27-.95.73-1.16,1.22-.18.29-.28.6-.3.93-.07.33-.06.66.04,1,.16.58.61,1.21,1.15,1.49.58.31,1.28.46,1.93.25l.6-.25c.38-.22.67-.52.9-.9.02-.06.05-.11.09-.16l-.39.51s.08-.09.13-.13l-.51.39c.05-.04.1-.06.16-.09l-.6.25c.06-.02.11-.04.17-.05l-.66.09s.08,0,.12,0l-2.5-2.5c-.03.41-.05.81-.08,1.22-.06.86.52,1.74,1.24,2.16.81.47,1.71.41,2.52,0,.04-.02.09-.04.13-.06l-.6.25c.14-.06.28-.09.42-.12l-.66.09c.1-.01.19-.02.29-.02l-2.41-3.16c-.26.64-.37,1.38-.35,2.07.01.43.12.89.34,1.26.28.47.7.81,1.2,1.02.19.11.41.17.63.17.22.06.44.06.66,0,.23,0,.44-.06.63-.17.31-.1.58-.27.8-.52l.05-.04-.51.39c.17-.13.35-.23.54-.31l-.6.25c.2-.08.4-.13.61-.16l-.66.09h.07c-.72-1.26-1.44-2.52-2.16-3.77-.36.67-.56,1.36-.56,2.12,0,.88.48,1.72,1.24,2.16.39.23.81.34,1.26.34.45,0,.87-.12,1.26-.34.32-.16.63-.32.95-.47l-.6.25c.05-.02.1-.03.15-.05l-.66.09s.06,0,.1,0l-.66-.09h.04c-.2-.08-.4-.16-.6-.24l.04.02-.51-.39.03.03-.39-.51.03.04-.25-.6.02.05-.09-.66s0,.07,0,.11l.09-.66c-.12.6-.26,1.19-.39,1.79l-.09.66c-.01.34.06.67.22.96.2.48.55.95,1.02,1.2.39.21.82.32,1.26.34.63.03,1.32-.3,1.77-.73l.91-.88c.46-.44.73-1.14.73-1.77s-.27-1.35-.73-1.77-1.1-.76-1.77-.73-1.28.26-1.77.73h0Z"/>
        <path class="cls-20" d="M141.36,255.55l-.06.79c0,.45.12.87.34,1.26.16.29.37.53.64.7.24.22.52.37.85.45.44.12.89.12,1.33,0,.4-.08.8-.26,1.15-.46s.69-.46.97-.76l-3.54-3.54c-.18.21-.35.42-.5.65-.1.15-.16.33-.23.5s-.15.32-.19.49c-.07.28-.09.58-.12.86,0,.45.12.87.34,1.26.22.38.52.67.9.9.39.23.81.34,1.26.34.45,0,.87-.12,1.26-.34l.66-.33-3.76-2.16c0,.13.01.25.02.38l.09.66c.08.33.23.61.45.85.11.19.26.34.45.45.24.22.52.37.85.45.73.19,1.44.08,2.1-.26.27-.14.5-.36.74-.55l-.51.39s.07-.05.11-.07l-.6.25s.05-.02.08-.02l-.66.09s.06,0,.09,0l-.66-.09s.05.01.08.02l-.6-.25s.03.01.04.02l-.51-.39s.02.02.03.03l-.39-.51v.02c-.07-.2-.16-.4-.24-.6v.02c-.02-.22-.05-.44-.08-.66,0,.01,0,.03,0,.04l.09-.66v.02c-.13.44-.13.89,0,1.33.08.33.23.61.45.85.18.27.41.49.7.64.39.23.81.34,1.26.34.16,0,.33.01.49.02.34.01.67-.06.96-.22.31-.1.58-.27.8-.52.24-.23.42-.49.52-.8.16-.3.23-.62.22-.96l-.09-.66c-.12-.42-.33-.79-.64-1.1l-.51-.39c-.39-.23-.81-.34-1.26-.34-.16,0-.33-.01-.49-.02l2.41,3.16c.04-.13.09-.55.1-.69,0-.02,0-.03,0-.04l-.09-.66c-.04-.11-.08-.21-.13-.32-.16-.39-.08-.24-.33-.57-.09-.12-.13-.19-.22-.28-.06-.06-.45-.36-.53-.4-.1-.06-.28-.12-.33-.14-.12-.05-.23-.11-.35-.14-.16-.04-.52-.09-.69-.09-.02,0-.04,0-.06,0-.18,0-.52.06-.69.09-.02,0-.04,0-.06.01h-.03c-.2.09-.4.18-.6.26-.02.01-.04.02-.07.04-.22.14-.42.32-.62.48l.51-.39c-.05.04-.11.08-.17.11l.6-.25s-.05.02-.07.02l.66-.09s-.05,0-.07,0l.66.09h-.04c.61.79,1.22,1.6,1.84,2.4,0-.13-.01-.25-.02-.38,0-.45-.12-.87-.34-1.26-.22-.38-.52-.67-.9-.9-.39-.23-.81-.34-1.26-.34-.45,0-.87.12-1.26.34l-.66.33,3.76,2.16s0-.06,0-.09l-.09.66c.02-.1.05-.2.09-.3l-.25.6c.04-.1.09-.19.16-.27l-.39.51s.04-.05.06-.07c.24-.23.42-.49.52-.8.16-.3.23-.62.22-.96.01-.34-.06-.67-.22-.96-.1-.31-.27-.58-.52-.8-.48-.44-1.1-.76-1.77-.73l-.66.09c-.42.12-.79.33-1.1.64-.08.09-.17.17-.26.24l.51-.39c-.13.1-.27.18-.42.24l.6-.25c-.11.04-.22.08-.34.1l3.16,2.41.06-.79c.01-.34-.06-.67-.22-.96-.1-.31-.27-.58-.52-.8-.23-.24-.49-.42-.8-.52-.3-.16-.62-.23-.96-.22l-.66.09c-.42.12-.79.33-1.1.64l-.39.51c-.23.39-.34.81-.34,1.26h0Z"/>
        <path class="cls-20" d="M139,253.41c3.22,0,3.22-5,0-5s-3.22,5,0,5h0Z"/>
        <path class="cls-20" d="M136.97,248.96c-.23.55-.53,1.06-.88,1.55-.18.29-.28.6-.3.93-.07.33-.06.66.04,1,.08.33.23.61.45.85.18.27.41.49.7.64l.6.25c.44.12.89.12,1.33,0l.6-.25c.38-.22.67-.52.9-.9.35-.48.64-1,.88-1.55.18-.29.28-.6.3-.93.07-.33.06-.66-.04-1-.08-.33-.23-.61-.45-.85-.18-.27-.41-.49-.7-.64l-.6-.25c-.44-.12-.89-.12-1.33,0l-.6.25c-.38.22-.67.52-.9.9h0Z"/>
        <path class="cls-20" d="M136.99,248.86l-.99,1.62c-.18.29-.28.6-.3.93-.07.33-.06.66.04,1,.08.33.23.61.45.85.18.27.41.49.7.64l.6.25c.44.12.89.12,1.33,0l.6-.25c.38-.22.67-.52.9-.9l.99-1.62c.18-.29.28-.6.3-.93.07-.33.06-.66-.04-1-.08-.33-.23-.61-.45-.85-.18-.27-.41-.49-.7-.64l-.6-.25c-.44-.12-.89-.12-1.33,0l-.6.25c-.38.22-.67.52-.9.9h0Z"/>
        <path class="cls-20" d="M137.1,248.55c-.53.75-.9,1.61-1.31,2.43-.18.29-.28.6-.3.93-.07.33-.06.66.04,1,.08.33.23.61.45.85.18.27.41.49.7.64l.6.25c.44.12.89.12,1.33,0l.6-.25c.38-.22.67-.52.9-.9.41-.82.79-1.68,1.31-2.43.18-.29.28-.6.3-.93.07-.33.06-.66-.04-1-.08-.33-.23-.61-.45-.85-.18-.27-.41-.49-.7-.64l-.6-.25c-.44-.12-.89-.12-1.33,0l-.6.25c-.38.22-.67.52-.9.9h0Z"/>
        <path class="cls-20" d="M136.51,249.53c-.25.33-.47.67-.67,1.03-.18.29-.28.6-.3.93-.07.33-.06.66.04,1,.08.33.23.61.45.85.18.27.41.49.7.64l.6.25c.44.12.89.12,1.33,0l.6-.25c.38-.22.67-.52.9-.9.2-.36.42-.7.67-1.03.18-.29.28-.6.3-.93.07-.33.06-.66-.04-1-.08-.33-.23-.61-.45-.85-.18-.27-.41-.49-.7-.64l-.6-.25c-.44-.12-.89-.12-1.33,0l-.6.25c-.38.22-.67.52-.9.9h0Z"/>
        <path class="cls-20" d="M136.72,249.24l-.93,1.24c-.18.29-.28.6-.3.93-.07.33-.06.66.04,1l.25.6c.16.29.37.53.64.7.16.15.34.26.55.32.3.16.62.23.96.22l.66-.09c.42-.12.79-.33,1.1-.64.07-.07.13-.14.2-.21.24-.23.42-.49.52-.8.16-.3.23-.62.22-.96.01-.34-.06-.67-.22-.96-.1-.31-.27-.58-.52-.8l-.51-.39c-.39-.23-.81-.34-1.26-.34l-.66.09c-.42.12-.79.33-1.1.64-.07.07-.13.14-.2.21l3.93,3.03.93-1.24c.18-.29.28-.6.3-.93.07-.33.06-.66-.04-1-.08-.33-.23-.61-.45-.85-.18-.27-.41-.49-.7-.64l-.6-.25c-.44-.12-.89-.12-1.33,0l-.6.25c-.38.22-.67.52-.9.9h0Z"/>
        <path class="cls-20" d="M137.22,248.47c-.06.06-.12.12-.18.18-.18.22-.36.44-.52.67-.1.14-.18.29-.26.44s-.16.32-.23.48c-.04.08-.08.17-.12.25-.04.09-.08.19-.13.27l1.49-1.15h-.02c.94.39,1.88.77,2.82,1.16h0c.08.63.17,1.27.25,1.92h0c-1.03.57-2.05,1.15-3.08,1.73h0c.33.11.66.12,1,.05.33-.02.64-.11.93-.3.29-.16.53-.37.7-.64.22-.24.37-.52.45-.85l.09-.66c0-.45-.12-.87-.34-1.26l-.39-.51c-.31-.31-.68-.52-1.1-.64h0c-.33-.11-.66-.12-1-.05-.33.02-.64.11-.93.3l-.51.39c-.31.31-.52.68-.64,1.1-.16.39-.1.65-.05,1.01,0,.23.06.44.17.63.02.11.07.22.13.31l.39.51c.23.24.49.42.8.52.19.11.41.17.63.17.33.07.66.06,1-.04.21-.08.42-.16.62-.26.38-.22.67-.52.9-.9.02-.04.04-.08.06-.11.04-.07.07-.15.11-.22.07-.15.14-.3.22-.45.13-.27.26-.53.44-.77l-.39.51c.07-.09.14-.17.22-.24.24-.23.42-.49.52-.8.16-.3.23-.62.22-.96.01-.34-.06-.67-.22-.96-.1-.31-.27-.58-.52-.8l-.51-.39c-.39-.23-.81-.34-1.26-.34l-.66.09c-.42.12-.79.33-1.1.64h0Z"/>
        <path class="cls-20" d="M137.01,248.64l-.27.6c-.18.29-.28.6-.3.93-.07.33-.06.66.04,1,.08.33.23.61.45.85.18.27.41.49.7.64l.6.25c.44.12.89.12,1.33,0l.6-.25c.38-.22.67-.52.9-.9l.27-.6c.18-.29.28-.6.3-.93.07-.33.06-.66-.04-1-.08-.33-.23-.61-.45-.85-.18-.27-.41-.49-.7-.64l-.6-.25c-.44-.12-.89-.12-1.33,0l-.6.25c-.38.22-.67.52-.9.9h0Z"/>
        <path class="cls-20" d="M136.3,249.76l-.64.88c-.18.29-.28.6-.3.93-.07.33-.06.66.04,1,.08.33.23.61.45.85.18.27.41.49.7.64l.6.25c.44.12.89.12,1.33,0l.6-.25c.38-.22.67-.52.9-.9l.64-.88c.18-.29.28-.6.3-.93.07-.33.06-.66-.04-1-.08-.33-.23-.61-.45-.85-.18-.27-.41-.49-.7-.64l-.6-.25c-.44-.12-.89-.12-1.33,0l-.6.25c-.38.22-.67.52-.9.9h0Z"/>
        <path class="cls-20" d="M136.59,249.3s-.04.05-.07.08c-.14.18-.28.36-.42.54-.01.01-.02.03-.03.04-.04.06-.08.12-.12.18s-.07.12-.1.18c-.11.22-.2.46-.29.69-.01.03-.03.07-.04.1l-.09.66c-.01.34.06.67.22.96.06.21.17.4.32.55.18.27.41.49.7.64l.6.25.66.09c.34.01.67-.06.96-.22.31-.1.58-.27.8-.52.01-.01.03-.03.04-.04.24-.23.42-.49.52-.8.16-.3.23-.62.22-.96.01-.34-.06-.67-.22-.96-.1-.31-.27-.58-.52-.8l-.51-.39c-.39-.23-.81-.34-1.26-.34l-.66.09c-.42.12-.79.33-1.1.64-.01.01-.03.03-.04.04l4.18,2.43s.03-.07.04-.1l-.25.6c.07-.17.17-.34.29-.49l-.39.51s.06-.08.09-.11c.24-.23.42-.49.52-.8.16-.3.23-.62.22-.96.01-.34-.06-.67-.22-.96-.1-.31-.27-.58-.52-.8l-.51-.39c-.39-.23-.81-.34-1.26-.34l-.66.09c-.42.12-.79.33-1.1.64h0Z"/>
        <path class="cls-20" d="M136.16,249.74l-.48.79.39-.51h0c.37-.21.74-.43,1.1-.64h0c.81.21,1.62.43,2.43.64h0c.21.37.43.73.64,1.1h0c.03.22.06.44.09.66,0,0,0,0,0,0l-.09.66h0c-.08.19-.17.39-.25.59h0c-.3.3-.6.59-.9.89h0c-.42.11-.84.23-1.26.34h0c.34.01.67-.06.96-.22.31-.1.58-.27.8-.52.24-.23.42-.49.52-.8.16-.3.23-.62.22-.96l-.09-.66c-.12-.42-.33-.79-.64-1.1l-.51-.39c-.39-.23-.81-.34-1.26-.34-.11,0-.23.01-.34.04-.33.02-.64.11-.93.3-.43.25-.46.33-.71.65-.07.08-.13.17-.2.26l-.25.6s-.09.64-.09.67c0,.22.02.46.09.67.03.1.07.2.13.3.1.31.27.58.52.8.36.36.43.36.81.52.3.16.62.23.96.22l.66-.09c.11-.02.21-.06.3-.13.31-.1.58-.27.8-.52.15-.15.28-.33.4-.52.01-.02.03-.05.04-.07l.09-.14.34-.57c.18-.29.28-.6.3-.93.07-.33.06-.66-.04-1-.08-.33-.23-.61-.45-.85-.18-.27-.41-.49-.7-.64l-.6-.25c-.44-.12-.89-.12-1.33,0l-.6.25c-.38.22-.67.52-.9.9h0Z"/>
        <path class="cls-20" d="M136.98,248.65l-.44.88c-.18.29-.28.6-.3.93-.07.33-.06.66.04,1,.08.33.23.61.45.85.18.27.41.49.7.64l.6.25c.44.12.89.12,1.33,0l.6-.25c.38-.22.67-.52.9-.9l.44-.88c.18-.29.28-.6.3-.93.07-.33.06-.66-.04-1-.08-.33-.23-.61-.45-.85-.18-.27-.41-.49-.7-.64l-.6-.25c-.44-.12-.89-.12-1.33,0l-.6.25c-.38.22-.67.52-.9.9h0Z"/>
        <path class="cls-20" d="M137.23,248.34l-.24.28s-.04.04-.06.07c-.07.09-.13.17-.2.26-.07.08-.14.17-.2.26,0,0,0,0,0,0-.1.19-.18.39-.25.6-.12.38-.13.97,0,1.35,0,.02.24.59.26.6l.39.51s0,0,0,0l.51.39c.19.11.39.19.6.25h0c.22.05.44.08.67.09.45,0,.89-.12,1.27-.34.43-.25.46-.33.71-.65s.31-.36.45-.86c.1-.33.12-.66.04-1-.02-.33-.11-.64-.3-.93-.16-.29-.37-.53-.64-.7-.24-.22-.52-.37-.85-.45l-.66-.09c-.45,0-.87.12-1.26.34l-.51.39c-.31.31-.52.68-.64,1.1h0c.08-.2.17-.39.25-.59h0c.13-.17.26-.33.39-.5h0c.17-.13.34-.26.51-.39h0c.2-.08.4-.17.6-.25h0c.22-.03.44-.06.66-.09,0,0,0,0,0,0l.66.09s0,0,0,0l.6.25h0c.17.13.34.26.51.39,0,0,0,0,0,0l.39.51h0c.08.2.17.4.25.59h0c.03.22.06.44.09.66,0,0,0,0,0-.01l-.09.66s0,0,0-.01l-.25.6s0-.01,0-.02l-.39.51c.05-.06.1-.12.15-.17l.15-.18c.24-.23.42-.49.52-.8.16-.3.23-.62.22-.96.01-.34-.06-.67-.22-.96-.1-.31-.27-.58-.52-.8l-.51-.39c-.39-.23-.81-.34-1.26-.34l-.66.09c-.42.12-.79.33-1.1.64h0Z"/>
        <path class="cls-20" d="M137.58,248.87c-.21.09-.45.17-.67.28-.02.01-.05.03-.07.04-.2.13-.38.29-.57.43-.02.02-.04.04-.06.06s-.04.04-.06.06c-.08.09-.15.19-.22.28s-.15.19-.22.28c-.03.05-.06.09-.08.14-.18.29-.28.6-.3.93-.07.33-.06.66.04,1,.08.33.23.61.45.85.18.27.41.49.7.64l.6.25c.44.12.89.12,1.33,0l.6-.25c.38-.22.67-.52.9-.9.03-.06.06-.12.1-.18l-.39.51c.04-.06.1-.11.15-.15l-.51.39c.06-.04.12-.08.18-.11l-.6.25h0c.33-.08.61-.23.85-.45.27-.18.49-.41.64-.7.18-.29.28-.6.3-.93.07-.33.06-.66-.04-1l-.25-.6c-.22-.38-.52-.67-.9-.9l-.6-.25c-.44-.12-.89-.12-1.33,0h0Z"/>
        <path class="cls-20" d="M147.08,253.26c-.63.75-1.2,1.54-1.59,2.43-.18.29-.28.6-.3.93-.07.33-.06.66.04,1,.08.33.23.61.45.85.18.27.41.49.7.64l.6.25c.44.12.89.12,1.33,0l.6-.25c.38-.22.67-.52.9-.9.26-.59.6-1.15.99-1.66l-.39.51c.07-.09.14-.18.21-.26.24-.23.42-.49.52-.8.16-.3.23-.62.22-.96.01-.34-.06-.67-.22-.96-.1-.31-.27-.58-.52-.8l-.51-.39c-.39-.23-.81-.34-1.26-.34l-.66.09c-.42.12-.79.33-1.1.64h0Z"/>
        <path class="cls-20" d="M147.55,253.4c-.18.19-.33.41-.49.62-.04.05-.07.09-.1.14-.06.1-.12.21-.18.32-.12.22-.25.43-.4.63l.39-.51c-.16.2-.33.39-.51.56-.24.23-.42.49-.52.8-.16.3-.23.62-.22.96-.01.34.06.67.22.96.1.31.27.58.52.8l.51.39c.39.23.81.34,1.26.34l.66-.09c.42-.12.79-.33,1.1-.64.12-.11.24-.24.35-.36.06-.07.11-.13.16-.2.18-.23.37-.46.53-.7.2-.29.33-.62.54-.9l-.39.51s.06-.07.1-.11c.24-.23.42-.49.52-.8.16-.3.23-.62.22-.96.01-.34-.06-.67-.22-.96-.1-.31-.27-.58-.52-.8l-.51-.39c-.39-.23-.81-.34-1.26-.34l-.66.09c-.42.12-.79.33-1.1.64h0Z"/>
        <path class="cls-20" d="M146.96,254.18c-.25.54-.56,1.04-.92,1.51l.39-.51c-.12.16-.25.31-.38.45-.24.23-.42.49-.52.8-.16.3-.23.62-.22.96-.01.34.06.67.22.96.1.31.27.58.52.8l.51.39c.39.23.81.34,1.26.34l.66-.09c.42-.12.79-.33,1.1-.64.13-.15.26-.3.38-.45.25-.32.5-.64.72-.97s.42-.68.58-1.05c.18-.29.28-.6.3-.93.07-.33.06-.66-.04-1-.08-.33-.23-.61-.45-.85-.18-.27-.41-.49-.7-.64l-.6-.25c-.44-.12-.89-.12-1.33,0l-.6.25c-.38.22-.67.52-.9.9h0Z"/>
        <path class="cls-20" d="M147.11,254.07c-.29.52-.59,1.05-.95,1.52l.39-.51c-.23.29-.48.56-.77.79l.51-.39h-.02c.42-.1.84-.22,1.26-.33h-.02c.8.61,1.61,1.22,2.41,1.83h0c-.21.8-.43,1.61-.64,2.42h0c-1.01.12-2.02.25-3.03.38h0c.29.19.6.29.93.3.33.07.66.06,1-.04.33-.08.61-.23.85-.45.27-.18.49-.41.64-.7l.25-.6c.12-.44.12-.89,0-1.33l-.25-.6c-.22-.38-.52-.67-.9-.9h0c-.2-.09-.4-.17-.6-.26-.33-.1-.66-.12-1-.04-.23,0-.44.06-.63.17-.31.1-.58.27-.8.52-.28.32-.55.69-.65,1.11l-.09.66c0,.23.04.45.09.68l.25.6c.16.29.37.53.64.7.16.15.34.26.55.32.3.16.62.23.96.22.12.01.24,0,.35-.04.23,0,.44-.06.63-.17.11-.03.22-.08.32-.14l.51-.39c.05-.04.1-.08.15-.13.09-.08.18-.17.27-.26.31-.33.59-.7.85-1.07.31-.43.58-.9.83-1.36.18-.29.28-.6.3-.93.07-.33.06-.66-.04-1-.08-.33-.23-.61-.45-.85-.18-.27-.41-.49-.7-.64l-.6-.25c-.44-.12-.89-.12-1.33,0l-.6.25c-.38.22-.67.52-.9.9h0Z"/>
        <path class="cls-20" d="M147.08,254.07l-.14.29c-.18.29-.28.6-.3.93-.07.33-.06.66.04,1,.08.33.23.61.45.85.18.27.41.49.7.64l.6.25c.44.12.89.12,1.33,0l.6-.25c.38-.22.67-.52.9-.9l.14-.29c.18-.29.28-.6.3-.93.07-.33.06-.66-.04-1-.08-.33-.23-.61-.45-.85-.18-.27-.41-.49-.7-.64l-.6-.25c-.44-.12-.89-.12-1.33,0l-.6.25c-.38.22-.67.52-.9.9h0Z"/>
        <path class="cls-20" d="M148.13,259.63c3.22,0,3.22-5,0-5s-3.22,5,0,5h0Z"/>
      </g>
    </g>
  </g>
  <g id="Left_Leg">
    <g>
      <path class="cls-4" d="M210.99,311.84c3.3,3.4,10.6,4.5,13.5.2,1.5-2.1,2.8-4.3,4-6.6.1-.3.1-.5,0-.8l-8.9-14.2c-.6-.9-1.1-.9-1.6.1-3,5.5-7.6,9-13.7,10.4-.7.2-1.1.9-1,1.6,0,.2.1.3.2.4,2.3,3.1,4.7,6.1,7.5,8.9" vector-effect="non-scaling-stroke"/>
      <path class="cls-4" d="M230.59,293.04c-.7,2.9-.6,5.8.3,8.6.1.4.3.4.6.2l4.2-3.8c.2-.2.3-.5.1-.8l-3.2-4.6c-.4-.5-1.1-.6-1.6-.3-.2.2-.3.4-.4.7" vector-effect="non-scaling-stroke"/>
      <path class="cls-4" d="M243.19,295.74l1.9,1.3c.3.2.6.1.8-.1.1-.1.1-.3.1-.4l-.4-2.5c-.1-.3-.4-.6-.7-.5-.2,0-.4.1-.5.3-.2.3-.4.4-.7.4-.4,0-.8.3-.9.7,0,.4.1.7.4.8" vector-effect="non-scaling-stroke"/>
      <path class="cls-4" d="M265.19,313.54c.4.3.7.2,1-.2l4.3-10c.1-.3.1-.6-.2-.9-5.1-5.1-11.2-7.9-18.5-8.3-.5,0-.7.2-.5.7,2.8,7.5,7.4,13.8,13.9,18.7" vector-effect="non-scaling-stroke"/>
      <path class="cls-4" d="M240.49,300.74c.9.4,1.1.2.6-.7l-1.6-2.8c-.3-.4-.6-.5-1.1-.3l-.9.5c-.4.2-.4.5-.1.9.9,1.1,1.9,1.9,3.1,2.4" vector-effect="non-scaling-stroke"/>
      <path class="cls-4" d="M234.59,301.04c-.1-.2-.4-.3-.6-.2,0,0-.1,0-.1.1l-1.7,1.6c-.2.2-.2.5,0,.7,0,0,.1,0,.1.1l4.4,2.8c.2.1.5.1.6-.2.1-.1.1-.3,0-.5l-2.7-4.4" vector-effect="non-scaling-stroke"/>
      <path class="cls-4" d="M230.59,340.74c.5,11,47.4-11.8,41.9-36.1-.1-.4-.5-.6-.9-.6-.2.1-.4.2-.5.4-7.5,19-18.7,32-39.8,35.4-.5.2-.7.4-.7.9" vector-effect="non-scaling-stroke"/>
      <path class="cls-4" d="M243.49,334.64c-5.9-.6-10.3-1.7-16.4-1-.6.1-1,.6-.9,1.2,0,.2.1.3.2.4l2.2,3.3c.2.3.6.5,1,.4,4.8-.6,9.5-1.8,14-3.5.2-.1.4-.4.3-.6-.1-.1-.2-.2-.4-.2" vector-effect="non-scaling-stroke"/>
      <path class="cls-22" d="M265.19,313.54c-6.5-4.9-11.1-11.2-13.8-18.9-.2-.5,0-.7.5-.7,7.2.5,13.4,3.2,18.5,8.3.3.3.3.6.2.9l-4.3,10c-.4.6-.7.7-1.1.4Z"/>
      <path class="cls-22" d="M234.59,301.04l2.8,4.4c.1.2.1.5-.2.6-.1.1-.3.1-.5,0l-4.4-2.8c-.2-.1-.3-.4-.1-.6,0,0,0-.1.1-.1l1.7-1.6c.1-.2.4-.1.6.1h0Z"/>
      <path class="cls-22" d="M240.49,300.74c-1.2-.6-2.2-1.3-3.1-2.3-.3-.3-.2-.6.1-.9l.9-.5c.4-.3.8-.2,1.1.3l1.6,2.8c.5.8.3,1.1-.6.6Z"/>
      <path class="cls-22" d="M243.19,295.74c-.4-.2-.5-.7-.2-1.1.2-.2.4-.4.7-.3.3,0,.6-.1.7-.4.2-.3.6-.4.9-.2.2.1.3.3.3.5l.4,2.5c0,.3-.2.6-.5.6-.1,0-.3,0-.4-.1l-1.9-1.5Z"/>
      <path class="cls-22" d="M227.09,333.64c6.1-.8,10.5.4,16.4,1,.3,0,.4.3.4.5s-.1.3-.3.4c-4.5,1.7-9.2,2.9-14,3.5-.4.1-.7-.1-1-.4l-2.2-3.3c-.3-.5-.2-1.1.3-1.4.1-.2.3-.3.4-.3Z"/>
      <path class="cls-22" d="M272.49,304.64c5.5,24.3-41.4,47-41.9,36.1,0-.5.2-.8.7-.8,21.1-3.3,32.2-16.3,39.8-35.4.1-.4.6-.6.9-.4.3.1.4.3.5.5Z"/>
      <path class="cls-22" d="M230.59,293.04c.2-.6.8-1,1.4-.8.3.1.5.2.7.5l3.2,4.6c.2.3.1.6-.1.8l-4.2,3.8c-.3.3-.5.2-.6-.2-1-3-1.1-5.8-.4-8.7Z"/>
      <path class="cls-22" d="M210.99,311.84c-2.8-2.8-5.2-5.8-7.4-9-.4-.6-.3-1.4.3-1.8.1-.1.3-.2.4-.2,6.1-1.4,10.7-4.9,13.7-10.4.5-.9,1-.9,1.6-.1l8.9,14.2c.2.3.2.5,0,.8-1.2,2.3-2.6,4.5-4,6.6-2.9,4.4-10.1,3.3-13.5-.1Z"/>
      <path class="cls-20" d="M217.29,289.64c-2.8,5.3-8,9.2-13.7,10.2-.4.1-.7,0-.9-.3-.9-.9-1.4-1.5-1.7-1.9-21.7-30.1-43.4-60.3-65.1-90.7-.6-.9-.4-1.4.7-1.5l21.1-2.2c.8-.1,1.4.2,1.9.9l57.7,84.5c.2.3.2.7,0,1Z"/>
      <path class="cls-1" d="M203.59,299.84c5.7-.9,10.9-4.9,13.7-10.2.2-.3.1-.7,0-1l-57.7-84.5c-.5-.7-1.1-1-1.9-.9l-21.1,2.2c-1.1.1-1.3.6-.7,1.5,21.7,30.4,43.4,60.6,65.1,90.7.2.3.8,1,1.7,1.9.3.2.6.3.9.3" vector-effect="non-scaling-stroke"/>
      <path class="cls-17" d="M272.07,302.05c-6.12-6.97-17.03-10.75-26.61-8.77.18.08.34.27.41.47l.4,2.5c0,.1,0,.3-.1.4-.2.2-.5.3-.8.1l-1.9-1.3c-.3-.1-.4-.4-.4-.8.1-.4.5-.7.9-.7.3,0,.5-.1.7-.4.03-.05.07-.08.11-.12-2.55.61-4.99,1.62-7.21,3.12-.3.2-.6.1-.8-.2-1-1.4-4.2-7.7-6.5-4.5-2,2.8-.3,8,.2,11.5.1.2,0,.4-.2.5s-.6,0-.7-.2c-2.6-4.2-5.2-8.5-7.9-12.8-1.3-2.1-3.4-3.2-4.8-5.3-12.9-18.8-25.8-37.7-38.7-56.6-.04-.06-.06-.12-.09-.18-.13-.14-.25-.3-.34-.47-.01-.02-.03-.03-.04-.05-.12-.14-.23-.29-.31-.45-.06-.07-.1-.16-.14-.24-.14-.15-.25-.32-.35-.5,0,0-.02,0-.03-.01l-11.49-16.83c-.12-.14-.23-.29-.32-.46-.21-.19-.39-.42-.52-.68-.17-.16-.3-.35-.42-.54-.11-.13-.2-.28-.28-.43-.03-.02-.07-.03-.08-.06l-2.9-4.5c-.06-.06-.08-.09-.09-.13-.19-.15-.34-.33-.47-.53-.06-.04-.12-.07-.17-.11-.38-.22-.69-.5-.97-.81-.24-.09-.46-.21-.65-.36-.17-.03-.33-.05-.48-.11l-22.71,2.5c-.09.1-.2.18-.3.28-.16.23-.35.45-.55.65-.03.11-.07.21-.1.31,0,.02,0,.04,0,.05.05.22.09.45.11.68.03.02.06.04.08.07l17.38,24.53c.14.11.26.24.36.38.17.14.32.29.44.47.17.13.3.28.42.44.05.05.09.11.13.16.09.04.18.1.27.22l10.5,14.7c.09.12.14.26.17.41.18.18.33.39.45.62.16.17.27.37.37.58.21.23.38.49.49.78.05.03.09.07.12.12,11.9,16.8,24,33.6,36.2,50.5,1,1.4.6,2.8,1.8,4.3,2.3,2.8,4.5,5.5,6.8,8.3.2.3.2.6.1.9-2.1,5.2.4,8.4,4.9,11.1,5.2,3.2,9,5.3,10.5,11.6.1.3.2.6.4.8,3,3.2,4.1,8.4,9.3,7.8,10.7-1.3,20.7-8.7,28.4-15.9,6.4-6,14.8-19,8-26.8ZM252.07,293.85c7.3.4,13.4,3.2,18.5,8.3.3.3.3.6.2.9l-4.3,10c-.3.4-.6.5-1,.2-6.5-4.9-11.1-11.2-13.9-18.7-.2-.5,0-.7.5-.7ZM237.77,297.15l.9-.5c.5-.2.8-.1,1.1.3l1.6,2.8c.5.9.3,1.1-.6.7-1.2-.5-2.2-1.3-3.1-2.4-.3-.4-.3-.7.1-.9ZM237.57,305.15c.1.2.1.4,0,.5-.1.3-.4.3-.6.2l-4.4-2.8c0-.1-.1-.1-.1-.1-.2-.2-.2-.5,0-.7l1.7-1.6c0-.1.1-.1.1-.1.2-.1.5,0,.6.2l2.7,4.4ZM230.87,292.75c.1-.3.2-.5.4-.7.5-.3,1.2-.2,1.6.3l3.2,4.6c.2.3.1.6-.1.8l-4.2,3.8c-.3.2-.5.2-.6-.2-.9-2.8-1-5.7-.3-8.6ZM201.27,297.35c-21.7-30.1-43.4-60.3-65.1-90.7-.6-.9-.4-1.4.7-1.5l21.1-2.2c.8-.1,1.4.2,1.9.9l57.7,84.5c.1.3.2.7,0,1-2.8,5.3-8,9.3-13.7,10.2-.3,0-.6-.1-.9-.3-.9-.9-1.5-1.6-1.7-1.9ZM224.77,311.75c-2.9,4.3-10.2,3.2-13.5-.2-2.8-2.8-5.2-5.8-7.5-8.9-.1-.1-.2-.2-.2-.4-.1-.7.3-1.4,1-1.6,6.1-1.4,10.7-4.9,13.7-10.4.5-1,1-1,1.6-.1l8.9,14.2c.1.3.1.5,0,.8-1.2,2.3-2.5,4.5-4,6.6ZM229.87,338.65c-.4.1-.8-.1-1-.4l-2.2-3.3c-.1-.1-.2-.2-.2-.4-.1-.6.3-1.1.9-1.2,6.1-.7,10.5.4,16.4,1,.2,0,.3.1.4.2.1.2-.1.5-.3.6-4.5,1.7-9.2,2.9-14,3.5ZM230.87,340.45c0-.5.2-.7.7-.9,21.1-3.4,32.3-16.4,39.8-35.4.1-.2.3-.3.5-.4.4,0,.8.2.9.6,5.5,24.3-41.4,47.1-41.9,36.1Z"/>
    </g>
  </g>
  <g id="Face">
    <g id="Eyes">
      <g id="Left_Eye">
        <path class="cls-14" d="M177.19,157.24l5.2,3c.3.2.5.5.5.8v2.8c0,.5.2.8.8.8h2.8c.4,0,.7-.2.8-.6,1.5-7.5.8-25.4-9.6-26.9-.3,0-.6.2-.7.5,0,.2,0,.3.1.5,3.5,3.8,5.4,8.3,5.9,13.5,0,.3-.1.5-.3.7l-5.5,4.5c-.2.1-.2.2,0,.4-.1,0,0,0,0,0" vector-effect="non-scaling-stroke"/>
        <path class="cls-23" d="M189.09,163.44c-1,5.7-3.3,12.6-8.8,14.9-4.8,2.1-9.4-3-11.2-7.4-4.4-10.8-3.7-21.3,2.2-31.7,2.8-3.4,5.9-4.4,9.2-3.1,8.7,3.5,10.1,19.6,8.6,27.3ZM177.19,157.24l5.2,3c.3.2.5.5.5.8v2.8c0,.5.2.8.8.8h2.8c.4,0,.7-.2.8-.6,1.5-7.5.8-25.4-9.6-26.9-.3,0-.6.2-.7.5,0,.2,0,.3.1.5,3.5,3.8,5.4,8.3,5.9,13.5,0,.3-.1.5-.3.7l-5.5,4.5c-.2.1-.2.2,0,.4-.1,0,0,0,0,0ZM169.79,167.74c3,12.1,13.8,11.8,16.4-.5.1-.3-.1-.5-.4-.6-5.3-.9-10.5-.8-15.7.4-.2.1-.4.3-.3.7Z"/>
        <path class="cls-15" d="M171.29,139.14c-5.8,10.4-6.5,21-2.2,31.7,1.8,4.3,6.4,9.5,11.2,7.4,5.4-2.3,7.7-9.2,8.8-14.9" vector-effect="non-scaling-stroke"/>
        <path class="cls-13" d="M189.09,163.44c1.5-7.7.1-23.7-8.6-27.3-3.3-1.3-6.4-.3-9.2,3.1" vector-effect="non-scaling-stroke"/>
        <path class="cls-13" d="M169.79,167.74c3,12.1,13.8,11.8,16.4-.5.1-.3-.1-.5-.4-.6-5.3-.9-10.5-.8-15.7.4-.2.1-.4.3-.3.7" vector-effect="non-scaling-stroke"/>
        <path class="cls-20" d="M186.29,167.24c-2.6,12.2-13.5,12.6-16.4.5-.1-.3,0-.6.4-.6,5.2-1.2,10.4-1.3,15.7-.4.2,0,.3.2.3.5Z"/>
      </g>
      <g id="Right_Eye">
        <path class="cls-14" d="M141.79,157.44l5.2,2.7c.4.2.6.5.6.9v2.9c0,.3.2.6.6.6l2.9.1c.4,0,.7-.2.7-.6,1.4-7.3,1-25.4-9.5-26.8-.3-.1-.7.2-.7.5,0,.2,0,.4.2.5,3.4,3.7,5.3,8.1,5.9,13.2,0,.3-.1.6-.3.9l-5.6,4.5c-.2.1-.2.4-.1.6q.1-.1.1,0" vector-effect="non-scaling-stroke"/>
        <path class="cls-23" d="M142.69,178.64c-6.4,0-11.6-9.7-11.6-21.6s5.2-21.6,11.6-21.6,11.6,9.7,11.6,21.6-5.2,21.6-11.6,21.6ZM141.79,157.44l5.2,2.7c.4.2.6.5.6.9v2.9c0,.3.2.6.6.6l2.9.1c.4,0,.7-.2.7-.6,1.4-7.3,1-25.4-9.5-26.8-.3-.1-.7.2-.7.5,0,.2,0,.4.2.5,3.4,3.7,5.3,8.1,5.9,13.2,0,.3-.1.6-.3.9l-5.6,4.5c-.2.1-.2.4-.1.6q.1-.1.1,0ZM134.59,167.84c2.8,12.4,13.7,11,16.2-.6.1-.3-.1-.5-.4-.6-5.1-.9-10.2-.8-15.3.4-.4.1-.6.5-.5.8Z"/>
        <path class="cls-15" d="M142.69,178.64c6.4,0,11.6-9.7,11.6-21.6s-5.2-21.6-11.6-21.6-11.6,9.7-11.6,21.6,5.2,21.6,11.6,21.6" vector-effect="non-scaling-stroke"/>
        <path class="cls-13" d="M134.59,167.84c2.8,12.4,13.7,11,16.2-.6.1-.3-.1-.5-.4-.6-5.1-.9-10.2-.8-15.3.4-.4.1-.6.5-.5.8" vector-effect="non-scaling-stroke"/>
        <path class="cls-20" d="M150.79,167.24c-2.5,11.6-13.5,13-16.2.6-.1-.4.1-.8.5-.8,5.1-1.2,10.2-1.3,15.3-.4.3.1.5.3.4.6Z"/>
      </g>
    </g>
    <path class="cls-17" d="M256.35,75.52c-27.3-2.6-55.4-1.9-83.8-.4-33.7,1.8-67.4,4.4-101,7.8-.2,0-.3-.1-.4-.2-.1-.2,0-.4.2-.5,24.8-11,50.7-18.8,76.9-25.6,31.3-8.1,62.7-15.3,94.4-21.7.2-.1.4-.2.6-.4l5.6-6.3c.3-.4.4-1,.2-1.5L238.45.72c-.2-.5-.7-.8-1.2-.7-27.2,2.8-53.1,9.8-84.4,19-41.2,12.1-82.2,25.1-122.9,39.1-3,1-6.8,1.3-9.4,2.9-7.6,4.7-5.8,11.3-1.7,17.8,2.6,4.2,5,8.5,7.2,12.9.06.09.1.19.13.28.46.17.87.4,1.23.68.15-.33.3-.66.44-.96,2-4.3,7-4.4,9.4-.5,1.89,3.14-1.54,11.42-3.2,15.9.16.3.31.6.44.92.17.28.32.58.44.9.22.39.41.8.53,1.24.05.14.1.27.14.42.13.18.25.36.35.56.29.35.53.74.67,1.18.22.43.36.88.41,1.35.09.19.18.38.24.58.34.49.6,1.04.75,1.62.28.55.47,1.16.54,1.79.17.3.31.62.42.95,0,.01.01.03.02.04.23.41.41.86.52,1.32,0,.01.02.02.03.03l18.8,46.5s0,.07.01.1c.22.46.36.96.45,1.47.2.43.34.89.43,1.36.09.25.17.51.22.78.03.06.07.12.09.19l5,13.3c.18.31.33.64.44.99.17.37.32.76.4,1.16.12.07.22.17.26.35l16.7,46.4c.1.3.3.5.7.5,2.6.2,4.4.2,5.5.1,15.1-1.6,30.1-3.3,45-5,.01,0,.03,0,.04,0,.44-.13.93-.21,1.46-.22.42-.14.89-.22,1.39-.24.09-.02.19-.04.31-.05l21.1-2.2c.22-.03.43-.01.62.02.04,0,.07,0,.11,0,.01,0,.03,0,.04,0,.39-.04.78-.07,1.17-.09.9-.08,1.8-.15,2.7-.25l3.86-.57h.08c.35-.07.72-.11,1.12-.11,0,0,.01,0,.02,0,.01,0,.02,0,.03,0,.23-.05.47-.07.71-.09.1-.05.21-.1.33-.1l21.4-2.4c.15,0,.29.01.4.06.3-.05.62-.09.96-.09,0,0,0,0,0,0,.29-.05.58-.08.9-.08.03,0,.05,0,.08,0,.3-.08.62-.13.96-.15.2-.07.42-.12.68-.15,16.3-1.8,32.7-3.7,49-5.5.4-.1.6-.3.6-.7l1.5-28.7c0-.1.02-.18.05-.25-.02-.44,0-.88.08-1.31,0,0,0,0,0-.01,0-.18.02-.36.04-.54-.04-.1-.07-.2-.07-.29l.9-16.4c0-.05.02-.1.04-.15-.02-.27-.02-.55,0-.82,0-.1.02-.19.02-.29-.04-.34-.05-.68-.02-1.01-.03-.07-.04-.15-.04-.23,1-19.3,2-38.5,2.8-57.8.1-2.9,2.7-2.9,4.7-3.8.3-.1.5-.3.5-.6l2.7-27c0-.4-.1-.6-.5-.6ZM35.36,81.12c-2.7-3-4.3-4.9-4.9-5.9-2.7-4.3-5.2-8.4-7.5-12.3-.5-.8-.3-1.3.6-1.6l26.7-8.8,27.2-8.9,13.7-4.5,27.6-8.6,14.7-4.4,28.2-8.2,13.6-3.8c10.2-3,20-5.4,29.4-7.2,10.9-2.9,21.6-4.7,31.8-5.5.4,0,.7.1.8.5l8.9,21.9,1.3,3.5c.1.3.1.6-.1.9-2,2.7-10.1,3.3-13.1,3.8l-28.1,5.8h-.7l-.7-.1c-.1.3-.2.4-.3.6s-.3.3-.5.3c-4.6.9-9.3,1.9-13.8,3l-28.7,6.7-16.4,4.3-26.9,7.8-14.8,4.9c-8.2,3-16.1,6.4-23.7,10.2-.2.1-.4.1-.6,0-.1,0-.2-.1-.2-.2-.3,3.2-10.1,6.3-13,6.9-10.5,2.2-20.7,1.9-30.5-1.1ZM242.55,214.12c-.1.4-.3.7-.7.7l-16.3,1.8-134.3,14.8c-.7.1-1.2-.2-1.4-.9-9.2-28-18.9-56.5-30.5-83.7-2.4-5.6-5.2-11-8-16.3,0-.1-.1-.2-.1-.3-.3-.9.2-1.9,1.1-2.2,29.6-9.4,61.1-14.2,92.1-16.2,2.8-.2,5-.2,6.4-.2,33-1.8,64.9-.3,95.8,4.3.5.1.9.5.9,1.1l-5,97.1ZM255.75,78.02l-2.2,21.9-.5,2.2c-.1.4-.3.6-.7.6l-33.1,1.1-25.6.9-16.4.7-26.1,1.5-16.8,1-26.6,2.4-17.3,1.8-27.5,3.9c-6.8,1.6-12.6-.5-17.3-6.4-3.4-2.4-7.2-6-4.7-10.6,3.4-6.2,6.5-10.8,14.1-12.3,9.8-1.9,19.9-3.1,30.4-3.5l27.1-2.4,16.2-1.2,27.1-2,15.8-.8,26.5-1.1,15.6-.3c9.7-.1,16.2-.1,19.7,0,.8,0,2.7.2,5.7.5l15.8,1.1c.6.1.9.4.8,1Z"/>
    <path class="cls-15" d="M137.19,187.94c0-.6-.5-1.1-1.1-1.1h0c-.6,0-1.1.5-1.1,1.1h0c0,.6.5,1.1,1.1,1.1h0c.6.1,1.1-.4,1.1-1.1h0" vector-effect="non-scaling-stroke"/>
    <path class="cls-15" d="M180.79,188.54c0-.6-.5-1.1-1.1-1.1h0c-.6,0-1.1.5-1.1,1.1s.5,1.1,1.1,1.1,1.1-.5,1.1-1.1h0" vector-effect="non-scaling-stroke"/>
    <path class="cls-15" d="M171.69,189.64c-.2-.1-.4,0-.5.1-.8.8-.8,1.4-.1,1.9.4.4,1.2.4,1.7.1.5-.4.5-1,.1-1.3-.4-.4-.7-.6-1.2-.8" vector-effect="non-scaling-stroke"/>
    <path class="cls-16" d="M246.29,24.64c-6.4-.1-12.5.7-18.5,2.5l-23.3-19.5c10.9-2.9,21.5-4.8,32.1-5.4.4,0,.6.1.8.5l8.9,21.9Z"/>
    <path class="cls-22" d="M204.49,7.64l23.3,19.5,6.6,5.8-28.1,5.8c-.2,0-.5.1-.7,0l-.7-.1-9.8-7.8-20-15.9c10.2-3.1,20-5.5,29.4-7.3Z"/>
    <path class="cls-16" d="M175.19,14.84l20,15.9c-3.2,1.3-6.9,2.2-11.2,2.7-1.4.2-2.2.8-2.4,1.9l-20.1-16.7,13.7-3.8Z"/>
    <path class="cls-22" d="M161.49,18.64l20.1,16.7,8.7,7.1-28.7,6.7-10.7-8.6-17.4-13.6,28-8.3Z"/>
    <path class="cls-19" d="M246.29,24.64l1.3,3.5c.1.3.1.7-.1.9-2,2.7-10,3.4-13.1,3.8l-6.6-5.8c6-1.7,12.1-2.5,18.5-2.4Z"/>
    <path class="cls-16" d="M133.29,26.84l17.4,13.6-15.9,4.4-16.2-13.6,14.7-4.4Z"/>
    <path class="cls-19" d="M195.19,30.74l9.8,7.8c-.1.2-.2.4-.3.6s-.3.2-.5.3c-4.7.9-9.3,1.9-13.8,3l-8.7-7.1c.2-1.1,1-1.7,2.4-1.9,4.1-.5,7.9-1.4,11.1-2.7Z"/>
    <path class="cls-22" d="M118.69,31.24l16.2,13.6,10.2,8.6-26.9,7.8-11-8.6-16-12.7,27.5-8.7Z"/>
    <path class="cls-16" d="M91.09,39.74l16,12.7c-1.2.7-2.8,1.2-4.8,1.6-2.5.5-5.6,1.6-9.4,3.4l-15.7-13.2,13.9-4.5Z"/>
    <path class="cls-19" d="M150.79,40.44l10.7,8.6-16.4,4.3-10.2-8.6,15.9-4.3Z"/>
    <path class="cls-22" d="M77.39,44.24l15.7,13.2,10.3,8.5c-8.2,3-16.1,6.4-23.7,10.2-.2.1-.4.1-.6,0-.1-.1-.2-.1-.2-.2l-11.6-9.3-17-13.5,27.1-8.9Z"/>
    <path class="cls-19" d="M107.19,52.54l11,8.6-14.8,4.9-10.3-8.5c3.8-1.8,6.9-2.9,9.4-3.4,1.9-.4,3.4-.9,4.7-1.6Z"/>
    <path class="cls-16" d="M50.09,53.14l17,13.5-16.5,7.4c.6-3.3-.2-5.6-2.4-6.9-6.9-4.2-12.5,6.6-4.7,10.1-2.3,2-5.1,3.5-8.4,4.6-2.6-2.9-4.2-4.9-4.9-5.9-2.7-4.3-5.2-8.4-7.5-12.3-.5-.8-.3-1.3.6-1.6l26.8-8.9Z"/>
    <path class="cls-22" d="M50.59,74.14c-1.7,2.6-4.1,3.7-7,3.1-7.9-3.5-2.3-14.3,4.7-10.1,2.2,1.4,3,3.7,2.3,7Z"/>
    <path class="cls-19" d="M67.09,66.64l11.6,9.3c-.3,3.2-10.2,6.3-13,6.9-10.6,2.2-20.8,1.9-30.5-1.1,3.3-1,6.1-2.6,8.4-4.6,3,.5,5.3-.5,7-3.1l16.5-7.4Z"/>
    <path class="cls-18" d="M213.49,76.04l-13.7,20.1c-1.7-1.2-3.5-1.7-5.4-1.5-3.2.3-6.3.1-9.1-.5l12.8-17.7,15.4-.4Z"/>
    <path class="cls-22" d="M238.79,76.54l-13.1,18.2-6.8,9.6-25.6.9,6.5-9.2,13.7-20.1c9.6-.1,16.2-.1,19.7,0,.7.1,2.6.3,5.6.6Z"/>
    <path class="cls-22" d="M197.99,76.44l-12.8,17.7-8.3,11.9-26.1,1.5,20.6-30,26.6-1.1Z"/>
    <path class="cls-18" d="M238.79,76.54l15.8,1.1c.6,0,.9.4.8,1l-2.2,21.9c-7.2-1.7-14.4-2.9-21.8-3.7-1-.1-2.4-.1-4.2.2-.3,0-.5-.1-.6-.4l-.8-1.8,13-18.3Z"/>
    <path class="cls-18" d="M171.49,77.54l-20.6,30-16.8,1,21.7-30.2,15.7-.8Z"/>
    <path class="cls-22" d="M155.69,78.34l-21.7,30.2-26.6,2.4,7.7-11.1,13.4-19.4,27.2-2.1Z"/>
    <path class="cls-18" d="M128.59,80.34l-13.4,19.4c-4.8-.9-9.6-.5-14.3,1.2-.3.1-.6.1-.9-.1l-1-.6,13.4-18.8,16.2-1.1Z"/>
    <path class="cls-22" d="M112.29,81.54l-13.4,18.8-8.7,12.4-27.5,3.9,7.6-11.1,14.9-21.6,27.1-2.4Z"/>
    <path class="cls-18" d="M85.19,83.94l-14.9,21.6c-4.8.8-9.1.9-12.8.5,11.2-5.1-.8-17.2-5.9-8.5-2.1,3.5.5,7.6,4.5,8.4.1.5,0,.9-.2,1.2-.1.3-.5.4-1,.5-3.3.6-6.5,1.5-9.6,2.6-3.4-2.4-7.2-6-4.7-10.6,3.4-6.2,6.5-10.8,14.1-12.3,9.9-1.9,20.1-3,30.5-3.4Z"/>
    <path class="cls-19" d="M185.29,94.14c2.8.7,5.9.8,9.1.5,1.9-.2,3.7.3,5.4,1.5l-6.5,9.2-16.4.7,8.4-11.9Z"/>
    <path class="cls-22" d="M57.49,106.04c.1-.2-.4-.3-1.3-.1-4-.8-6.6-4.8-4.5-8.4,5-8.7,17,3.4,5.8,8.5Z"/>
    <path class="cls-19" d="M225.69,94.84l.8,1.8c.1.3.3.4.6.4,1.8-.2,3.2-.3,4.2-.2,7.4.8,14.6,2,21.8,3.7l-.5,2.2c-.1.4-.3.6-.7.6l-33.1,1.1,6.9-9.6Z"/>
    <path class="cls-19" d="M115.19,99.84l-7.7,11.1-17.3,1.8,8.7-12.4,1,.6c.3.2.6.2.9.1,4.8-1.7,9.6-2.1,14.4-1.2Z"/>
    <path class="cls-19" d="M70.29,105.54l-7.6,11.1c-6.8,1.6-12.6-.5-17.3-6.4,3.1-1.1,6.3-2,9.6-2.6.5-.1.8-.3,1-.5.2-.3.2-.7.2-1.2,1-.1,1.4-.1,1.3.1,3.7.4,8,.3,12.8-.5Z"/>
    <path class="cls-16" d="M33.29,109.34c1.4.6,2,1.3,1.8,2.1-.1.4-.3.5-.6.2l-1.9-1.6c.7-.3.9-.5.7-.7Z"/>
    <path class="cls-20" d="M225.39,217.34c-.2-1-.6-2.1-1.3-3.2-9.1-14.5-18.2-28.1-27.1-40.7-2.2-3.1-4.1-7.1-7.8-10,1.5-7.7.1-23.7-8.6-27.3-3.3-1.3-6.4-.3-9.2,3.1l-20.6-26.9c33-1.7,64.9-.3,95.7,4.3.5.1.9.6.9,1.1l-5,97.1c0,.4-.3.7-.7.7l-16.3,1.8Z"/>
    <path class="cls-21" d="M150.69,112.34l20.6,26.9c-5.8,10.4-6.5,21-2.2,31.7,1.8,4.3,6.4,9.5,11.2,7.4,5.4-2.3,7.7-9.2,8.8-14.9,3.7,2.9,5.6,6.9,7.8,10,9,12.6,18,26.2,27.1,40.7.7,1.1,1.2,2.2,1.3,3.2l-134.3,14.8c-.7.1-1.2-.2-1.4-.9-9.2-28-18.9-56.5-30.5-83.7-2.4-5.6-5.2-11-8-16.3-.5-.8-.1-1.9.7-2.4.1-.1.2-.1.3-.1,29.7-9.4,61.2-14.2,92.1-16.2,3-.2,5.1-.3,6.5-.2ZM142.69,178.64c6.4,0,11.6-9.7,11.6-21.6s-5.2-21.6-11.6-21.6-11.6,9.7-11.6,21.6,5.2,21.6,11.6,21.6ZM159.79,174.34c1.2-.2,2.6.9,4.1.5.3-.1.5-.4.4-.8,0-.1-.1-.3-.3-.3-1.8-1.2-3.8-1.5-6-.9-.4.1-.7.3-.8.7-1.3,2.5-1.2,5,.4,7.4.2.3.6.4.9.2.2-.1.3-.4.3-.6-.4-1.6-1.7-5.8,1-6.2ZM134.29,184.24c.5-.1.8-.8.7-1.4-.2-.7-.7-1.1-1.3-.9h0c-.5.1-.8.8-.7,1.4.2.6.7,1,1.3.9h0ZM139.99,185.34l.3.4c.3.3.8.4,1.2.1.1-.1.2-.2.2-.3.5-1,.2-1.5-.7-1.8-.5-.1-1,.2-1.2.7,0,.3,0,.6.2.9ZM174.99,186.24c.5-.3.6-1,.3-1.5-.3-.6-1-.8-1.5-.5h0c-.5.3-.6,1-.3,1.5.4.6,1.1.8,1.5.5h0ZM147.69,196.44l-2.3,2.6c-.2.3-.4.6-.3,1,.3,4.3,2.6,6.3,7,5.7.3,0,.5-.1.7-.3.3-.3.5-.5.5-.8.1-.4-.1-.8-.5-.9h-.4c-3.1.9-5-.1-5.8-3.1-.1-.4.1-.8.4-1.1l3.2-2.2c.4-.3.5-.8.2-1.2q-.1-.1-.2-.2c-1.6-1.2-3.2-3.3-2.7-5.5,1.1-5,7.4-.8,10.5-.9.3,0,.6-.2.7-.6.1-.4,0-.8-.2-1s-.6-.3-1.2-.3c-1.9-.1-3.7-.6-5.3-1.6-.3-.2-.6-.2-.9-.2-5.2.5-7.3,6.3-3.3,9.9.1.2.1.4-.1.7ZM137.19,187.94c0-.6-.5-1.1-1.1-1.1h0c-.6,0-1.1.5-1.1,1.1h0c0,.6.5,1.1,1.1,1.1h0c.6.1,1.1-.4,1.1-1.1h0ZM180.79,188.54c0-.6-.5-1.1-1.1-1.1h0c-.6,0-1.1.5-1.1,1.1s.5,1.1,1.1,1.1,1.1-.5,1.1-1.1h0ZM171.69,189.64c-.2-.1-.4,0-.5.1-.8.8-.8,1.4-.1,1.9.4.4,1.2.4,1.7.1.5-.4.5-1,.1-1.3-.4-.4-.7-.6-1.2-.8Z"/>
    <path class="cls-22" d="M177.19,157.24c-.1-.1-.2-.3-.1-.4,0,0,0-.1.1-.1l5.5-4.5c.2-.2.3-.4.3-.7-.5-5.2-2.5-9.7-5.9-13.5-.2-.2-.2-.6,0-.8.1-.1.3-.2.5-.1,10.4,1.5,11.1,19.4,9.6,26.9-.1.4-.3.6-.8.6h-2.8c-.5,0-.8-.2-.8-.8v-2.8c0-.3-.2-.6-.5-.8l-5.1-3Z"/>
    <path class="cls-22" d="M141.79,157.44c-.2-.1-.3-.4-.2-.6l.1-.1,5.6-4.5c.3-.2.4-.5.3-.9-.5-5-2.5-9.4-5.9-13.2-.2-.3-.2-.6,0-.9.1-.1.3-.2.5-.2,10.4,1.5,10.9,19.5,9.5,26.8-.1.4-.3.6-.7.6l-2.9-.1c-.3,0-.6-.3-.6-.6v-2.9c0-.4-.2-.8-.6-.9l-5.1-2.5Z"/>
    <path class="cls-15" d="M147.69,196.44l-2.3,2.6c-.2.3-.4.6-.3,1,.3,4.3,2.6,6.3,7,5.7.3,0,.5-.1.7-.3.3-.3.5-.5.5-.8.1-.4-.1-.8-.5-.9h-.4c-3.1.9-5-.1-5.8-3.1-.1-.4.1-.8.4-1.1l3.2-2.2c.4-.3.5-.8.2-1.2q-.1-.1-.2-.2c-1.6-1.2-3.2-3.3-2.7-5.5,1.1-5,7.4-.8,10.5-.9.3,0,.6-.2.7-.6.1-.4,0-.8-.2-1s-.6-.3-1.2-.3c-1.9-.1-3.7-.6-5.3-1.6-.3-.2-.6-.2-.9-.2-5.2.5-7.3,6.3-3.3,9.9.1.2.1.4-.1.7" vector-effect="non-scaling-stroke"/>
    <path class="cls-23" d="M147.69,195.74c-4-3.5-1.8-9.4,3.3-9.9.3,0,.6,0,.9.2,1.6,1,3.4,1.6,5.3,1.6.6,0,1,.1,1.2.3.3.3.3.6.2,1-.1.3-.3.5-.7.6-3.1.1-9.4-4.1-10.5.9-.5,2.2,1.1,4.2,2.7,5.5.4.3.4.8.2,1.2q-.1.1-.2.2l-3.2,2.2c-.3.2-.5.7-.4,1.1.8,3,2.7,4,5.8,3.1.4-.1.8.1.9.5v.4c-.1.3-.3.5-.5.8-.2.2-.4.3-.7.3-4.4.5-6.7-1.4-7-5.7,0-.4.1-.7.3-1l2.3-2.6c.3-.3.3-.5.1-.7Z"/>
    <path class="cls-6" d="M150.69,112.34c-1.4,0-3.6,0-6.4.2-31,2-62.5,6.8-92.1,16.2-.9.3-1.4,1.3-1.1,2.2,0,.1.1.2.1.3,2.8,5.3,5.6,10.7,8,16.3,11.6,27.2,21.3,55.7,30.5,83.7.2.7.7,1,1.4.9l134.3-14.8" vector-effect="non-scaling-stroke"/>
    <path class="cls-1" d="M225.39,217.34l16.3-1.8c.4,0,.6-.3.7-.7l5-97.1c0-.6-.4-1-.9-1.1-30.8-4.6-62.7-6.1-95.7-4.3" vector-effect="non-scaling-stroke"/>
    <path class="cls-23" d="M159.79,174.34c-2.7.4-1.4,4.6-1.1,6.2.1.3-.2.7-.5.7-.2,0-.5-.1-.6-.3-1.5-2.4-1.6-4.9-.4-7.4.2-.3.5-.6.8-.7,2.1-.6,4.1-.3,6,.9.3.2.4.6.2.8-.1.1-.2.2-.4.3-1.4.4-2.9-.7-4-.5Z"/>
  </g>
</svg>