<?xml version="1.0" encoding="UTF-8"?>
<svg id="Capa_1" data-name="Capa 1" xmlns="http://www.w3.org/2000/svg" viewBox="0 0 188.16 256.64">
  <defs>
    <style>
      .cls-1 {
        stroke: #373b4b;
      }

      .cls-1, .cls-2, .cls-3, .cls-4, .cls-5, .cls-6, .cls-7, .cls-8, .cls-9, .cls-10, .cls-11, .cls-12, .cls-13, .cls-14, .cls-15, .cls-16 {
        fill: none;
        stroke-width: 2px;
      }

      .cls-17 {
        fill: #06102a;
      }

      .cls-17, .cls-18, .cls-19, .cls-20, .cls-21, .cls-22, .cls-23, .cls-24 {
        stroke-width: 0px;
      }

      .cls-2 {
        stroke: #313a4b;
      }

      .cls-3 {
        stroke: #adb2b5;
      }

      .cls-4 {
        stroke: #5f5e64;
      }

      .cls-5 {
        stroke: #ababae;
      }

      .cls-6 {
        stroke: #2f3343;
      }

      .cls-7 {
        stroke: #535d65;
      }

      .cls-8 {
        stroke: #283344;
      }

      .cls-18 {
        fill: #4a555e;
      }

      .cls-9 {
        stroke: gray;
      }

      .cls-19 {
        fill: #67666c;
      }

      .cls-20 {
        fill: #5b646b;
      }

      .cls-10 {
        stroke: #2c2c2f;
      }

      .cls-11 {
        stroke: #343437;
      }

      .cls-21 {
        fill: #010101;
      }

      .cls-12 {
        stroke: #838895;
      }

      .cls-22 {
        fill: #6a737a;
      }

      .cls-23 {
        fill: #57565c;
      }

      .cls-13 {
        stroke: #5a646c;
      }

      .cls-24 {
        fill: #fff;
      }

      .cls-14 {
        stroke: #a5aaaf;
      }

      .cls-15 {
        stroke: #384252;
      }

      .cls-16 {
        stroke: #b5b9bd;
      }
    </style>
  </defs>
  <path class="cls-12" d="M40.82,57.66c.55-.35,1.38-.76,2.42-1.24,17.12-7.18,33.06-12.01,52.8-17.12,20.71-5.31,41.55-10.08,62.53-14.29.21-.07.41-.14.55-.35l3.93-4.35c.21-.21.28-.55.14-.9l-7.32-17.94c-.14-.28-.41-.48-.76-.48-14.22,1.17-28.64,4.9-42.31,8.7-31.26,8.63-62.18,18.22-92.9,28.71-3.8,1.31-7.59,2.48-11.46,3.59-6.21,1.79-8.49,5.8-5.04,11.8,10.49,18.36,19.46,40.72,27.26,60.32.07.28.07.41-.21.55-15.11,10.08-22.09,25.67-22.64,43.55,0,.21-.14.35-.35.41-1.93.41-6.97,3.04-3.59,5.52.21.14.21.35.07.55-3.66,5.04-3.93,10.01-.83,14.98,1.59,2.55,6.28,6.49,9.32,3.8.21-.14.41-.21.62-.21,2.42.35,4.9.62,6.69-1.31.14-.14.35-.21.55-.14,1.38.62,2.83,1.17,4.28,1.1,5.25-.21,7.52-5.73,4.28-9.8-.14-.21-.14-.35,0-.55,3.59-4.62-.76-7.66-4.35-9.8-.21-.14-.35-.28-.48-.48-.69-1.24-1.66-2.14-3.04-2.62-.28-.07-.35-.28-.35-.55-.07-12.56,4.35-24.43,14.15-32.51.14-.14.41-.14.55.07,0,0,.07.07.07.14l12.49,34.58c.07.21.21.28.41.28,1.52.14,3.04.14,4.56,0,10.15-1.04,20.29-2.14,30.51-3.31.21,0,.35.07.48.21l12.08,16.91c.14.21.14.48,0,.69-6.56,9.8-14.01,18.84-22.43,27.12-1.24,1.17-1.66,2.42-3.66,2.28-.28,0-.48.07-.69.28l-5.73,6.21c-.14.14-.35.21-.55.21-4.49-.9-5.94,1.66-7.38,5.59-1.17,3.17-2.9,5.52-5.73,7.04-.83.41-1.52,1.04-2.21,1.73-1.45,1.66-4.14,2.55-3.52,5.25,2.21,10.01,15.11,22.29,25.26,23.67,3.31.41,6.28-.41,8.28-3.31,4.62-6.56,5.8-17.05-.41-23.12-.21-.21-.21-.55,0-.76l.07-.07c.97-.76,4-2.97,2.83-4.42-1.31-1.59-6.28.07-7.8.9-.14.07-.35.07-.48,0l-.35-.14c-.14-.07-.14-.21-.14-.35l.07-.07c1.86-1.52,8.56-6.42,9.25-8.14.14-.28.21-.41.35-.48,9.04-8.14,16.91-17.19,23.6-27.05.21-.28.35-.28.55,0,8.49,11.87,16.91,23.6,25.26,35.2.28.41.41.9.41,1.52,0,.21.07.48.21.62l5.04,6.28c.14.21.21.41.14.69-1.45,4.07.69,6,4.07,7.94,2.83,1.59,5.18,3.38,6.28,6.56.55,1.52,1.38,2.83,2.48,3.93.14.14.28.35.35.55.62,1.93,2.07,2.76,4.28,2.48,8.49-1.1,20.36-9.52,24.43-17.05,1.79-3.31,3.52-9.11.41-12.35-4.97-5.18-11.25-7.32-18.7-6.35-.9.14-2.55.97-4.9,2.48-.21.14-.41.14-.55-.14-.76-.97-3.04-5.52-4.69-2.97-1.17,1.86-.41,5.52.35,7.45.07.28,0,.55-.28.62-.21.07-.48,0-.62-.21-1.86-3.04-3.73-6.14-5.73-9.32-.48-.83-1.73-1.24-2.28-2.07-8.97-13.04-18.08-26.36-27.26-39.96-.14-.21-.14-.41-.07-.62l10.15-19.67c.07-.21.21-.28.41-.35l8.21-.97c.21,0,.35.07.35.28,0,.07,0,.21-.07.28-4,5.25-4.28,14.77,4.14,15.81.21,0,.41.14.55.35,2.07,3.17,6.69,5.11,9.52,1.59.14-.21.35-.21.55-.07,3.59,2.48,6.56,2.28,9.11-.62,2.48-2.83,6.28-2.69,6.97-7.18.07-.28.21-.41.41-.48,2.28-.55,3.52-2,3.66-4.42,0-.48.28-.97.69-1.31,3.45-2.55,6.76-5.18,9.94-7.94,7.11-6.28,11.32-17.12,7.11-26.09-4.28-9.11-15.18-12.7-23.81-16.15-.21-.07-.35-.28-.35-.48.55-10.28,1.1-20.64,1.66-30.92.07-1.86,1.04-2.76,2.83-2.76.28,0,.55-.21.55-.55l1.86-18.77c0-.28-.07-.41-.35-.41-18.15-1.59-36.37-1.24-54.52-.35-24.36,1.17-48.52,2.97-72.61,5.38-.48.21-.55,0,.07-.34" vector-effect="non-scaling-stroke"/>
  <path class="cls-12" d="M132.82,5.9c-.21-.14-.41-.21-.69-.14-6.69,1.38-13.39,3.04-20.08,4.97" vector-effect="non-scaling-stroke"/>
  <path class="cls-15" d="M112.05,10.73l-9.25,2.55" vector-effect="non-scaling-stroke"/>
  <path class="cls-12" d="M102.8,13.29l-19.53,5.66" vector-effect="non-scaling-stroke"/>
  <path class="cls-15" d="M83.34,18.94l-10.15,3.11" vector-effect="non-scaling-stroke"/>
  <path class="cls-12" d="M73.19,22.05l-19.12,6" vector-effect="non-scaling-stroke"/>
  <path class="cls-15" d="M54.07,28.05l-9.39,2.97" vector-effect="non-scaling-stroke"/>
  <path class="cls-12" d="M44.69,31.02l-18.84,6.21" vector-effect="non-scaling-stroke"/>
  <path class="cls-15" d="M25.85,37.23l-18.63,6.07c-.28.07-.41.35-.35.62,0,0,0,.07.07.07,2.62,4.76,5.18,10.01,9.66,13.25" vector-effect="non-scaling-stroke"/>
  <path class="cls-8" d="M16.53,57.32c6.97,1.79,14.22,1.79,21.53,0,2.9-.69,5.52-2.07,7.8-4.21" vector-effect="non-scaling-stroke"/>
  <path class="cls-12" d="M45.86,53.11l16.63-7.04" vector-effect="non-scaling-stroke"/>
  <path class="cls-8" d="M62.49,46.07l10.08-3.38" vector-effect="non-scaling-stroke"/>
  <path class="cls-12" d="M72.64,42.69l18.77-5.45" vector-effect="non-scaling-stroke"/>
  <path class="cls-8" d="M91.41,37.3l11.39-2.9" vector-effect="non-scaling-stroke"/>
  <path class="cls-12" d="M102.73,34.4l19.74-4.62" vector-effect="non-scaling-stroke"/>
  <path class="cls-8" d="M122.47,29.78l10.49-2.42" vector-effect="non-scaling-stroke"/>
  <path class="cls-12" d="M133.03,27.36l20.15-4.21" vector-effect="non-scaling-stroke"/>
  <path class="cls-8" d="M153.11,23.22l7.59-1.45c.97-.21,1.52-1.1,1.38-2,0-.14-.07-.21-.07-.28l-.9-2.28" vector-effect="non-scaling-stroke"/>
  <path class="cls-15" d="M161.12,17.22l-5.94-14.63c-.21-.48-.55-.62-1.04-.62-6.83.69-13.67,1.86-20.5,3.45-.41.07-.76.28-.9.55" vector-effect="non-scaling-stroke"/>
  <path class="cls-13" d="M161.12,17.22c-4.35.28-8.63.9-12.84,1.86" vector-effect="non-scaling-stroke"/>
  <path class="cls-16" d="M148.28,19.01l-15.46-13.11" vector-effect="non-scaling-stroke"/>
  <path class="cls-14" d="M148.28,19.01l4.83,4.14" vector-effect="non-scaling-stroke"/>
  <path class="cls-14" d="M133.03,27.36l-7.87-6.35" vector-effect="non-scaling-stroke"/>
  <path class="cls-16" d="M125.09,21.02l-13.04-10.28" vector-effect="non-scaling-stroke"/>
  <path class="cls-13" d="M125.09,21.02c.07.83-.14,1.31-.76,1.45-2.83.41-5.59,1.1-8.35,1.93" vector-effect="non-scaling-stroke"/>
  <path class="cls-16" d="M116.05,24.4l-13.18-11.04" vector-effect="non-scaling-stroke"/>
  <path class="cls-14" d="M116.05,24.4l6.49,5.38" vector-effect="non-scaling-stroke"/>
  <path class="cls-14" d="M102.73,34.4l-8.21-6.56" vector-effect="non-scaling-stroke"/>
  <path class="cls-16" d="M94.52,27.85l-11.18-8.9" vector-effect="non-scaling-stroke"/>
  <path class="cls-13" d="M94.52,27.85c-2.69,1.52-5.66,2.48-8.83,3.04-.35.07-.69.35-.9.9" vector-effect="non-scaling-stroke"/>
  <path class="cls-16" d="M84.79,31.78l-11.59-9.73" vector-effect="non-scaling-stroke"/>
  <path class="cls-14" d="M84.79,31.78l6.56,5.45" vector-effect="non-scaling-stroke"/>
  <path class="cls-14" d="M72.64,42.69l-8.14-6.56" vector-effect="non-scaling-stroke"/>
  <path class="cls-16" d="M64.43,36.13l-10.42-8.14" vector-effect="non-scaling-stroke"/>
  <path class="cls-13" d="M64.43,36.13c-2.69,1.86-5.8,3.11-9.32,3.73" vector-effect="non-scaling-stroke"/>
  <path class="cls-16" d="M55.11,39.93l-10.42-8.9" vector-effect="non-scaling-stroke"/>
  <path class="cls-14" d="M55.11,39.93l7.38,6.14" vector-effect="non-scaling-stroke"/>
  <path class="cls-14" d="M45.86,53.11l-8.49-6.69" vector-effect="non-scaling-stroke"/>
  <path class="cls-16" d="M37.44,46.41l-11.59-9.11" vector-effect="non-scaling-stroke"/>
  <path class="cls-13" d="M37.44,46.41c-3.38,2.21-7.04,3.86-11.04,4.9" vector-effect="non-scaling-stroke"/>
  <path class="cls-16" d="M26.33,51.31c.21-2.55-.62-4.14-2.48-4.9-4.56-1.73-7.73,5.11-2.21,7.45" vector-effect="non-scaling-stroke"/>
  <path class="cls-13" d="M21.64,53.87l-5.11,3.45" vector-effect="non-scaling-stroke"/>
  <path class="cls-14" d="M26.33,51.31c-1.04,1.93-2.62,2.76-4.76,2.55" vector-effect="non-scaling-stroke"/>
  <path class="cls-2" d="M138.14,53.59c-.35-.35-.62-.55-.9-.55-2.69-.07-5.87,0-9.39.21" vector-effect="non-scaling-stroke"/>
  <path class="cls-12" d="M127.85,53.32l-18.36.83" vector-effect="non-scaling-stroke"/>
  <path class="cls-2" d="M109.56,54.07l-10.97.55" vector-effect="non-scaling-stroke"/>
  <path class="cls-12" d="M98.59,54.63l-18.63,1.38" vector-effect="non-scaling-stroke"/>
  <path class="cls-2" d="M79.96,56.01l-11.18.76" vector-effect="non-scaling-stroke"/>
  <path class="cls-12" d="M68.77,56.77c-6.97.35-13.04.83-18.22,1.45-.28,0-.48.14-.69.35" vector-effect="non-scaling-stroke"/>
  <path class="cls-2" d="M49.86,58.56c-.69-.35-.83-.14-1.45-.14-6.69.48-13.32,1.31-19.95,2.48-2.14.41-3.93,1.31-5.25,2.76-2,2.21-6.42,7.32-3.31,10.56,4.14,4.21,8.01,8.35,14.56,6.76" vector-effect="non-scaling-stroke"/>
  <path class="cls-12" d="M34.54,80.99l18.98-2.69" vector-effect="non-scaling-stroke"/>
  <path class="cls-8" d="M53.52,78.3l12.08-1.24" vector-effect="non-scaling-stroke"/>
  <path class="cls-12" d="M65.53,77.06l18.22-1.59" vector-effect="non-scaling-stroke"/>
  <path class="cls-8" d="M83.75,75.47l11.66-.76" vector-effect="non-scaling-stroke"/>
  <path class="cls-12" d="M95.42,74.64l17.94-1.04" vector-effect="non-scaling-stroke"/>
  <path class="cls-8" d="M113.36,73.68l11.25-.41" vector-effect="non-scaling-stroke"/>
  <path class="cls-12" d="M124.68,73.19l17.6-.62" vector-effect="non-scaling-stroke"/>
  <path class="cls-8" d="M142.28,72.64l22.98-.83c.28,0,.41-.14.48-.41l.28-1.86" vector-effect="non-scaling-stroke"/>
  <path class="cls-2" d="M165.95,69.6l1.52-14.98c0-.21-.14-.41-.35-.48h0l-11.04-.83" vector-effect="non-scaling-stroke"/>
  <path class="cls-12" d="M156.08,53.32c-6.69-.55-12.49-.62-17.32-.28-.41,0-.62.21-.55.55" vector-effect="non-scaling-stroke"/>
  <path class="cls-3" d="M156.08,53.32l-9.52,13.32" vector-effect="non-scaling-stroke"/>
  <path class="cls-14" d="M146.49,66.64l-4.28,6" vector-effect="non-scaling-stroke"/>
  <path class="cls-14" d="M124.68,73.19l4.76-6.83" vector-effect="non-scaling-stroke"/>
  <path class="cls-3" d="M129.44,66.36l8.7-12.77" vector-effect="non-scaling-stroke"/>
  <path class="cls-7" d="M165.95,69.6l-19.46-2.97" vector-effect="non-scaling-stroke"/>
  <path class="cls-7" d="M129.44,66.36c-2.83-.69-5.8-.83-8.83-.35-.21.07-.48,0-.62-.21l-.69-.62" vector-effect="non-scaling-stroke"/>
  <path class="cls-3" d="M119.23,65.26l8.63-11.94" vector-effect="non-scaling-stroke"/>
  <path class="cls-14" d="M119.23,65.26l-5.87,8.42" vector-effect="non-scaling-stroke"/>
  <path class="cls-14" d="M95.42,74.64l5.04-7.32" vector-effect="non-scaling-stroke"/>
  <path class="cls-3" d="M100.52,67.33l9.04-13.25" vector-effect="non-scaling-stroke"/>
  <path class="cls-7" d="M100.52,67.33c-1.73-1.73-6.28-.83-8.56-.69-.21,0-.41-.07-.55-.21l-.76-.69" vector-effect="non-scaling-stroke"/>
  <path class="cls-3" d="M90.58,65.74l8.01-11.11" vector-effect="non-scaling-stroke"/>
  <path class="cls-14" d="M90.58,65.74l-6.83,9.66" vector-effect="non-scaling-stroke"/>
  <path class="cls-14" d="M65.53,77.06l5.87-8.56" vector-effect="non-scaling-stroke"/>
  <path class="cls-3" d="M71.4,68.5l8.56-12.49" vector-effect="non-scaling-stroke"/>
  <path class="cls-7" d="M71.4,68.5l-9.52,1.17c-.21,0-.41,0-.62-.14l-1.1-.69" vector-effect="non-scaling-stroke"/>
  <path class="cls-3" d="M60.15,68.84l8.63-12.08" vector-effect="non-scaling-stroke"/>
  <path class="cls-14" d="M60.15,68.84l-6.69,9.46" vector-effect="non-scaling-stroke"/>
  <path class="cls-3" d="M34.54,80.99l15.32-22.43" vector-effect="non-scaling-stroke"/>
  <path class="cls-1" d="M95.9,77.95c-22.57.76-45.07,4.42-67.64,10.9-.76.21-1.31.55-1.79,1.04-.14.14-.21.41-.07.62,3.52,6.69,6.63,13.53,9.39,20.64,6.28,16.29,12.08,32.51,17.39,48.86.21.55.55.76,1.1.69l79.65-8.77c.28,0,.48-.14.62-.28,2.62-2.69,6.07-4.42,10.21-5.18" vector-effect="non-scaling-stroke"/>
  <path class="cls-6" d="M144.69,146.49c2.83-.41,6-.35,9.39.14.07,0,.21,0,.28-.07l3.86-2.07c.35-.21.48-.48.55-.83l3.24-62.12c0-.28-.21-.48-.41-.55-21.74-3.04-43.76-4.21-65.64-2.97" vector-effect="non-scaling-stroke"/>
  <path class="cls-4" d="M144.69,146.49c-6.35-10.35-13.25-20.5-20.71-30.51" vector-effect="non-scaling-stroke"/>
  <path class="cls-10" d="M123.99,115.98c1.45-4.62,1.38-9.46-.07-14.49-1.86-6.56-8.01-12.08-13.87-4.76" vector-effect="non-scaling-stroke"/>
  <path class="cls-4" d="M110.12,96.8c-3.45-3.86-6.14-7.45-10.01-12.01-1.73-2.07-3.11-4.35-4.21-6.83" vector-effect="non-scaling-stroke"/>
  <path class="cls-11" d="M110.12,96.8c-4.07,7.59-4.14,15.39-.35,23.33.07.21.28.35.48.35,6.21.41,11.39.83,13.8,7.45.07.21.21.28.41.28.41,0,.55-.21.48-.62-.35-2.21-1.59-4.07-3.59-5.52-.14-.14-.21-.35-.14-.55l2.69-5.45" vector-effect="non-scaling-stroke"/>
  <path class="cls-6" d="M161.6,119.85c6.9,2.48,15.46,6.97,10.77,15.87-2.21,4.21-5.87,7.04-9.87,10.21-.21.14-.21.35-.07.55,2.42,2.9,4.28,6.07,5.45,9.66.07.28.21.28.41.14,4.49-2.76,8.56-6.07,12.08-9.94,7.94-8.7,8.97-20.84.14-28.99-4.56-4.14-11.87-7.04-18.01-9.32-.62-.21-.97,0-1.04.69-.21,3.11-.21,6.49-.62,9.73-.07.69.14,1.17.76,1.38" vector-effect="non-scaling-stroke"/>
  <path class="cls-6" d="M19.57,159.19c.21.07.41-.07.48-.28v-.07c.14-12.42,4.07-23.88,14.08-32.23.62-.48.76-1.24.41-2.21-1.04-2.9-2.07-5.52-3.04-7.94-.41-.9-.97-1.1-1.79-.48-13.73,10.49-20.77,24.5-21.12,42.03,0,.28.14.35.35.35,3.59-.28,7.11-.07,10.63.83" vector-effect="non-scaling-stroke"/>
  <path class="cls-12" d="M160.22,145.04c.62.41,1.1.62,1.73.14,3.66-2.42,6.76-5.45,9.25-9.04,5.87-8.35-3.52-13.87-10.15-15.67-.14,0-.21.07-.28.14v.07l-1.17,23.19c.07.48.21.9.62,1.17" vector-effect="non-scaling-stroke"/>
  <path class="cls-12" d="M156.08,147.11c4.83,3.31,6.76,9.04,7.59,14.49.07.35.41.62.76.55.07,0,.14,0,.21-.07,2.28-1.1,3.11-2.97,2.35-5.59-.97-3.45-5.94-14.63-10.97-9.94-.21.21-.21.35.07.55" vector-effect="non-scaling-stroke"/>
  <path class="cls-12" d="M140.48,160.5c-1.38,2.48-3.17,6.9-1.38,9.59,1.59,2.42,5.11,2.97,7.45.76.14-.14.28-.35.35-.55.69-2.28,1.45-4.49,2.42-6.69.07-.21.21-.28.35-.35s.28,0,.28.14v.14l-2,6.07c-.07.21,0,.41.14.55,2.48,2.07,6.35,2.83,8.28-.07,1.45-2.14.14-6.83.9-7.8.07-.07.14-.14.21-.14.28-.07.41,0,.41.28l.07,5.52c0,.21.14.35.35.35h.14c1.93-.83,4.97-2.9,4.69-5.52-.55-4.83-3.17-14.22-9.04-15.39-3.17-.69-6.63-.62-10.35,0-5.8,1.04-12.35,6.83-12.63,13.11-.14,3.66,1.45,6.28,4.83,7.87.62.28,1.31.07,1.59-.55.07-.14.14-.28.14-.48.07-1.86.83-6.07,2.62-7.18.14-.07.28,0,.28.07,0,.14,0,.28-.07.28" vector-effect="non-scaling-stroke"/>
  <path class="cls-6" d="M107.29,155.81c-.14,0-.28.14-.35.28l-2,4.97c-.07.14-.07.28.07.41l7.87,11.66c.14.21.35.21.55.14.07-.07.14-.07.14-.14l9.39-18.29c.14-.21,0-.41-.14-.55-.07-.07-.14-.07-.21-.07l-15.32,1.59" vector-effect="non-scaling-stroke"/>
  <path class="cls-12" d="M104.11,160.22c.07.14.21.14.35.07.07,0,.07-.07.07-.07l1.79-3.93c.07-.14,0-.28-.14-.35h-.14l-3.93.55c-.14,0-.21.14-.21.28v.07l2.21,3.38" vector-effect="non-scaling-stroke"/>
  <path class="cls-6" d="M131.24,223.44c4.62-.69,7.73-3.31,10.01-7.25.14-.21.07-.41,0-.55l-40.24-58.94c-.07-.14-.14-.14-.28-.14l-15.11,1.66c-.76.07-.9.41-.48,1.04l45.9,64.05c.07.14.14.14.21.14" vector-effect="non-scaling-stroke"/>
  <path class="cls-12" d="M5.07,163.88c5.8-1.38,11.66-1.73,17.6-1.04.28,0,.55-.14.55-.41,0-.21-.07-.35-.21-.48-3.93-3.04-10.08-3.17-14.77-2.48-1.59.28-4.62,1.24-4.76,3.17-.07.69.48,1.24,1.17,1.31.21-.07.28-.07.41-.07" vector-effect="non-scaling-stroke"/>
  <path class="cls-12" d="M9.42,175.34c.35,2.62,1.73,7.11,4.83,7.59,1.66.28,3.31-.07,4.83-.9.21-.07.28-.35.14-.48,0,0,0-.07-.07-.07-1.73-2-2.55-4.35-2.35-7.04,0-.14.14-.28.28-.28s.21.07.28.14c.14.28.21.55.14.9-.21,3.73,2.14,6.56,5.66,7.04,7.32,1.04,8.83-8.7,2.83-9.18-.35,0-.41.07-.28.41.41.62.9,1.17,1.52,1.52.14.07.14.21.07.35-.07.07-.14.14-.21.14-1.86,0-2.83-3.73-2.9-4.97,0-.07,0-.21.07-.21.07-.07.14-.14.21-.14.21-.07.35,0,.41.21l.35,1.73c.07.21.21.35.41.35l2,.14c.21,0,.41-.07.55-.21,3.31-3.66-1.24-8.28-4.62-8.83-2.76-.48-17.39-1.31-19.95,2.9-2.97,4.9-2.62,9.59,1.04,14.15,1.17,1.45,4.97,4.49,6.97,2.55.21-.21.21-.48,0-.69-1.86-2-2.76-4.42-2.9-7.11,0-.07,0-.14.07-.14s.14-.07.21-.07c.28,0,.41.07.41.21" vector-effect="non-scaling-stroke"/>
  <path class="cls-6" d="M71.81,206.53c1.52,4.28,4.76,6.56,8.7,8.35.21.07.41.07.55-.14,8.56-8.77,15.94-15.81,23.26-27.05.07-.14.07-.35,0-.48l-7.32-10.21c-.14-.21-.35-.21-.55-.07-.07,0-.07.07-.07.07-7.11,10.49-15.25,20.15-24.36,28.99-.21.14-.28.35-.21.55" vector-effect="non-scaling-stroke"/>
  <path class="cls-12" d="M63.18,215.02c-1.1,6.63,2.62,6.76,7.18,8.97.21.07.41.07.55-.07l8.97-7.73c.21-.21.21-.55.07-.76-.07-.07-.14-.14-.21-.14-4.14-1.52-7.04-4.35-8.63-8.35-.21-.48-.76-.69-1.24-.48-.14.07-.21.14-.35.21-2,2-5.87,5.45-6.35,8.35" vector-effect="non-scaling-stroke"/>
  <path class="cls-12" d="M138.97,232.97c6.42,2.14,7.11-1.24,10.01-5.59.14-.21.14-.48,0-.69l-6.35-10.21c-.14-.21-.35-.21-.55-.14-.07.07-.14.07-.14.14-2.14,3.93-5.31,6.42-9.66,7.59-.48.14-.76.62-.62,1.1,0,.07.07.21.14.28,1.52,2.21,4.56,6.63,7.18,7.52" vector-effect="non-scaling-stroke"/>
  <path class="cls-12" d="M150.42,218.54c-.48,2.07-.41,4.07.28,6.07.14.35.35.41.55.07.69-.97,1.52-1.79,2.55-2.35.28-.14.35-.48.21-.69h0l-2.14-3.31c-.21-.35-.76-.48-1.1-.21-.21,0-.35.21-.35.41" vector-effect="non-scaling-stroke"/>
  <path class="cls-12" d="M160.57,221.37c.07,0,.21,0,.28-.14.28-.69.28-1.24-.07-1.79-.28-.41-.9-.55-1.31-.28-.41.28-.55.76-.35,1.17.14.41.62.76,1.45,1.04" vector-effect="non-scaling-stroke"/>
  <path class="cls-12" d="M164.78,219.85c1.79,5.31,5.18,9.46,9.46,12.98.21.14.41.14.55-.07l.07-.07,3.04-6.9c.14-.28.07-.62-.14-.83-3.45-3.38-7.66-5.31-12.49-5.66-.48-.07-.62.14-.48.55" vector-effect="non-scaling-stroke"/>
  <path class="cls-12" d="M155.12,222.62l2.28,1.52c.14.07.28.07.35-.07.07-.07.07-.21,0-.28l-1.31-2.21c-.21-.28-.41-.35-.69-.14l-.55.41c-.21.14-.28.48-.14.69,0,0,.07,0,.07.07" vector-effect="non-scaling-stroke"/>
  <path class="cls-12" d="M73.4,225.72l2.9,2.14c.28.21.55.21.76-.07l2.62-2.48c.28-.28.28-.76,0-1.04-.14-.14-.28-.21-.48-.21-2-.14-3.93.21-5.8,1.1-.28.14-.35.35,0,.55" vector-effect="non-scaling-stroke"/>
  <path class="cls-12" d="M153.25,224.2c-.07-.14-.28-.21-.48-.14,0,0-.07,0-.07.07l-1.17,1.17c-.14.14-.14.35,0,.48l.07.07,2.9,1.73c.14.07.35,0,.48-.14.07-.07.07-.21,0-.35l-1.73-2.9" vector-effect="non-scaling-stroke"/>
  <path class="cls-12" d="M50.55,225.45c-1.24.28-3.04,2.07-2.62,3.45.97,2.97,2.14,5.8,3.59,8.49.07.14.21.14.35.07.07-.07.14-.14.14-.21.41-3.93.07-7.73-.97-11.53-.07-.28-.28-.35-.48-.28" vector-effect="non-scaling-stroke"/>
  <path class="cls-12" d="M74.02,227.65c.14-.14.14-.35,0-.55l-.07-.07-1.1-.83c-.14-.14-.41-.07-.55.07,0,0,0,.07-.07.07l-1.38,2.97c-.07.21,0,.41.21.48.14.07.28.07.41-.07l2.55-2.07" vector-effect="non-scaling-stroke"/>
  <path class="cls-12" d="M152.29,253.54c7.87.41,19.88-8.35,24.43-14.84,2.35-3.31,3.31-7.25,2.9-11.73-.07-.41-.41-.69-.83-.69-.28,0-.55.21-.62.48-4.76,12.98-13.32,22.15-27.47,24.23-.21,0-.28.14-.28.35,0,1.45.62,2.14,1.86,2.21" vector-effect="non-scaling-stroke"/>
  <path class="cls-12" d="M59.46,250.71c4.14,2.97,11.53,6,16.22,2.69.14-.07.14-.28.07-.41l-.14-.14c-3.45-1.04-7.25-1.93-10.15-3.17-9.11-3.93-15.25-10.77-18.29-20.5-.14-.41-.41-.55-.76-.21l-1.38,1.17c-.14.14-.21.35-.21.55.97,7.8,8.63,15.67,14.63,20.02" vector-effect="non-scaling-stroke"/>
  <path class="cls-12" d="M76.02,229.1l-1.1,2.62c-.21.41-.07.48.35.28.76-.41,1.38-.9,1.93-1.59.14-.21.14-.41.07-.62l-.41-.76c-.14-.21-.35-.28-.55-.21-.21.07-.28.21-.28.28" vector-effect="non-scaling-stroke"/>
  <path class="cls-12" d="M79.54,232.62c-.07-.21-.28-.28-.48-.21-.07,0-.14.07-.21.14l-.97,1.66c-.07.21-.07.41.14.48.07.07.14.07.28.07l1.45-.28c.21-.07.35-.21.28-.41v-.07l-.48-1.38" vector-effect="non-scaling-stroke"/>
  <path class="cls-12" d="M68.84,250.22l7.18,2.07c.41.14.76,0,1.04-.35,2.76-3.86,4-8.14,3.73-12.98,0-.55-.28-.69-.76-.48-4.76,2.14-8.63,6.83-11.32,11.32-.07.14-.07.28.14.41h0" vector-effect="non-scaling-stroke"/>
  <path class="cls-12" d="M158.77,247.19c-3.52-.76-7.11-.97-10.77-.55-.35,0-.55.35-.55.69,0,.07.07.21.07.28l1.59,2.55c.14.21.35.35.62.28,3.38-.41,6.63-1.24,9.8-2.48.14-.07.21-.21.14-.41-.07-.14-.14-.21-.28-.21-.21,0-.41-.07-.62-.14" vector-effect="non-scaling-stroke"/>
  <path class="cls-3" d="M34.13,69.67c0-2.14-1.73-3.86-3.86-3.86s-3.86,1.73-3.86,3.86,1.73,3.86,3.86,3.86h0c2.14-.07,3.86-1.79,3.86-3.86h0" vector-effect="non-scaling-stroke"/>
  <path class="cls-11" d="M93.35,94.52c-4.83-3.38-9.18.83-10.77,5.18-2.83,7.45-2.21,14.7,1.86,21.6.14.21.07.41-.14.62-1.86,1.38-3.04,3.24-3.45,5.52-.07.21,0,.41.21.55.48.41.76.35.83-.21,1.17-6.07,7.94-7.38,13.39-7.18.21,0,.41-.07.55-.28,4.76-6,3.93-21.4-2.48-25.81" vector-effect="non-scaling-stroke"/>
  <path class="cls-11" d="M105.08,121.23c.28.07.55-.14.62-.41.07-.21-.07-.41-.21-.55-3.73-2.42-7.38,1.86-4.9,5.04.14.21.41.21.62.07.14-.07.21-.21.14-.41-.14-3.11-.48-4.76,3.73-3.73" vector-effect="non-scaling-stroke"/>
  <path class="cls-11" d="M90.38,125.85c.41-.07.62-.55.55-1.04h0c-.14-.48-.48-.83-.9-.76s-.62.55-.55,1.04h0c.07.48.48.83.9.76" vector-effect="non-scaling-stroke"/>
  <path class="cls-11" d="M116.54,124.54c-.21-.35-.76-.48-1.1-.28h0c-.41.21-.55.76-.35,1.1h0c.21.35.76.48,1.1.28h0c.41-.21.55-.76.35-1.1h0" vector-effect="non-scaling-stroke"/>
  <path class="cls-11" d="M87.82,126.47c-.07-.41-.48-.76-1.04-.69-.48.07-.9.48-.83.9s.48.76,1.04.69.9-.48.83-.9h0" vector-effect="non-scaling-stroke"/>
  <path class="cls-11" d="M108.81,131.24c-4,1.59-7.94,1.31-11.73-.62-.21-.14-.35-.28-.35-.55-.07-1.31-.41-2.55-1.04-3.66-.14-.28-.35-.48-.55-.55-.35-.14-.62,0-.83.28-.14.21-.14.35-.07.55,1.38,2.28,2.07,4.62-1.17,5.94-.28.07-.41.41-.28.62.07.21.28.35.48.35h.55c.21,0,.48-.07.62-.21l1.73-1.45c.21-.14.41-.21.62-.07,4.14,2.14,8.35,2.28,12.7.48.21-.07.41-.07.62.07l1.24,1.1c.14.14.35.21.48.35.69.28,1.1.21,1.24-.28.07-.21-.07-.41-.28-.55-2.76-1.59-3.11-3.66-1.04-6.07.14-.14.14-.35.07-.55-.28-.41-.55-.48-.83-.28-1.38,1.1-2,2.62-1.79,4.62,0,.14-.14.35-.41.48" vector-effect="non-scaling-stroke"/>
  <path class="cls-11" d="M120.19,127.3c.21-.07.28-.28.21-.41,0-.07-.07-.07-.07-.14l-.69-.69c-.21-.21-.55-.21-.76,0-.07.07-.14.21-.14.35v.69c0,.41.21.62.62.41l.83-.21" vector-effect="non-scaling-stroke"/>
  <path class="cls-11" d="M90.65,129.79c0-.48-.35-.83-.83-.83s-.83.35-.83.83h0c0,.48.35.83.83.83h0c.48,0,.83-.35.83-.83h0" vector-effect="non-scaling-stroke"/>
  <path class="cls-11" d="M117.02,130.68c.28-.28.21-.83-.14-1.17h0c-.35-.35-.9-.41-1.17-.14h0c-.28.28-.21.83.14,1.17h0c.35.35.9.41,1.17.14h0" vector-effect="non-scaling-stroke"/>
  <path class="cls-9" d="M84.03,100.8c3.93,1.66,6.49,4.49,7.52,8.63.07.28,0,.48-.21.62l-3.31,2.9c-.21.14-.14.28.07.41l4.56,2c.21.07.28.21.28.41v3.04c0,.28.21.48.41.48,1.86.28,2.07-.76,2.69-2.35,2.28-6,2.42-15.18-2.21-20.36-4-4.56-8.56-.9-10.15,3.52-.07.35.07.55.35.69" vector-effect="non-scaling-stroke"/>
  <path class="cls-9" d="M110.53,100.94c3.8,1.66,6.14,4.42,7.11,8.49.07.21,0,.48-.14.62l-3.17,3.04c-.14.14-.14.28.07.35l4.42,1.93c.28.14.41.35.41.62v4.49c0,.21.21.41.41.41.14,0,.21-.07.35-.14,4.9-5.59,4.62-15.39,1.66-21.81-2.9-6.42-10.01-5.18-11.53,1.17-.14.41,0,.69.41.83" vector-effect="non-scaling-stroke"/>
  <path class="cls-9" d="M141.31,152.91c-.21.21-.35.48-.35.76,0,.14.14.28.35.28.07,0,.14-.07.21-.14,1.45-1.86,3.17-3.38,5.31-4.56.14-.07.14-.21.07-.28-.07-.07-.14-.14-.28-.14-2.62.97-3.45,2.35-5.31,4.07" vector-effect="non-scaling-stroke"/>
  <path class="cls-9" d="M150.7,150.7c-2.62.07-3.59,1.79-4.83,3.73-.07.07-.07.21,0,.28l.14.14c.21.21.35.14.41-.07.97-1.79,2.35-3.04,4.28-3.52.14-.07.21-.21.21-.35.07-.14-.07-.21-.21-.21" vector-effect="non-scaling-stroke"/>
  <path class="cls-5" d="M153.53,153.05c-.14-.21-1.45.35-2.9,1.31s-2.48,1.93-2.35,2.14h0c.14.21,1.45-.35,2.9-1.31,1.45-.9,2.55-1.86,2.35-2.14h0" vector-effect="non-scaling-stroke"/>
  <path class="cls-5" d="M7.63,166.09c-.48.97-.69,3.66.55,4.21.14.07.28,0,.28-.14v-.21c-.55-1.31-.55-2.62-.07-4,.07-.14,0-.28-.14-.35h-.21c-.14.07-.35.21-.41.48" vector-effect="non-scaling-stroke"/>
  <path class="cls-9" d="M11.77,165.95c-.76,1.45-.76,2.83.14,4.21.07.14.21.14.35.07.07-.07.14-.14.14-.28l-.41-2.48c0-.14,0-.21.07-.28.35-.48.41-.9.28-1.24-.14-.35-.35-.41-.55,0" vector-effect="non-scaling-stroke"/>
  <path class="cls-9" d="M15.15,166.57c-.48,1.17-.35,2.35.35,3.38.07.14.28.14.41.07.14-.07.14-.21.14-.35-.35-.97-.41-1.93-.28-2.97.35-1.93.14-2-.62-.14" vector-effect="non-scaling-stroke"/>
  <path class="cls-17" d="M40.82,57.66c-.62.41-.55.55.21.48,24.09-2.42,48.24-4.21,72.61-5.38,18.15-.9,36.44-1.17,54.52.35.28,0,.41.14.35.41l-1.86,18.77c0,.28-.28.55-.55.55-1.79,0-2.76.97-2.83,2.76-.55,10.28-1.1,20.64-1.66,30.92,0,.21.07.41.35.48,8.63,3.45,19.53,7.04,23.81,16.15,4.28,8.97,0,19.81-7.11,26.09-3.11,2.76-6.42,5.45-9.94,7.94-.41.28-.69.76-.69,1.31-.14,2.35-1.38,3.86-3.66,4.42-.28.07-.41.21-.41.48-.69,4.49-4.49,4.28-6.97,7.18-2.48,2.9-5.52,3.11-9.11.62-.21-.14-.35-.14-.55.07-2.83,3.52-7.45,1.59-9.52-1.59-.14-.21-.28-.35-.55-.35-8.49-1.04-8.14-10.56-4.14-15.81.14-.14.07-.35-.07-.48-.07-.07-.14-.07-.28-.07l-8.21.97c-.21,0-.35.14-.41.35l-10.08,19.67c-.14.21-.07.41.07.62,9.18,13.6,18.29,26.85,27.26,39.96.55.83,1.79,1.31,2.28,2.07,2,3.17,3.93,6.28,5.73,9.32.14.21.48.35.69.14.21-.14.28-.41.21-.62-.76-1.93-1.52-5.59-.35-7.45,1.66-2.55,3.93,2,4.69,2.97.14.21.35.28.55.14,2.35-1.52,3.93-2.35,4.9-2.48,7.45-.97,13.73,1.1,18.7,6.35,3.11,3.17,1.38,9.04-.41,12.35-4.07,7.45-15.94,15.94-24.43,17.05-2.21.28-3.66-.55-4.28-2.48-.07-.21-.21-.41-.35-.55-1.17-1.17-2-2.48-2.48-3.93-1.1-3.17-3.45-4.97-6.28-6.56-3.45-1.93-5.52-3.93-4.07-7.94.07-.28.07-.48-.14-.69l-5.04-6.28c-.14-.21-.21-.41-.21-.62,0-.62-.14-1.1-.41-1.52-8.28-11.59-16.7-23.33-25.26-35.2-.21-.28-.41-.28-.55,0-6.69,9.94-14.56,18.98-23.6,27.05-.07.07-.21.28-.35.48-.76,1.73-7.38,6.63-9.25,8.14-.14.07-.14.21-.07.35l.07.07.35.14c.14.07.35.07.48,0,1.52-.83,6.49-2.48,7.8-.9,1.24,1.52-1.86,3.66-2.83,4.42-.21.21-.28.55-.14.76l.07.07c6.21,6.07,4.97,16.56.41,23.12-2,2.83-5.04,3.73-8.28,3.31-10.21-1.31-23.05-13.6-25.26-23.67-.62-2.69,2.07-3.59,3.52-5.25.62-.76,1.38-1.31,2.21-1.73,2.83-1.52,4.56-3.8,5.73-7.04,1.45-3.93,2.9-6.49,7.38-5.59.21.07.41,0,.55-.21l5.73-6.21c.21-.21.41-.28.69-.28,2,.07,2.42-1.1,3.66-2.28,8.42-8.28,15.87-17.32,22.43-27.12.14-.21.14-.48,0-.69l-12.08-16.91c-.14-.14-.28-.21-.48-.21-10.21,1.17-20.36,2.28-30.51,3.31-1.52.14-3.04.14-4.56,0-.21,0-.35-.14-.41-.28l-12.49-34.58c-.07-.21-.28-.28-.48-.21-.07,0-.07.07-.14.07-9.73,8.14-14.22,19.95-14.15,32.51,0,.28.14.41.35.55,1.31.48,2.35,1.38,3.04,2.62.14.21.28.35.48.48,3.59,2.14,7.94,5.18,4.35,9.8-.14.21-.14.35,0,.55,3.24,4.07.97,9.59-4.28,9.8-1.52.07-2.9-.48-4.28-1.1-.21-.07-.41-.07-.55.14-1.79,1.93-4.35,1.66-6.69,1.31-.21,0-.41,0-.62.21-3.04,2.62-7.73-1.24-9.32-3.8-3.11-4.97-2.83-9.94.83-14.98.14-.21.14-.41-.07-.55-3.31-2.48,1.73-5.11,3.59-5.52.21-.07.35-.21.35-.41.55-17.88,7.52-33.54,22.64-43.55.21-.14.28-.35.21-.55-8.01-19.67-16.91-42.03-27.47-60.39-3.45-6-1.1-10.01,5.04-11.8,3.86-1.1,7.66-2.35,11.46-3.59,30.64-10.49,61.63-20.08,92.9-28.71,13.67-3.8,28.16-7.52,42.31-8.7.35,0,.62.14.76.48l7.32,17.94c.14.28.07.62-.14.9l-3.93,4.35c-.14.14-.35.28-.55.35-20.98,4.21-41.82,8.9-62.53,14.29-19.74,5.11-35.75,9.94-52.8,17.12-1.04.35-1.86.76-2.42,1.17ZM132.82,5.9c-.21-.14-.41-.21-.69-.14-6.69,1.38-13.39,3.04-20.08,4.97l-9.25,2.55-19.53,5.66-10.15,3.11-19.12,6-9.39,2.97-18.84,6.21-18.63,6.07c-.28.07-.41.35-.35.62,0,0,0,.07.07.07,2.62,4.76,5.18,10.01,9.66,13.25,6.97,1.79,14.22,1.79,21.53,0,2.9-.69,5.52-2.07,7.8-4.21l16.63-7.04,10.08-3.38,18.77-5.45,11.39-2.9,19.74-4.62,10.49-2.42,20.15-4.21,7.59-1.45c.97-.21,1.52-1.1,1.38-2,0-.14-.07-.21-.07-.28l-.9-2.28-5.94-14.63c-.21-.48-.55-.62-1.04-.62-6.83.69-13.67,1.86-20.5,3.45-.41.28-.69.41-.83.69ZM138.14,53.59c-.35-.35-.62-.55-.9-.55-2.69-.07-5.87,0-9.39.21l-18.36.83-10.97.55-18.63,1.38-11.18.76c-6.97.35-13.04.83-18.22,1.45-.28,0-.48.14-.69.35-.69-.35-.83-.14-1.45-.14-6.69.48-13.32,1.31-19.95,2.48-2.14.41-3.93,1.31-5.25,2.76-2,2.21-6.42,7.32-3.31,10.56,4.14,4.21,8.01,8.35,14.56,6.76l18.98-2.69,12.08-1.24,18.22-1.59,11.66-.76,17.94-1.04,11.25-.41,17.6-.62,22.98-.83c.28,0,.41-.14.48-.41l.28-1.86,1.52-14.98c0-.21-.14-.41-.35-.48h0l-11.04-.83c-6.69-.55-12.49-.62-17.32-.28-.35.14-.55.28-.55.62ZM95.9,77.95c-22.57.76-45.07,4.42-67.64,10.9-.76.21-1.31.55-1.79,1.04-.14.14-.21.41-.07.62,3.52,6.69,6.63,13.53,9.39,20.64,6.28,16.29,12.08,32.51,17.39,48.86.21.55.55.76,1.1.69l79.65-8.77c.28,0,.48-.14.62-.28,2.62-2.69,6.07-4.42,10.21-5.18,2.83-.41,6-.35,9.39.14.07,0,.21,0,.28-.07l3.86-2.07c.35-.21.48-.48.55-.83l3.24-62.12c0-.28-.21-.48-.41-.55-21.88-3.11-43.9-4.28-65.77-3.04ZM161.6,119.85c6.9,2.48,15.46,6.97,10.77,15.87-2.21,4.21-5.87,7.04-9.87,10.21-.21.14-.21.35-.07.55,2.42,2.9,4.28,6.07,5.45,9.66.07.28.21.28.41.14,4.49-2.76,8.56-6.07,12.08-9.94,7.94-8.7,8.97-20.84.14-28.99-4.56-4.14-11.87-7.04-18.01-9.32-.62-.21-.97,0-1.04.69-.21,3.11-.21,6.49-.62,9.73-.07.69.14,1.17.76,1.38ZM19.57,159.19c.21.07.41-.07.48-.28v-.07c.14-12.42,4.07-23.88,14.08-32.23.62-.48.76-1.24.41-2.21-1.04-2.9-2.07-5.52-3.04-7.94-.41-.9-.97-1.1-1.79-.48-13.73,10.49-20.77,24.5-21.12,42.03,0,.28.14.35.35.35,3.59-.28,7.11-.07,10.63.83ZM160.22,145.04c.62.41,1.1.62,1.73.14,3.66-2.42,6.76-5.45,9.25-9.04,5.87-8.35-3.52-13.87-10.15-15.67-.14,0-.21.07-.28.14v.07l-1.17,23.19c.07.48.21.9.62,1.17ZM156.08,147.11c4.83,3.31,6.76,9.04,7.59,14.49.07.35.41.62.76.55.07,0,.14,0,.21-.07,2.28-1.1,3.11-2.97,2.35-5.59-.97-3.45-5.94-14.63-10.97-9.94-.21.21-.21.35.07.55ZM140.48,160.5c-1.38,2.48-3.17,6.9-1.38,9.59,1.59,2.42,5.11,2.97,7.45.76.14-.14.28-.35.35-.55.69-2.28,1.45-4.49,2.42-6.69.07-.21.21-.28.35-.35s.28,0,.28.14v.14l-2,6.07c-.07.21,0,.41.14.55,2.48,2.07,6.35,2.83,8.28-.07,1.45-2.14.14-6.83.9-7.8.07-.07.14-.14.21-.14.28-.07.41,0,.41.28l.07,5.52c0,.21.14.35.35.35h.14c1.93-.83,4.97-2.9,4.69-5.52-.55-4.83-3.17-14.22-9.04-15.39-3.17-.69-6.63-.62-10.35,0-5.8,1.04-12.35,6.83-12.63,13.11-.14,3.66,1.45,6.28,4.83,7.87.62.28,1.31.07,1.59-.55.07-.14.14-.28.14-.48.07-1.86.83-6.07,2.62-7.18.14-.07.28,0,.28.07,0,.14,0,.28-.07.28ZM107.29,155.81c-.14,0-.28.14-.35.28l-2,4.97c-.07.14-.07.28.07.41l7.87,11.66c.14.21.35.21.55.14.07-.07.14-.07.14-.14l9.39-18.29c.14-.21,0-.41-.14-.55-.07-.07-.14-.07-.21-.07l-15.32,1.59ZM104.11,160.22c.07.14.21.14.35.07.07,0,.07-.07.07-.07l1.79-3.93c.07-.14,0-.28-.14-.35h-.14l-3.93.55c-.14,0-.21.14-.21.28v.07l2.21,3.38ZM131.24,223.44c4.62-.69,7.73-3.31,10.01-7.25.14-.21.07-.41,0-.55l-40.24-58.94c-.07-.14-.14-.14-.28-.14l-15.11,1.66c-.76.07-.9.41-.48,1.04l45.9,64.05c.07.14.14.14.21.14ZM5.07,163.88c5.8-1.38,11.66-1.73,17.6-1.04.28,0,.55-.14.55-.41,0-.21-.07-.35-.21-.48-3.93-3.04-10.08-3.17-14.77-2.48-1.59.28-4.62,1.24-4.76,3.17-.07.69.48,1.24,1.17,1.31.21-.07.28-.07.41-.07ZM9.42,175.34c.35,2.62,1.73,7.11,4.83,7.59,1.66.28,3.31-.07,4.83-.9.21-.07.28-.35.14-.48,0,0,0-.07-.07-.07-1.73-2-2.55-4.35-2.35-7.04,0-.14.14-.28.28-.28s.21.07.28.14c.14.28.21.55.14.9-.21,3.73,2.14,6.56,5.66,7.04,7.32,1.04,8.83-8.7,2.83-9.18-.35,0-.41.07-.28.41.41.62.9,1.17,1.52,1.52.14.07.14.21.07.35-.07.07-.14.14-.21.14-1.86,0-2.83-3.73-2.9-4.97,0-.07,0-.21.07-.21.07-.07.14-.14.21-.14.21-.07.35,0,.41.21l.35,1.73c.07.21.21.35.41.35l2,.14c.21,0,.41-.07.55-.21,3.31-3.66-1.24-8.28-4.62-8.83-2.76-.48-17.39-1.31-19.95,2.9-2.97,4.9-2.62,9.59,1.04,14.15,1.17,1.45,4.97,4.49,6.97,2.55.21-.21.21-.48,0-.69-1.86-2-2.76-4.42-2.9-7.11,0-.07,0-.14.07-.14s.14-.07.21-.07c.28,0,.41.07.41.21ZM71.81,206.53c1.52,4.28,4.76,6.56,8.7,8.35.21.07.41.07.55-.14,8.56-8.77,15.94-15.81,23.26-27.05.07-.14.07-.35,0-.48l-7.32-10.21c-.14-.21-.35-.21-.55-.07-.07,0-.07.07-.07.07-7.11,10.49-15.25,20.15-24.36,28.99-.21.14-.28.35-.21.55ZM63.18,215.02c-1.1,6.63,2.62,6.76,7.18,8.97.21.07.41.07.55-.07l8.97-7.73c.21-.21.21-.55.07-.76-.07-.07-.14-.14-.21-.14-4.14-1.52-7.04-4.35-8.63-8.35-.21-.48-.76-.69-1.24-.48-.14.07-.21.14-.35.21-2,2-5.87,5.45-6.35,8.35ZM138.97,232.97c6.42,2.14,7.11-1.24,10.01-5.59.14-.21.14-.48,0-.69l-6.35-10.21c-.14-.21-.35-.21-.55-.14-.07.07-.14.07-.14.14-2.14,3.93-5.31,6.42-9.66,7.59-.48.14-.76.62-.62,1.1,0,.07.07.21.14.28,1.52,2.21,4.56,6.63,7.18,7.52ZM150.42,218.54c-.48,2.07-.41,4.07.28,6.07.14.35.35.41.55.07.69-.97,1.52-1.79,2.55-2.35.28-.14.35-.48.21-.69h0l-2.14-3.31c-.21-.35-.76-.48-1.1-.21-.21,0-.35.21-.35.41ZM160.57,221.37c.07,0,.21,0,.28-.14.28-.69.28-1.24-.07-1.79-.28-.41-.9-.55-1.31-.28-.41.28-.55.76-.35,1.17.14.41.62.76,1.45,1.04ZM164.78,219.85c1.79,5.31,5.18,9.46,9.46,12.98.21.14.41.14.55-.07l.07-.07,3.04-6.9c.14-.28.07-.62-.14-.83-3.45-3.38-7.66-5.31-12.49-5.66-.48-.07-.62.14-.48.55ZM155.12,222.62l2.28,1.52c.14.07.28.07.35-.07.07-.07.07-.21,0-.28l-1.31-2.21c-.21-.28-.41-.35-.69-.14l-.55.41c-.21.14-.28.48-.14.69,0,0,.07,0,.07.07ZM73.4,225.72l2.9,2.14c.28.21.55.21.76-.07l2.62-2.48c.28-.28.28-.76,0-1.04-.14-.14-.28-.21-.48-.21-2-.14-3.93.21-5.8,1.1-.28.14-.35.35,0,.55ZM153.25,224.2c-.07-.14-.28-.21-.48-.14,0,0-.07,0-.07.07l-1.17,1.17c-.14.14-.14.35,0,.48l.07.07,2.9,1.73c.14.07.35,0,.48-.14.07-.07.07-.21,0-.35l-1.73-2.9ZM50.55,225.45c-1.24.28-3.04,2.07-2.62,3.45.97,2.97,2.14,5.8,3.59,8.49.07.14.21.14.35.07.07-.07.14-.14.14-.21.41-3.93.07-7.73-.97-11.53-.07-.28-.28-.35-.48-.28ZM74.02,227.65c.14-.14.14-.35,0-.55l-.07-.07-1.1-.83c-.14-.14-.41-.07-.55.07,0,0,0,.07-.07.07l-1.38,2.97c-.07.21,0,.41.21.48.14.07.28.07.41-.07l2.55-2.07ZM152.29,253.54c7.87.41,19.88-8.35,24.43-14.84,2.35-3.31,3.31-7.25,2.9-11.73-.07-.41-.41-.69-.83-.69-.28,0-.55.21-.62.48-4.76,12.98-13.32,22.15-27.47,24.23-.21,0-.28.14-.28.35,0,1.45.62,2.14,1.86,2.21ZM59.46,250.71c4.14,2.97,11.53,6,16.22,2.69.14-.07.14-.28.07-.41l-.14-.14c-3.45-1.04-7.25-1.93-10.15-3.17-9.11-3.93-15.25-10.77-18.29-20.5-.14-.41-.41-.55-.76-.21l-1.38,1.17c-.14.14-.21.35-.21.55.97,7.8,8.63,15.67,14.63,20.02ZM76.02,229.1l-1.1,2.62c-.21.41-.07.48.35.28.76-.41,1.38-.9,1.93-1.59.14-.21.14-.41.07-.62l-.41-.76c-.14-.21-.35-.28-.55-.21-.21.07-.28.21-.28.28ZM79.54,232.62c-.07-.21-.28-.28-.48-.21-.07,0-.14.07-.21.14l-.97,1.66c-.07.21-.07.41.14.48.07.07.14.07.28.07l1.45-.28c.21-.07.35-.21.28-.41v-.07l-.48-1.38ZM68.84,250.22l7.18,2.07c.41.14.76,0,1.04-.35,2.76-3.86,4-8.14,3.73-12.98,0-.55-.28-.69-.76-.48-4.76,2.14-8.63,6.83-11.32,11.32-.07.14-.07.28.14.41h0ZM158.77,247.19c-3.52-.76-7.11-.97-10.77-.55-.35,0-.55.35-.55.69,0,.07.07.21.07.28l1.59,2.55c.14.21.35.35.62.28,3.38-.41,6.63-1.24,9.8-2.48.14-.07.21-.21.14-.41-.07-.14-.14-.21-.28-.21-.21,0-.41-.07-.62-.14Z"/>
  <path class="cls-22" d="M161.12,17.22c-4.35.28-8.63.9-12.84,1.86l-15.46-13.11c.14-.28.48-.41.9-.55,6.83-1.59,13.67-2.76,20.5-3.45.48-.07.83.14,1.04.62l5.87,14.63Z"/>
  <path class="cls-24" d="M132.82,5.9l15.46,13.11,4.83,4.14-20.15,4.21-7.87-6.35-13.04-10.28c6.69-1.93,13.39-3.59,20.08-4.97.28-.07.48,0,.69.14Z"/>
  <path class="cls-22" d="M112.05,10.73l13.04,10.28c.07.83-.14,1.31-.76,1.45-2.83.41-5.59,1.1-8.35,1.93l-13.18-11.04,9.25-2.62Z"/>
  <path class="cls-24" d="M102.8,13.29l13.18,11.04,6.49,5.38-19.74,4.62-8.21-6.56-11.18-8.9,19.46-5.59Z"/>
  <path class="cls-18" d="M161.12,17.22l.9,2.28c.35.9-.07,1.86-.97,2.21-.07.07-.21.07-.28.07l-7.59,1.45-4.83-4.14c4.14-.97,8.42-1.59,12.77-1.86Z"/>
  <path class="cls-22" d="M83.34,18.94l11.18,8.9c-2.69,1.52-5.66,2.48-8.83,3.04-.35.07-.69.35-.9.9l-11.59-9.73,10.15-3.11Z"/>
  <path class="cls-18" d="M125.09,21.02l7.87,6.35-10.49,2.42-6.49-5.38c2.76-.83,5.52-1.52,8.35-1.93.62-.14.83-.62.76-1.45Z"/>
  <path class="cls-24" d="M73.19,22.05l11.59,9.73,6.56,5.45-18.77,5.45-8.14-6.56-10.42-8.14,19.19-5.94Z"/>
  <path class="cls-18" d="M94.52,27.85l8.21,6.56-11.39,2.9-6.56-5.45c.28-.55.55-.83.9-.9,3.17-.62,6.14-1.59,8.83-3.11Z"/>
  <path class="cls-22" d="M54.07,28.05l10.42,8.14c-2.69,1.86-5.8,3.11-9.32,3.73l-10.42-8.9,9.32-2.97Z"/>
  <path class="cls-24" d="M44.69,31.02l10.42,8.9,7.38,6.14-16.63,7.04-8.49-6.69-11.59-9.11,18.91-6.28Z"/>
  <path class="cls-18" d="M64.43,36.13l8.14,6.56-10.08,3.38-7.38-6.14c3.52-.62,6.63-1.93,9.32-3.8Z"/>
  <path class="cls-22" d="M25.85,37.23l11.59,9.11c-3.38,2.21-7.04,3.86-11.04,4.9.21-2.55-.62-4.14-2.48-4.9-4.56-1.73-7.73,5.11-2.21,7.45l-5.11,3.45c-4.49-3.24-7.04-8.49-9.66-13.25-.14-.28-.07-.55.21-.69h.07l18.63-6.07Z"/>
  <path class="cls-24" d="M26.33,51.31c-1.04,1.93-2.62,2.76-4.76,2.55-5.52-2.35-2.28-9.18,2.21-7.45,1.93.76,2.76,2.35,2.55,4.9Z"/>
  <path class="cls-18" d="M37.44,46.41l8.49,6.69c-2.35,2.14-4.9,3.52-7.8,4.21-7.38,1.79-14.56,1.79-21.53,0l5.11-3.45c2.07.21,3.66-.62,4.76-2.55,3.86-1.04,7.59-2.69,10.97-4.9Z"/>
  <path class="cls-24" d="M156.08,53.32l-9.52,13.32-4.28,6-17.6.62,4.76-6.83,8.7-12.77c0-.35.21-.55.55-.55,4.9-.41,10.63-.35,17.39.21Z"/>
  <path class="cls-20" d="M138.14,53.59l-8.7,12.77c-2.83-.69-5.8-.83-8.83-.35-.21.07-.48,0-.62-.21l-.69-.62,8.63-11.94c3.52-.21,6.69-.35,9.39-.21.21,0,.55.21.83.55Z"/>
  <path class="cls-24" d="M127.85,53.32l-8.63,11.94-5.87,8.42-17.94,1.04,5.04-7.32,9.04-13.25,18.36-.83Z"/>
  <path class="cls-20" d="M156.08,53.32l11.04.83c.21,0,.41.21.41.41h0l-1.52,14.98-19.46-2.97,9.52-13.25Z"/>
  <path class="cls-20" d="M109.56,54.07l-9.04,13.25c-1.73-1.73-6.28-.83-8.56-.69-.21,0-.41-.07-.55-.21l-.76-.69,8.01-11.11,10.9-.55Z"/>
  <path class="cls-24" d="M98.59,54.63l-8.01,11.11-6.83,9.66-18.22,1.59,5.87-8.56,8.56-12.49,18.63-1.31Z"/>
  <path class="cls-20" d="M79.96,56.01l-8.56,12.49-9.52,1.17c-.21,0-.41,0-.62-.14l-1.1-.69,8.63-12.08,11.18-.76Z"/>
  <path class="cls-24" d="M68.77,56.77l-8.63,12.08-6.69,9.46-18.98,2.69,15.32-22.43c.21-.21.48-.35.69-.35,5.31-.62,11.39-1.1,18.29-1.45Z"/>
  <path class="cls-20" d="M49.86,58.56l-15.32,22.43c-6.56,1.59-10.42-2.55-14.56-6.76-3.17-3.24,1.24-8.35,3.31-10.56,1.31-1.45,3.04-2.35,5.25-2.76,6.63-1.17,13.25-2,19.95-2.48.55,0,.69-.21,1.38.14ZM34.13,69.67c0-2.14-1.73-3.86-3.86-3.86s-3.86,1.73-3.86,3.86,1.73,3.86,3.86,3.86h0c2.14-.07,3.86-1.79,3.86-3.86h0Z"/>
  <path class="cls-18" d="M119.23,65.26l.69.62c.21.14.41.21.62.21,3.04-.48,6-.35,8.83.35l-4.76,6.83-11.25.41,5.87-8.42Z"/>
  <circle class="cls-24" cx="30.26" cy="69.67" r="3.86"/>
  <path class="cls-18" d="M90.58,65.74l.76.69c.14.14.35.21.55.21,2.28-.21,6.9-1.04,8.56.69l-5.04,7.32-11.66.76,6.83-9.66Z"/>
  <path class="cls-18" d="M146.49,66.64l19.46,2.97-.28,1.86c-.07.28-.21.41-.48.41l-22.98.83,4.28-6.07Z"/>
  <path class="cls-18" d="M71.4,68.5l-5.87,8.56-12.08,1.24,6.69-9.46,1.1.69c.21.14.41.14.62.14l9.52-1.17Z"/>
  <path class="cls-23" d="M144.69,146.49c-6.35-10.35-13.25-20.5-20.71-30.51,1.45-4.62,1.38-9.46-.07-14.49-1.86-6.56-8.01-12.08-13.87-4.76-3.45-3.86-6.14-7.45-10.01-12.01-1.73-2.07-3.11-4.35-4.21-6.83,21.88-1.24,43.9-.07,65.64,2.97.28.07.41.28.41.55l-3.24,62.12c0,.35-.21.69-.55.83l-3.86,2.07c-.07.07-.21.07-.28.07-3.24-.35-6.35-.41-9.25,0Z"/>
  <path class="cls-19" d="M95.9,77.95c1.04,2.48,2.48,4.76,4.21,6.83,3.8,4.49,6.56,8.14,10.01,12.01-4.07,7.59-4.14,15.39-.35,23.33.07.21.28.35.48.35,6.21.41,11.39.83,13.8,7.45.07.21.21.28.41.28.41,0,.55-.21.48-.62-.35-2.21-1.59-4.07-3.59-5.52-.14-.14-.21-.35-.14-.55l2.69-5.45c7.45,10.01,14.36,20.15,20.71,30.51-4.14.76-7.59,2.48-10.21,5.18-.21.21-.41.28-.62.28l-79.65,8.77c-.55.07-.9-.21-1.1-.69-5.31-16.29-11.11-32.58-17.39-48.86-2.69-7.04-5.87-13.94-9.39-20.64-.14-.21-.07-.48.07-.62.48-.48,1.1-.83,1.79-1.04,22.71-6.49,45.28-10.15,67.78-10.97ZM93.35,94.52c-4.83-3.38-9.18.83-10.77,5.18-2.83,7.45-2.21,14.7,1.86,21.6.14.21.07.41-.14.62-1.86,1.38-3.04,3.24-3.45,5.52-.07.21,0,.41.21.55.48.41.76.35.83-.21,1.17-6.07,7.94-7.38,13.39-7.18.21,0,.41-.07.55-.28,4.76-6,3.93-21.4-2.48-25.81ZM105.08,121.23c.28.07.55-.14.62-.41.07-.21-.07-.41-.21-.55-3.73-2.42-7.38,1.86-4.9,5.04.14.21.41.21.62.07.14-.07.21-.21.14-.41-.14-3.11-.48-4.76,3.73-3.73ZM90.38,125.85c.41-.07.62-.55.55-1.04h0c-.14-.48-.48-.83-.9-.76s-.62.55-.55,1.04h0c.07.48.48.83.9.76ZM116.54,124.54c-.21-.35-.76-.48-1.1-.28h0c-.41.21-.55.76-.35,1.1h0c.21.35.76.48,1.1.28h0c.41-.21.55-.76.35-1.1h0ZM87.82,126.47c-.07-.41-.48-.76-1.04-.69-.48.07-.9.48-.83.9s.48.76,1.04.69.9-.48.83-.9h0ZM108.81,131.24c-4,1.59-7.94,1.31-11.73-.62-.21-.14-.35-.28-.35-.55-.07-1.31-.41-2.55-1.04-3.66-.14-.28-.35-.48-.55-.55-.35-.14-.62,0-.83.28-.14.21-.14.35-.07.55,1.38,2.28,2.07,4.62-1.17,5.94-.28.07-.41.41-.28.62.07.21.28.35.48.35h.55c.21,0,.48-.07.62-.21l1.73-1.45c.21-.14.41-.21.62-.07,4.14,2.14,8.35,2.28,12.7.48.21-.07.41-.07.62.07l1.24,1.1c.14.14.35.21.48.35.69.28,1.1.21,1.24-.28.07-.21-.07-.41-.28-.55-2.76-1.59-3.11-3.66-1.04-6.07.14-.14.14-.35.07-.55-.28-.41-.55-.48-.83-.28-1.38,1.1-2,2.62-1.79,4.62,0,.14-.14.35-.41.48ZM120.19,127.3c.21-.07.28-.28.21-.41,0-.07-.07-.07-.07-.14l-.69-.69c-.21-.21-.55-.21-.76,0-.07.07-.14.21-.14.35v.69c0,.41.21.62.62.41l.83-.21ZM90.65,129.79c0-.48-.35-.83-.83-.83s-.83.35-.83.83h0c0,.48.35.83.83.83h0c.48,0,.83-.35.83-.83h0ZM117.02,130.68c.28-.28.21-.83-.14-1.17h0c-.35-.35-.9-.41-1.17-.14h0c-.28.28-.21.83.14,1.17h0c.35.35.9.41,1.17.14h0Z"/>
  <path class="cls-21" d="M93.35,94.52c6.42,4.42,7.25,19.81,2.48,25.74-.14.21-.35.28-.55.28-5.38-.21-12.22,1.1-13.39,7.18-.14.55-.41.62-.83.21-.14-.14-.21-.35-.21-.55.41-2.28,1.59-4.14,3.45-5.52.21-.14.28-.35.14-.62-4.07-6.9-4.69-14.08-1.86-21.6,1.59-4.21,5.94-8.42,10.77-5.11ZM84.03,100.8c3.93,1.66,6.49,4.49,7.52,8.63.07.28,0,.48-.21.62l-3.31,2.9c-.21.14-.14.28.07.41l4.56,2c.21.07.28.21.28.41v3.04c0,.28.21.48.41.48,1.86.28,2.07-.76,2.69-2.35,2.28-6,2.42-15.18-2.21-20.36-4-4.56-8.56-.9-10.15,3.52-.07.35.07.55.35.69Z"/>
  <path class="cls-21" d="M123.99,115.98l-2.69,5.45c-.07.21-.07.41.14.55,2,1.45,3.17,3.31,3.59,5.52.07.41-.07.62-.48.62-.21,0-.35-.07-.41-.28-2.42-6.63-7.59-7.04-13.8-7.45-.21,0-.41-.14-.48-.35-3.86-7.94-3.73-15.74.35-23.33,5.87-7.32,11.94-1.79,13.87,4.76,1.38,5.04,1.38,9.87-.07,14.49ZM110.53,100.94c3.8,1.66,6.14,4.42,7.11,8.49.07.21,0,.48-.14.62l-3.17,3.04c-.14.14-.14.28.07.35l4.42,1.93c.28.14.41.35.41.62v4.49c0,.21.21.41.41.41.14,0,.21-.07.35-.14,4.9-5.59,4.62-15.39,1.66-21.81-2.9-6.42-10.01-5.18-11.53,1.17-.14.41,0,.69.41.83Z"/>
  <path class="cls-24" d="M110.53,100.94c-.41-.14-.55-.48-.41-.9,1.52-6.28,8.63-7.59,11.53-1.17,2.9,6.42,3.24,16.22-1.66,21.81-.14.21-.41.21-.62.07-.07-.07-.14-.21-.14-.35v-4.42c0-.28-.14-.55-.41-.62l-4.42-1.93c-.21-.07-.21-.21-.07-.35l3.17-3.04c.14-.14.21-.41.14-.62-.97-4-3.31-6.83-7.11-8.49Z"/>
  <path class="cls-24" d="M84.03,100.8c-.28-.14-.35-.35-.28-.62,1.59-4.42,6.14-8.08,10.15-3.52,4.62,5.18,4.49,14.36,2.21,20.36-.62,1.59-.83,2.62-2.69,2.35-.28-.07-.41-.28-.41-.48v-3.04c0-.21-.07-.35-.28-.41l-4.56-2c-.21-.14-.28-.28-.07-.41l3.31-2.9c.21-.21.28-.41.21-.62-1.17-4.21-3.66-7.04-7.59-8.7Z"/>
  <path class="cls-23" d="M161.6,119.85c-.55-.21-.83-.69-.76-1.38.41-3.24.41-6.63.62-9.73.07-.69.41-.9,1.04-.69,6.14,2.28,13.46,5.18,18.01,9.32,8.83,8.14,7.87,20.29-.14,28.99-3.52,3.86-7.52,7.18-12.08,9.94-.21.14-.35.07-.41-.14-1.17-3.59-3.04-6.76-5.45-9.66-.14-.21-.14-.35.07-.55,4-3.17,7.66-6,9.87-10.21,4.69-8.97-3.87-13.39-10.77-15.87Z"/>
  <path class="cls-23" d="M19.57,159.19c-3.52-.9-7.04-1.17-10.63-.83-.28,0-.35-.07-.35-.35.35-17.53,7.38-31.54,21.12-42.03.76-.62,1.38-.48,1.79.48.97,2.35,2,5.04,3.04,7.94.35.97.21,1.73-.41,2.21-10.01,8.35-13.94,19.81-14.08,32.23,0,.21-.21.41-.41.41,0,0-.07,0-.07-.07Z"/>
  <path class="cls-21" d="M105.08,121.23c-4.21-1.04-3.86.62-3.66,3.8,0,.28-.14.48-.41.48-.14,0-.28-.07-.41-.14-2.48-3.17,1.17-7.52,4.9-5.04.28.14.28.48.14.76-.07.14-.28.21-.55.14Z"/>
  <path class="cls-24" d="M160.22,145.04c-.41-.28-.55-.62-.55-1.1l1.17-23.19c0-.14.14-.21.21-.21h.07c6.56,1.79,16.01,7.32,10.15,15.67-2.48,3.59-5.59,6.56-9.25,9.04-.69.41-1.17.21-1.79-.21Z"/>
  <ellipse class="cls-21" cx="90.15" cy="124.97" rx=".76" ry=".9" transform="translate(-24.37 21.87) rotate(-12.2)"/>
  <ellipse class="cls-21" cx="115.78" cy="125.02" rx=".83" ry=".76" transform="translate(-47.77 77.19) rotate(-30.9)"/>
  <ellipse class="cls-21" cx="86.96" cy="126.61" rx=".9" ry=".76" transform="translate(-14.18 11.01) rotate(-6.7)"/>
  <path class="cls-21" d="M109.15,130.61c-.21-1.93.35-3.45,1.79-4.62.28-.21.55-.14.83.28.14.14.07.41-.07.55-2.07,2.48-1.73,4.49,1.04,6.07.21.14.28.35.28.55-.14.48-.55.62-1.24.28-.21-.07-.35-.21-.48-.35l-1.24-1.1c-.21-.14-.35-.21-.62-.07-4.28,1.79-8.49,1.66-12.7-.48-.21-.14-.48-.07-.62.07l-1.73,1.45c-.21.14-.41.21-.62.21h-.55c-.28,0-.48-.21-.48-.48,0-.21.14-.41.35-.48,3.24-1.24,2.55-3.59,1.17-5.94-.14-.21-.14-.41.07-.55.28-.35.55-.41.83-.28.21.07.41.28.55.55.62,1.17.97,2.35,1.04,3.66,0,.21.14.41.35.55,3.8,2,7.73,2.21,11.73.62.28,0,.41-.21.35-.48Z"/>
  <path class="cls-21" d="M120.19,127.3l-.83.28c-.41.14-.62,0-.62-.41v-.69c0-.28.28-.55.55-.55.14,0,.28.07.35.14l.69.69c.14.14.14.35,0,.48-.07,0-.14,0-.14.07Z"/>
  <circle class="cls-21" cx="89.83" cy="129.79" r=".83"/>
  <ellipse class="cls-21" cx="116.36" cy="129.98" rx=".76" ry=".9" transform="translate(-57.83 120.35) rotate(-45)"/>
  <path class="cls-24" d="M156.08,147.11c-.21-.14-.28-.35-.07-.55,5.04-4.69,10.08,6.49,10.97,9.94.76,2.62-.07,4.49-2.35,5.59-.35.14-.76,0-.9-.35,0-.07-.07-.14-.07-.21-.83-5.38-2.76-11.11-7.59-14.42Z"/>
  <path class="cls-24" d="M140.21,160.22c-1.79,1.1-2.48,5.31-2.62,7.18,0,.62-.62,1.17-1.24,1.1-.14,0-.35-.07-.48-.14-3.38-1.66-4.97-4.28-4.83-7.87.28-6.28,6.83-12.08,12.63-13.11,3.73-.69,7.18-.69,10.35,0,5.87,1.24,8.49,10.56,9.04,15.39.28,2.55-2.76,4.62-4.69,5.52-.21.07-.41,0-.48-.21v-.14l-.07-5.52c0-.28-.14-.41-.41-.28-.07,0-.14.07-.21.14-.76.97.48,5.66-.9,7.8-1.93,2.9-5.8,2.14-8.28.07-.14-.14-.21-.35-.14-.55l2-6.07c.07-.14,0-.28-.14-.28h-.14c-.14.07-.28.14-.35.35-.9,2.21-1.73,4.42-2.42,6.69-.07.21-.21.41-.35.55-2.28,2.21-5.87,1.59-7.45-.76-1.79-2.69,0-7.04,1.38-9.59.07-.14,0-.28-.14-.28.07,0-.07,0-.07,0ZM141.31,152.91c-.21.21-.35.48-.35.76,0,.14.14.28.35.28.07,0,.14-.07.21-.14,1.45-1.86,3.17-3.38,5.31-4.56.14-.07.14-.21.07-.28-.07-.07-.14-.14-.28-.14-2.62.97-3.45,2.35-5.31,4.07ZM150.7,150.7c-2.62.07-3.59,1.79-4.83,3.73-.07.07-.07.21,0,.28l.14.14c.21.21.35.14.41-.07.97-1.79,2.35-3.04,4.28-3.52.14-.07.21-.21.21-.35.07-.14-.07-.21-.21-.21ZM153.53,153.05c-.14-.21-1.45.35-2.9,1.31s-2.48,1.93-2.35,2.14h0c.14.21,1.45-.35,2.9-1.31,1.45-.9,2.55-1.86,2.35-2.14h0Z"/>
  <path class="cls-21" d="M141.31,152.91c1.93-1.73,2.69-3.11,5.31-4,.14-.07.28,0,.28.14.07.14,0,.21-.14.28-2.07,1.17-3.86,2.69-5.31,4.56-.07.14-.28.14-.41.07-.07-.07-.14-.14-.14-.21.07-.35.14-.62.41-.83Z"/>
  <path class="cls-21" d="M145.94,154.43c1.24-1.93,2.21-3.66,4.83-3.73.14,0,.28.14.28.28s-.07.21-.21.28c-1.93.55-3.38,1.73-4.28,3.52-.14.21-.28.28-.41.07l-.14-.14c-.14-.07-.14-.21-.07-.28Z"/>
  <ellipse class="cls-23" cx="150.94" cy="154.79" rx="3.11" ry=".48" transform="translate(-60.36 109.01) rotate(-33.5)"/>
  <path class="cls-23" d="M107.29,155.81l15.32-1.66c.21,0,.41.14.48.35,0,.07,0,.14-.07.21l-9.39,18.29c-.07.21-.35.28-.55.21-.07,0-.14-.07-.14-.14l-7.87-11.66c-.07-.14-.07-.28-.07-.41l2-4.97c0-.14.14-.21.28-.21Z"/>
  <path class="cls-24" d="M104.11,160.22l-2.14-3.31c-.07-.14-.07-.28.07-.35h.07l3.93-.55c.14,0,.28.07.28.21v.14l-1.79,3.93c-.07.14-.21.21-.35.14,0-.14-.07-.14-.07-.21Z"/>
  <path class="cls-23" d="M141.24,216.2c-2.21,4-5.38,6.63-10.01,7.25-.07,0-.14,0-.21-.07l-45.9-64.05c-.41-.62-.28-.97.48-1.04l15.11-1.66c.14,0,.21,0,.28.14l40.24,58.87c.14.14.14.35,0,.55Z"/>
  <path class="cls-24" d="M5.07,163.88c-.69.14-1.31-.28-1.52-.9,0-.14-.07-.21,0-.35.14-2,3.11-2.97,4.76-3.17,4.69-.69,10.84-.55,14.77,2.48.21.14.28.48.07.69-.14.14-.28.21-.48.21-5.94-.69-11.8-.35-17.6,1.04Z"/>
  <path class="cls-24" d="M9.14,175.2c-.07,0-.14.07-.21.07s-.07.07-.07.14c.07,2.69,1.04,5.11,2.9,7.11.21.21.14.55,0,.69-2,1.86-5.8-1.1-6.97-2.55-3.66-4.56-4-9.25-1.04-14.15,2.62-4.21,17.19-3.38,19.95-2.9,3.38.55,7.94,5.18,4.62,8.83-.14.14-.35.21-.55.21l-2-.14c-.21,0-.35-.14-.41-.35l-.35-1.73c-.07-.21-.21-.28-.41-.21-.07,0-.14.07-.21.14-.07.07-.07.14-.07.21.07,1.31,1.04,5.04,2.9,4.97.14,0,.28-.14.28-.28,0-.07-.07-.21-.14-.21-.62-.41-1.17-.9-1.52-1.52-.14-.28-.07-.41.28-.41,6.07.55,4.49,10.21-2.83,9.18-3.52-.48-5.87-3.31-5.66-7.04,0-.35-.07-.62-.14-.9-.07-.14-.21-.21-.41-.14-.07.07-.14.14-.14.28-.21,2.69.62,5.04,2.35,7.04.14.14.14.41,0,.55l-.07.07c-1.59.83-3.17,1.1-4.83.9-3.11-.48-4.49-4.97-4.83-7.59-.14-.28-.28-.35-.41-.28ZM7.63,166.09c-.48.97-.69,3.66.55,4.21.14.07.28,0,.28-.14v-.21c-.55-1.31-.55-2.62-.07-4,.07-.14,0-.28-.14-.35h-.21c-.14.07-.35.21-.41.48ZM11.77,165.95c-.76,1.45-.76,2.83.14,4.21.07.14.21.14.35.07.07-.07.14-.14.14-.28l-.41-2.48c0-.14,0-.21.07-.28.35-.48.41-.9.28-1.24-.14-.35-.35-.41-.55,0ZM15.15,166.57c-.48,1.17-.35,2.35.35,3.38.07.14.28.14.41.07.14-.07.14-.21.14-.35-.35-.97-.41-1.93-.28-2.97.35-1.93.14-2-.62-.14Z"/>
  <path class="cls-23" d="M7.63,166.09c.14-.28.28-.41.48-.48.14-.07.28.07.35.21v.21c-.55,1.31-.48,2.62.07,4,.07.14,0,.28-.14.28h-.21c-1.24-.48-1.04-3.24-.55-4.21Z"/>
  <path class="cls-21" d="M12.32,165.95c.14.35,0,.76-.28,1.24-.07.07-.07.21-.07.28l.41,2.48c0,.14-.07.28-.21.28-.07,0-.21,0-.28-.14-.9-1.38-.97-2.76-.14-4.21.21-.35.41-.28.55.07Z"/>
  <path class="cls-21" d="M15.77,166.78c-.21,1.04-.07,2,.28,2.97.07.14-.07.35-.21.35-.14.07-.28,0-.35-.14-.69-1.1-.83-2.21-.35-3.38.76-1.86.97-1.79.62.21Z"/>
  <path class="cls-23" d="M80.51,214.89c-3.93-1.79-7.18-4.07-8.7-8.35-.07-.21,0-.41.14-.55,9.11-8.83,17.25-18.5,24.36-28.99.14-.21.35-.21.55-.14.07,0,.07.07.07.07l7.32,10.21c.14.14.14.35,0,.48-7.32,11.25-14.7,18.36-23.26,27.05-.07.28-.28.28-.48.21Z"/>
  <path class="cls-24" d="M70.36,224c-4.56-2.21-8.28-2.35-7.18-8.97.48-2.9,4.35-6.35,6.35-8.42.35-.35.97-.41,1.31,0,.07.07.14.21.21.35,1.66,4.07,4.56,6.83,8.63,8.35.28.07.41.41.28.69,0,.07-.07.14-.14.21l-8.97,7.73c-.07.14-.28.14-.48.07Z"/>
  <path class="cls-24" d="M138.97,232.97c-2.69-.9-5.66-5.31-7.18-7.52-.28-.41-.21-.97.21-1.24.07-.07.21-.07.28-.14,4.28-1.1,7.52-3.66,9.66-7.59.14-.21.35-.28.55-.14.07,0,.14.07.14.14l6.35,10.21c.14.21.14.48,0,.69-2.9,4.28-3.59,7.73-10.01,5.59Z"/>
  <path class="cls-24" d="M150.42,218.54c.07-.41.55-.69.97-.62.21.07.35.14.48.35l2.14,3.31c.14.21.07.55-.14.69h0c-1.04.55-1.86,1.38-2.55,2.35-.21.35-.41.28-.55-.07-.76-1.93-.83-4-.35-6Z"/>
  <path class="cls-24" d="M160.57,221.37c-.83-.28-1.31-.62-1.52-.97-.21-.48,0-1.04.48-1.24.41-.21.9,0,1.17.35.35.48.35,1.1.07,1.79,0,.07-.07.07-.21.07Z"/>
  <path class="cls-24" d="M174.23,232.83c-4.28-3.59-7.59-7.73-9.46-12.98-.14-.41,0-.62.41-.55,4.83.41,9.04,2.28,12.49,5.66.21.21.28.55.14.83l-3.04,6.9c-.07.21-.35.28-.55.21.07,0,0-.07,0-.07Z"/>
  <path class="cls-24" d="M155.12,222.62c-.21-.14-.28-.48-.14-.69q.07-.07.14-.14l.55-.41c.28-.21.55-.14.69.14l1.31,2.21c.07.14,0,.28-.07.35s-.21.07-.28,0l-2.21-1.45Z"/>
  <path class="cls-24" d="M73.4,225.72c-.28-.21-.28-.41.07-.55,1.86-.9,3.73-1.31,5.8-1.1.41,0,.76.41.69.83,0,.21-.07.35-.21.48l-2.62,2.48c-.28.21-.48.28-.76.07l-2.97-2.21Z"/>
  <path class="cls-24" d="M153.25,224.2l1.73,2.9c.07.14.07.35-.14.48-.07.07-.21.07-.35,0l-2.9-1.73c-.14-.07-.21-.28-.14-.48,0,0,0-.07.07-.07l1.17-1.17c.21-.14.41-.14.55.07,0-.07,0,0,0,0Z"/>
  <path class="cls-24" d="M47.93,228.9c-.48-1.45,1.38-3.17,2.62-3.45.28-.07.41.07.48.28,1.04,3.8,1.38,7.59.97,11.53,0,.14-.14.21-.28.21-.07,0-.14-.07-.21-.14-1.45-2.62-2.62-5.45-3.59-8.42Z"/>
  <path class="cls-24" d="M74.02,227.65l-2.48,2.14c-.14.14-.41.14-.55-.07-.07-.14-.14-.28-.07-.41l1.38-2.97c.07-.21.35-.28.48-.21,0,0,.07,0,.07.07l1.1.83c.21.21.21.41.07.62h0Z"/>
  <path class="cls-24" d="M152.29,253.54c-1.17-.07-1.79-.76-1.86-2.21,0-.21.07-.35.28-.35,14.08-2.07,22.71-11.18,27.47-24.23.14-.41.55-.62.97-.48.28.07.48.35.48.62.41,4.49-.55,8.42-2.9,11.73-4.56,6.56-16.56,15.32-24.43,14.91Z"/>
  <path class="cls-24" d="M59.46,250.71c-6.07-4.42-13.67-12.22-14.63-19.95,0-.21.07-.41.21-.55l1.38-1.17c.35-.28.62-.21.76.21,3.11,9.73,9.18,16.56,18.29,20.5,2.83,1.24,6.69,2.14,10.15,3.17.14.07.28.21.21.35,0,.07-.07.14-.14.14-4.69,3.31-12.08.28-16.22-2.69Z"/>
  <path class="cls-24" d="M76.02,229.1c.07-.21.35-.35.55-.21l.21.21.41.76c.14.21.07.41-.07.62-.55.69-1.17,1.24-1.93,1.59-.41.21-.48.07-.35-.28l1.17-2.69Z"/>
  <path class="cls-24" d="M79.54,232.62l.48,1.38c.07.21,0,.41-.21.48h-.07l-1.45.28c-.21.07-.41-.07-.41-.28,0-.07,0-.21.07-.28l.97-1.66c.07-.21.35-.28.48-.14,0,0,.07.07.14.21Z"/>
  <path class="cls-24" d="M68.84,250.22c-.14-.07-.21-.21-.21-.35v-.07c2.62-4.42,6.56-9.11,11.32-11.32.48-.21.76-.07.76.48.28,4.76-.9,9.11-3.73,12.98-.21.35-.62.48-1.04.35l-7.11-2.07Z"/>
  <path class="cls-24" d="M158.77,247.19c.21.07.41.07.62.07.14,0,.28.14.28.35,0,.14-.07.21-.21.28-3.17,1.24-6.42,2.07-9.8,2.48-.28.07-.48-.07-.62-.28l-1.59-2.55c-.21-.28-.07-.69.21-.83.07-.07.14-.07.28-.07,3.73-.35,7.32-.21,10.84.55Z"/>
</svg>